<svg width="14" height="14" viewBox="0 0 14 14" fill="none" xmlns="http://www.w3.org/2000/svg">
<path d="M6.9987 0.333008C7.24892 0.333008 7.49559 0.346563 7.7387 0.373675C7.82572 0.383305 7.90999 0.409981 7.98671 0.45218C8.06342 0.49438 8.13107 0.551276 8.1858 0.61962C8.24052 0.687963 8.28125 0.766417 8.30565 0.850501C8.33006 0.934584 8.33766 1.02265 8.32803 1.10967C8.3184 1.1967 8.29172 1.28097 8.24953 1.35768C8.20733 1.4344 8.15043 1.50205 8.08209 1.55677C8.01374 1.6115 7.93529 1.65222 7.85121 1.67663C7.76712 1.70103 7.67905 1.70864 7.59203 1.69901C6.49339 1.5761 5.38371 1.79763 4.41648 2.33296C3.44925 2.86828 2.67227 3.69094 2.19301 4.68714C1.71375 5.68334 1.5559 6.80385 1.74129 7.89369C1.92669 8.98352 2.44616 9.98882 3.22786 10.7705C4.00956 11.5522 5.01485 12.0717 6.10468 12.2571C7.19452 12.4425 8.31503 12.2846 9.31123 11.8054C10.3074 11.3261 11.1301 10.5491 11.6654 9.58189C12.2007 8.61466 12.4223 7.50498 12.2994 6.40634C12.2897 6.31932 12.2973 6.23125 12.3217 6.14717C12.3461 6.06308 12.3869 5.98463 12.4416 5.91629C12.5521 5.77826 12.7129 5.68979 12.8887 5.67034C13.0644 5.65089 13.2407 5.70206 13.3788 5.81258C13.4471 5.8673 13.504 5.93495 13.5462 6.01167C13.5884 6.08838 13.6151 6.17265 13.6247 6.25968C13.6514 6.50279 13.6649 6.74945 13.6654 6.99967C13.6654 10.6817 10.6807 13.6663 6.9987 13.6663C3.3167 13.6663 0.332031 10.6817 0.332031 6.99967C0.332031 3.31767 3.3167 0.333008 6.9987 0.333008ZM6.97737 4.25101C7.0213 4.42216 6.99549 4.60375 6.90561 4.75588C6.81574 4.90801 6.66914 5.01824 6.49803 5.06234C6.02795 5.18548 5.61872 5.47545 5.34672 5.87815C5.07472 6.28084 4.95853 6.76874 5.01983 7.25081C5.08113 7.73287 5.31573 8.17617 5.67986 8.49797C6.04398 8.81977 6.51275 8.9981 6.9987 8.99967C7.44223 8.99986 7.87325 8.85261 8.22395 8.58107C8.57466 8.30954 8.82515 7.92913 8.93603 7.49967C8.98329 7.33191 9.09436 7.18932 9.24546 7.10246C9.39657 7.01559 9.57568 6.99135 9.74443 7.03494C9.91319 7.07852 10.0582 7.18646 10.1483 7.33563C10.2385 7.4848 10.2666 7.66334 10.2267 7.83301C10.0222 8.61696 9.53926 9.29965 8.86814 9.75352C8.19701 10.2074 7.38361 10.4014 6.57987 10.2993C5.77614 10.1973 5.03706 9.80606 4.5007 9.19883C3.96435 8.5916 3.66741 7.80986 3.66536 6.99967C3.66525 6.2606 3.91077 5.54245 4.36331 4.95812C4.81585 4.3738 5.44976 3.95644 6.16536 3.77167C6.25015 3.74982 6.33842 3.74488 6.42512 3.75715C6.51182 3.76941 6.59525 3.79863 6.67066 3.84314C6.74606 3.88765 6.81195 3.94658 6.86458 4.01657C6.91721 4.08655 6.95553 4.16621 6.97737 4.25101ZM11.3347 0.417675C11.4564 0.468127 11.5604 0.553499 11.6336 0.663014C11.7068 0.772529 11.7459 0.901277 11.746 1.03301V2.25301H12.9654C13.0972 2.25304 13.2261 2.29215 13.3357 2.36541C13.4453 2.43866 13.5307 2.54277 13.5812 2.66457C13.6316 2.78637 13.6448 2.92039 13.6191 3.0497C13.5934 3.179 13.5299 3.29777 13.4367 3.39101L11.0787 5.74634C10.9537 5.87137 10.7842 5.94164 10.6074 5.94167H8.9987L7.78003 7.16101C7.65494 7.2861 7.48527 7.35638 7.30836 7.35638C7.13146 7.35638 6.96179 7.2861 6.8367 7.16101C6.7116 7.03591 6.64133 6.86625 6.64133 6.68934C6.64133 6.51243 6.7116 6.34277 6.8367 6.21767L8.05603 4.99967V3.39034C8.05607 3.21354 8.12633 3.044 8.25136 2.91901L10.608 0.561674C10.7013 0.468386 10.8201 0.404847 10.9494 0.379095C11.0788 0.353344 11.2128 0.366538 11.3347 0.417008M10.4127 2.64167L9.38937 3.66634V4.60901H10.332L11.356 3.58567H11.0794C10.9026 3.58567 10.733 3.51544 10.608 3.39041C10.4829 3.26539 10.4127 3.09582 10.4127 2.91901V2.64167Z" fill="white"/>
</svg>
