<svg width="150" height="150" viewBox="0 0 150 150" fill="none" xmlns="http://www.w3.org/2000/svg">
<path d="M71.4091 64.1958C66.7443 66.5778 60.1229 75.4254 60.1229 75.4254L52.0551 65.8958C48.4777 67.0297 45.4406 69.4367 43.5195 72.6605L54.3663 84.9535C55.545 86.2866 57.1602 87.1559 58.9221 87.4054C60.6839 87.6548 62.477 87.2681 63.9795 86.3146L77.6358 77.6231L70.5748 84.3438L68.2212 116.047C71.8394 117.419 75.8437 117.363 79.4224 115.892L82.5275 67.4286C80.1007 68.8748 73.9188 66.7913 71.4091 64.1958Z" fill="#5EBAB0"/>
<path d="M79.9047 58.3398C79.3219 58.3398 78.7629 58.5714 78.3507 58.9835C77.9386 59.3957 77.707 59.9547 77.707 60.5376C77.707 61.1204 77.9386 61.6794 78.3507 62.0916C78.7629 62.5037 79.3219 62.7353 79.9047 62.7353C80.4876 62.7353 81.0466 62.5037 81.4587 62.0916C81.8709 61.6794 82.1024 61.1204 82.1024 60.5376C82.1024 59.9547 81.8709 59.3957 81.4587 58.9835C81.0466 58.5714 80.4876 58.3398 79.9047 58.3398Z" fill="#5EBAB0"/>
<path d="M97.625 108.051C97.6241 109.862 98.2575 111.617 99.4152 113.01C100.573 114.404 102.182 115.348 103.963 115.679V132.651H106.813V115.679C108.593 115.346 110.201 114.402 111.359 113.009C112.516 111.616 113.15 109.862 113.151 108.051H97.625ZM105.381 113.467C105.189 113.467 104.999 113.429 104.822 113.356C104.645 113.282 104.484 113.175 104.348 113.039C104.213 112.903 104.105 112.742 104.032 112.565C103.958 112.388 103.921 112.198 103.921 112.006C103.921 111.814 103.959 111.625 104.032 111.447C104.105 111.27 104.213 111.109 104.349 110.974C104.484 110.838 104.645 110.731 104.823 110.657C105 110.584 105.19 110.546 105.382 110.546C105.769 110.546 106.14 110.7 106.414 110.974C106.688 111.248 106.842 111.62 106.842 112.007C106.841 112.394 106.688 112.766 106.414 113.04C106.14 113.313 105.768 113.467 105.381 113.467Z" fill="#5EBAB0"/>
<path d="M46.7667 132.611C46.8388 131.717 47.1311 130.855 47.6174 130.101C49.5442 127.223 51.0203 124.803 51.0203 117.836H41.1094C41.1094 124.329 42.3504 126.642 44.4414 129.973C44.9717 130.759 45.2937 131.667 45.3772 132.611C45.3205 134.893 45.0787 135.702 42.8108 136.496H49.3331C47.0786 135.699 46.7951 134.891 46.7667 132.611ZM44.2996 125.252L44.9235 123.182L43.1937 121.877L45.363 121.835L46.0719 119.793L46.7809 121.835L48.9502 121.877L47.2204 123.182L47.8443 125.252L46.0719 124.018L44.2996 125.252Z" fill="#5EBAB0"/>
<path d="M77.6196 77.6235L70.5586 84.3443L70.7287 82.0048L77.6196 77.6235Z" fill="#AD44D9"/>
<path d="M78.4294 127.887C77.5683 124.148 77.3473 120.289 77.7757 116.476C75.3377 117.15 72.7706 117.207 70.305 116.643C70.4732 118.42 70.2655 120.212 69.6953 121.904C70.6878 123.047 72.7027 123.577 73.1124 127.901C73.1724 128.504 73.4532 129.063 73.9008 129.472C74.3484 129.88 74.9311 130.108 75.537 130.113H83.1226C82.542 129.432 81.8235 128.881 81.0146 128.497C80.2056 128.113 79.3246 127.905 78.4294 127.887Z" fill="#AD44D9"/>
<path d="M46.0423 60.7356C40.4984 59.814 31.9203 59.4028 28.6875 60.7356C31.7593 62.909 35.0711 64.7217 38.5574 66.1377C39.879 66.4959 41.0887 67.1825 42.0737 68.134L44.6684 71.0548C46.2578 68.9714 48.3714 67.347 50.7937 66.3474L46.0423 60.7356Z" fill="#AD44D9"/>
<path d="M78.1445 46.2314L79.2221 47.465C79.2587 47.1822 79.3333 46.9061 79.446 46.6441C79 46.5486 78.5641 46.4104 78.1445 46.2314Z" fill="#AD44D9"/>
<path d="M73.804 37.6251C69.9504 41.7085 76.0331 45.2674 76.4905 45.5234C76.4749 44.368 76.3659 43.2157 76.1644 42.0779C74.6048 41.5556 75.3279 39.7101 76.3771 40.4362C76.7084 40.7004 77.054 40.8571 77.1144 40.4362C77.554 37.7706 79.5815 37.0616 80.8576 39.5287C79.1241 36.0229 76.8084 34.7639 73.804 37.6251Z" fill="#AD44D9"/>
<path d="M74.133 32.7043C73.6826 32.3314 73.1329 32.0984 72.5517 32.0339C71.9705 31.9694 71.3831 32.0763 70.8618 32.3414C70.3406 32.6065 69.9083 33.0182 69.618 33.5259C69.3278 34.0336 69.1923 34.615 69.2283 35.1987C69.2644 35.7823 69.4702 36.3427 69.8207 36.8109C70.1711 37.279 70.6508 37.6345 71.2006 37.8335C71.7505 38.0325 72.3466 38.0664 72.9155 37.931C73.4843 37.7956 74.0012 37.4968 74.4024 37.0713C74.9254 36.4474 75.1889 35.6466 75.1388 34.8341C75.0887 34.0215 74.7287 33.2592 74.133 32.7043Z" fill="#AD44D9"/>
<path d="M61.8952 53.4058C61.7676 54.6818 62.0229 55.7191 62.6467 55.9296C63.384 56.1706 64.2206 55.5184 64.9862 54.4833C63.9446 54.1575 62.9137 53.7981 61.8952 53.4058Z" fill="#AD44D9"/>
<path d="M71.2822 58.7369L70.4173 59.9421C70.2326 59.3934 70.0335 58.8497 69.8203 58.3115C70.3322 58.4533 70.8285 58.5951 71.2822 58.7369Z" fill="#AD44D9"/>
<path d="M80.8555 6.91343V24.1406C92.241 28.2808 103.627 20.0004 115.012 24.1406V6.91343C103.627 2.77324 92.238 11.0536 80.8555 6.91343Z" fill="#AD44D9"/>
<path d="M115.012 38.5742V49.9172" stroke="#FFE8FF" stroke-width="0.75" stroke-linecap="round" stroke-linejoin="round"/>
<path d="M115.012 4.10547V30.4496" stroke="#FFE8FF" stroke-width="0.75" stroke-linecap="round" stroke-linejoin="round"/>
<path d="M81.7921 48.4287L79.9063 58.3397L73.1289 48.6698" stroke="#FFE8FF" stroke-width="0.75" stroke-linecap="round" stroke-linejoin="round"/>
<path d="M71.413 64.1953C66.7482 66.5773 60.1268 75.4249 60.1268 75.4249L52.059 65.8953C48.4816 67.0292 45.4445 69.4362 43.5234 72.66L54.3441 84.953C55.523 86.2852 57.1379 87.1539 58.8993 87.4033C60.6607 87.6527 62.4533 87.2666 63.9558 86.3142L70.7332 82.0038L68.2094 116.047C71.8356 117.406 75.8415 117.346 79.4248 115.877L82.5299 67.4281" stroke="#FFE8FF" stroke-width="0.75" stroke-linecap="round" stroke-linejoin="round"/>
<path d="M77.6235 77.6226L70.5625 84.3433L70.7326 82.0038L77.6235 77.6226Z" stroke="#FFE8FF" stroke-width="0.75" stroke-linecap="round" stroke-linejoin="round"/>
<path d="M84.0447 131.608C83.8251 131.061 83.5134 130.556 83.123 130.115H75.5516C74.9465 130.108 74.3651 129.879 73.918 129.471C73.4709 129.063 73.1894 128.505 73.127 127.903C73.031 126.339 72.4844 124.836 71.5532 123.575C71.2121 123.165 70.192 122.441 69.7099 121.902C69.0152 124.326 69.5786 124.173 70.3338 125.078C71.2688 126.33 71.816 127.828 71.9076 129.388C71.9621 129.991 72.2391 130.553 72.6847 130.963C73.1302 131.373 73.7125 131.602 74.318 131.607L84.0447 131.608Z" stroke="#FFE8FF" stroke-width="0.75" stroke-linecap="round" stroke-linejoin="round"/>
<path d="M77.7757 116.476C77.3495 120.284 77.5706 124.137 78.4294 127.872C79.3221 127.889 80.2009 128.096 81.0076 128.479C81.8143 128.861 82.5304 129.411 83.1084 130.092H75.537C74.9315 130.09 74.3484 129.863 73.9004 129.456C73.4525 129.048 73.1717 128.489 73.1124 127.887C73.0251 126.32 72.4776 124.815 71.5385 123.558C71.1886 123.143 70.1632 122.424 69.6953 121.885C69.7662 121.644 69.8371 121.389 69.9364 121.091C70.308 119.644 70.4341 118.145 70.3095 116.656" stroke="#FFE8FF" stroke-width="0.75" stroke-linecap="round" stroke-linejoin="round"/>
<path d="M50.7976 66.3499L46.0462 60.7351C40.5023 59.8135 31.9242 59.4023 28.6914 60.7351C31.7645 62.9066 35.076 64.7191 38.5613 66.1372C39.8837 66.4947 41.0933 67.182 42.0776 68.1335L44.6724 71.0543" stroke="#FFE8FF" stroke-width="0.75" stroke-linecap="round" stroke-linejoin="round"/>
<path d="M28.6938 60.736C28.075 60.3009 27.4698 59.847 26.8789 59.3748C30.0132 57.8719 39.1293 58.1696 44.7583 59.2047L46.0471 60.736" stroke="#FFE8FF" stroke-width="0.75" stroke-linecap="round" stroke-linejoin="round"/>
<path d="M79.2238 47.463L78.1328 46.231C78.5597 46.4063 79.0007 46.5444 79.4514 46.6421" stroke="#FFE8FF" stroke-width="0.75" stroke-linecap="round" stroke-linejoin="round"/>
<path d="M38.306 40.0751C38.2776 40.1176 37.0374 39.1997 35.5411 38.0602C33.8651 36.7916 34.0233 35.9767 36.2075 37.1386C37.285 37.7798 38.465 38.2307 39.6955 38.4714" stroke="#FFE8FF" stroke-width="0.75" stroke-linecap="round" stroke-linejoin="round"/>
<path d="M40.5603 37.3266C40.5603 37.3266 36.8291 34.6751 36.5903 34.4908C34.8463 33.158 34.3254 33.7505 35.6545 35.2423C36.8768 36.6147 38.5328 38.1915 38.5328 38.1915" stroke="#FFE8FF" stroke-width="0.75" stroke-linecap="round" stroke-linejoin="round"/>
<path d="M66.1822 46.9115C56.9943 43.6646 47.1252 39.0013 47.055 38.9714C46.2961 38.6483 45.5237 37.6812 45.6655 36.9566C45.9073 35.723 46.4461 33.9619 45.8215 33.8372C44.8723 33.6484 44.3044 36.3043 43.4111 36.914C43.0992 37.1267 42.2066 36.4737 41.894 36.1767C41.3716 35.679 39.5978 34.0066 39.4269 33.8372C37.8597 32.2843 37.3374 32.9753 38.4769 34.4611C39.0698 35.2056 39.5656 36.0226 39.9522 36.8924" stroke="#FFE8FF" stroke-width="0.75" stroke-linecap="round" stroke-linejoin="round"/>
<path d="M41.2279 36.6172C40.0451 37.6982 39.2777 39.1589 39.0586 40.7462" stroke="#FFE8FF" stroke-width="0.75" stroke-linecap="round" stroke-linejoin="round"/>
<path d="M41.9204 37.8359C41.4384 39.6083 41.7503 41.0687 43.2533 41.9761" stroke="#FFE8FF" stroke-width="0.75" stroke-linecap="round" stroke-linejoin="round"/>
<path d="M85.9297 55.1353C86.0401 55.9576 86.0685 56.7889 86.0148 57.6165" stroke="#FFE8FF" stroke-width="0.75" stroke-linecap="round" stroke-linejoin="round"/>
<path d="M76.4719 45.5358C72.8847 43.5209 70.9333 40.3643 74.4018 37.0569C77.4361 34.4622 79.7189 37.1845 80.8532 39.524" stroke="#FFE8FF" stroke-width="0.75" stroke-linecap="round" stroke-linejoin="round"/>
<path d="M74.133 32.7038C73.6826 32.3309 73.1329 32.0979 72.5517 32.0334C71.9705 31.9689 71.3831 32.0758 70.8618 32.3409C70.3406 32.606 69.9083 33.0177 69.618 33.5254C69.3278 34.0331 69.1923 34.6145 69.2283 35.1982C69.2644 35.7819 69.4702 36.3423 69.8207 36.8104C70.1711 37.2785 70.6508 37.634 71.2006 37.833C71.7505 38.032 72.3466 38.0659 72.9155 37.9305C73.4843 37.7951 74.0012 37.4963 74.4024 37.0708C74.9254 36.4469 75.1889 35.6461 75.1388 34.8336C75.0887 34.021 74.7287 33.2587 74.133 32.7038Z" stroke="#FFE8FF" stroke-width="0.75" stroke-linecap="round" stroke-linejoin="round"/>
<path d="M62.6808 55.9439C62.0554 55.7305 61.7726 54.6753 61.9017 53.3984" stroke="#FFE8FF" stroke-width="0.75" stroke-linecap="round" stroke-linejoin="round"/>
<path d="M64.9894 54.4824C57.215 52.0034 44.3571 45.5968 39.496 42.7708C38.4744 42.1738 37.4371 41.6126 36.405 41.041C35.9839 40.8091 35.5679 40.568 35.1573 40.3179C33.4089 39.2477 33.4984 38.5739 35.6961 39.4104C36.5261 39.7211 37.3862 39.9445 38.2625 40.0768H38.2766C38.5677 40.1261 38.861 40.1544 39.1557 40.1619" stroke="#FFE8FF" stroke-width="0.75" stroke-linecap="round" stroke-linejoin="round"/>
<path d="M113.994 36.3062C112.591 36.1868 112.562 34.4891 113.923 34.5055C114.93 34.5182 115.653 34.5622 116.447 34.6047C117.794 34.6794 117.766 36.4704 116.66 36.5047C115.769 36.483 114.879 36.4168 113.994 36.3062Z" stroke="#FFE8FF" stroke-width="0.75" stroke-linecap="round" stroke-linejoin="round"/>
<path d="M115.04 30.6203C115.536 30.6061 115.891 30.6136 116.373 30.6061C117.649 30.5874 117.692 32.3971 116.642 32.4919C116.099 32.5284 115.555 32.5284 115.012 32.4919" stroke="#FFE8FF" stroke-width="0.75" stroke-linecap="round" stroke-linejoin="round"/>
<path d="M113.651 38.2342C112.304 38.0797 112.304 36.4335 113.622 36.4902C114.601 36.5327 115.295 36.5954 116.061 36.6603C117.35 36.7693 117.294 38.5036 116.231 38.5036C115.579 38.5036 114.898 38.3775 113.651 38.2342Z" stroke="#FFE8FF" stroke-width="0.75" stroke-linecap="round" stroke-linejoin="round"/>
<path d="M114.999 32.5381C115.521 32.5523 115.963 32.5941 116.473 32.609C117.834 32.6493 117.863 34.4664 116.728 34.5373C116.048 34.5798 115.325 34.4783 114.02 34.4097C113.874 34.412 113.73 34.3791 113.599 34.3136C113.469 34.2482 113.356 34.1523 113.27 34.0339C113.184 33.9156 113.129 33.7783 113.107 33.6338C113.086 33.4893 113.1 33.3417 113.148 33.2037C113.213 33.0187 113.335 32.8605 113.498 32.7508" stroke="#FFE8FF" stroke-width="0.75" stroke-linecap="round" stroke-linejoin="round"/>
<path d="M88.7812 44.6433C99.2735 39.1845 111.666 29.5108 113.339 29.628C115.31 29.7661 115.134 29.8519 114.955 33.2294C114.911 34.0503 113.481 34.1368 113.225 31.513C113.438 33.5279 112.516 34.9018 111.155 35.3413" stroke="#FFE8FF" stroke-width="0.75" stroke-linecap="round" stroke-linejoin="round"/>
<path d="M115.979 38.4893C114.193 38.6594 111.924 38.631 108.961 40.8026C103.906 44.5128 98.6361 47.9216 93.1797 51.0113" stroke="#FFE8FF" stroke-width="0.75" stroke-linecap="round" stroke-linejoin="round"/>
<path d="M69.8477 58.3203C70.3581 58.4763 70.8305 58.5942 71.2984 58.7218L70.4312 59.9248" stroke="#FFE8FF" stroke-width="0.75" stroke-linecap="round" stroke-linejoin="round"/>
<path d="M69.8485 58.3206C70.5834 60.2207 71.1089 62.1952 71.4156 64.2093C73.9253 66.804 80.1072 68.8741 82.5348 67.4278C83.981 62.6518 85.7959 61.0332 86.0227 57.6161C88.7451 56.2408 91.7084 54.6102 93.4241 53.0506C93.4241 49.9029 91.5099 46.1851 88.7876 44.6426C86.5242 46.0238 84.191 47.2873 81.7975 48.4283C80.9467 48.7977 80.5781 48.9104 80.1557 48.7544C78.7237 49.4775 76.6961 49.2932 74.8812 48.7119C74.6014 48.7984 74.3066 48.8231 74.0163 48.7828C71.3514 48.4223 68.7294 47.7953 66.1897 46.9112C68.5575 47.8455 65.2509 56.5841 62.6875 55.9408C65.0459 56.8176 67.4344 57.6114 69.8485 58.3206Z" stroke="#FFE8FF" stroke-width="0.75" stroke-linecap="round" stroke-linejoin="round"/>
<path d="M80.1486 48.7548C79.8851 48.6542 79.6572 48.4781 79.4933 48.2486C79.3293 48.0191 79.2367 47.7464 79.227 47.4645C79.2643 47.1824 79.3396 46.9063 79.4508 46.6437C82.4314 47.1078 82.1649 42.6012 80.8545 39.5259C79.5784 37.0588 77.5218 37.7633 77.1113 40.4334C77.0464 40.8557 76.6636 40.6893 76.3599 40.4475C75.3106 39.7244 74.5875 41.5669 76.1472 42.0893C76.3509 43.2266 76.4599 44.3795 76.4733 45.5347C76.4658 46.981 76.2323 48.2959 74.8711 48.7108" stroke="#FFE8FF" stroke-width="0.75" stroke-linecap="round" stroke-linejoin="round"/>
<path d="M61.3008 145.893V131.629H90.112V145.893" stroke="#FFE8FF" stroke-width="0.75" stroke-linecap="round" stroke-linejoin="round"/>
<path d="M32.4922 145.893V138.761H61.3034V145.893" stroke="#FFE8FF" stroke-width="0.75" stroke-linecap="round" stroke-linejoin="round"/>
<path d="M90.1172 145.893V135.401H118.943V145.893" stroke="#FFE8FF" stroke-width="0.75" stroke-linecap="round" stroke-linejoin="round"/>
<path d="M80.8555 6.91294V24.1401C92.241 28.2803 103.627 19.9999 115.012 24.1401V6.91294C103.627 2.77275 92.238 11.0531 80.8555 6.91294Z" stroke="#FFE8FF" stroke-width="0.75" stroke-linecap="round" stroke-linejoin="round"/>
<path d="M110.871 132.65V135.401H99.8828V132.65H110.871Z" stroke="#FFE8FF" stroke-width="0.75" stroke-linecap="round" stroke-linejoin="round"/>
<path d="M97.6328 108.05C97.6367 109.861 98.2718 111.613 99.4287 113.005C100.586 114.398 102.192 115.343 103.971 115.678V132.65H106.821V115.678C108.602 115.349 110.212 114.405 111.37 113.011C112.528 111.617 113.161 109.862 113.159 108.05H97.6328Z" stroke="#FFE8FF" stroke-width="0.75" stroke-linecap="round" stroke-linejoin="round"/>
<path d="M99.7702 113.395C98.3164 113.452 96.8746 113.111 95.6003 112.409C94.326 111.707 93.2675 110.67 92.5391 109.411H97.7606" stroke="#FFE8FF" stroke-width="0.75" stroke-linecap="round" stroke-linejoin="round"/>
<path d="M111.059 113.395C112.512 113.452 113.954 113.111 115.229 112.409C116.503 111.707 117.561 110.67 118.29 109.411H113.086" stroke="#FFE8FF" stroke-width="0.75" stroke-linecap="round" stroke-linejoin="round"/>
<path d="M104.819 71.9788C104.82 72.4725 104.673 72.9552 104.399 73.3658C104.125 73.7763 103.735 74.0961 103.279 74.2848C102.784 74.4897 102.237 74.5301 101.718 74.4001C101.198 74.2701 100.734 73.9765 100.395 73.5627C100.055 73.1489 99.8575 72.6368 99.8311 72.1021C99.8048 71.5674 99.9511 71.0384 100.248 70.5933C100.546 70.1481 100.978 69.8103 101.483 69.6299C101.987 69.4495 102.535 69.4359 103.048 69.5912C103.56 69.7465 104.009 70.0625 104.328 70.4924C104.647 70.9224 104.819 71.4435 104.819 71.9788Z" stroke="#FFE8FF" stroke-width="0.75" stroke-linecap="round" stroke-linejoin="round"/>
<path d="M106.853 112.007C106.853 112.224 106.805 112.437 106.712 112.632C106.62 112.827 106.485 113 106.318 113.137C106.151 113.274 105.956 113.372 105.746 113.425C105.536 113.478 105.318 113.483 105.106 113.441C104.823 113.384 104.563 113.245 104.358 113.04C104.154 112.836 104.015 112.576 103.958 112.293C103.901 112.009 103.93 111.715 104.041 111.448C104.151 111.181 104.339 110.953 104.579 110.793C104.86 110.604 105.198 110.52 105.534 110.553C105.871 110.586 106.185 110.735 106.424 110.975C106.698 111.249 106.852 111.62 106.853 112.007Z" stroke="#FFE8FF" stroke-width="0.75" stroke-linecap="round" stroke-linejoin="round"/>
<path d="M57.6641 21.9141V27.0042" stroke="#FFE8FF" stroke-width="0.75" stroke-linecap="round" stroke-linejoin="round"/>
<path d="M60.2137 24.459H55.1094" stroke="#FFE8FF" stroke-width="0.75" stroke-linecap="round" stroke-linejoin="round"/>
<path d="M46.2308 96.8203L44.4727 100.74H47.6771L45.9189 104.661" stroke="#FFE8FF" stroke-width="0.75" stroke-linecap="round" stroke-linejoin="round"/>
<path d="M49.2539 67.0896L57.8432 77.2259C59.3745 79.0975 60.5797 79.0266 61.9409 77.24C64.4782 73.908 69.1153 68.0806 72.9854 65.4717" stroke="#FFE8FF" stroke-width="0.75" stroke-linecap="round" stroke-linejoin="round"/>
<path d="M48.0898 67.8104L57.5754 78.7422C57.8837 79.0997 58.2687 79.3829 58.7017 79.5709C59.1346 79.7589 59.6045 79.8468 60.0761 79.828C60.5478 79.8086 61.009 79.683 61.4254 79.4607C61.8419 79.2383 62.2028 78.9249 62.4813 78.5437C65.2297 74.7848 69.9818 68.7604 73.9944 66.0664" stroke="#FFE8FF" stroke-width="0.75" stroke-linecap="round" stroke-linejoin="round"/>
<path d="M74.4039 79.7349L71.7383 116.897" stroke="#FFE8FF" stroke-width="0.75" stroke-linecap="round" stroke-linejoin="round"/>
<path d="M49.6755 138.705H42.4727L42.8129 136.493H49.3352L49.6755 138.705Z" stroke="#FFE8FF" stroke-width="0.75" stroke-linecap="round" stroke-linejoin="round"/>
<path d="M43.1526 127.914C41.2951 127.914 37.0273 125.611 37.0273 119.514H41.1534" stroke="#FFE8FF" stroke-width="0.75" stroke-linecap="round" stroke-linejoin="round"/>
<path d="M47.226 123.179L47.8498 125.249L46.0775 124.015L44.3052 125.249L44.929 123.179L43.1992 121.874L45.3686 121.818L46.0775 119.776L46.7864 121.818L48.9558 121.874L47.226 123.179Z" stroke="#FFE8FF" stroke-width="0.75" stroke-linecap="round" stroke-linejoin="round"/>
<path d="M49.3345 136.491C47.0801 135.697 46.7823 134.889 46.7681 132.606C46.8384 131.711 47.1308 130.849 47.6189 130.096C49.6405 127.045 51.0218 124.634 51.0218 117.832H41.125C41.125 124.324 42.366 126.637 44.457 129.969C44.9887 130.753 45.3108 131.661 45.3928 132.606C45.345 134.889 45.0943 135.697 42.8264 136.491H49.3345Z" stroke="#FFE8FF" stroke-width="0.75" stroke-linecap="round" stroke-linejoin="round"/>
<path d="M49.0508 127.914C50.9224 127.914 55.1051 125.601 55.1051 119.506H50.9933" stroke="#FFE8FF" stroke-width="0.75" stroke-linecap="round" stroke-linejoin="round"/>
<path d="M130.07 145.894H19.9297" stroke="#FFE8FF" stroke-width="0.75" stroke-linecap="round" stroke-linejoin="round"/>
<path d="M79.9047 58.3394C79.3219 58.3394 78.7629 58.5709 78.3507 58.983C77.9386 59.3952 77.707 59.9542 77.707 60.5371C77.707 61.1199 77.9386 61.6789 78.3507 62.0911C78.7629 62.5032 79.3219 62.7348 79.9047 62.7348C80.4876 62.7348 81.0466 62.5032 81.4587 62.0911C81.8709 61.6789 82.1024 61.1199 82.1024 60.5371C82.1024 59.9542 81.8709 59.3952 81.4587 58.983C81.0466 58.5709 80.4876 58.3394 79.9047 58.3394Z" stroke="#FFE8FF" stroke-width="0.75"/>
</svg>
