<svg width="20" height="20" viewBox="0 0 20 20" fill="none" xmlns="http://www.w3.org/2000/svg">
<path d="M8.93994 4.07994C9.2907 4.02617 9.64508 3.99943 9.99994 3.99994C13.1799 3.99994 16.1699 6.28994 17.9099 9.99994C17.6438 10.5645 17.3433 11.1122 17.0099 11.6399C16.9041 11.8038 16.8485 11.9949 16.8499 12.1899C16.8522 12.4082 16.9257 12.6197 17.0594 12.7922C17.1931 12.9647 17.3795 13.0888 17.5903 13.1455C17.8011 13.2021 18.0246 13.1883 18.2267 13.106C18.4289 13.0238 18.5986 12.8776 18.7099 12.6899C19.1759 11.9579 19.5806 11.1886 19.9199 10.3899C19.9736 10.2652 20.0013 10.1308 20.0013 9.99494C20.0013 9.85912 19.9736 9.72472 19.9199 9.59994C17.8999 4.90994 14.0999 1.99994 9.99994 1.99994C9.53061 1.99758 9.06203 2.03774 8.59994 2.11994C8.46862 2.14227 8.34298 2.19024 8.2302 2.26112C8.11742 2.332 8.0197 2.4244 7.94263 2.53304C7.86555 2.64169 7.81063 2.76445 7.78101 2.89432C7.75138 3.02419 7.74762 3.15862 7.76994 3.28994C7.79227 3.42126 7.84024 3.5469 7.91112 3.65968C7.982 3.77247 8.0744 3.87018 8.18304 3.94726C8.29169 4.02433 8.41445 4.07925 8.54432 4.10888C8.67419 4.13851 8.80862 4.14227 8.93994 4.11994V4.07994ZM1.70994 0.289941C1.6167 0.196703 1.50601 0.122742 1.38419 0.0722815C1.26237 0.0218212 1.1318 -0.00415039 0.999941 -0.00415039C0.868082 -0.00415039 0.737514 0.0218212 0.615692 0.0722815C0.49387 0.122742 0.38318 0.196703 0.289941 0.289941C0.101637 0.478245 -0.00415039 0.73364 -0.00415039 0.999941C-0.00415039 1.26624 0.101637 1.52164 0.289941 1.70994L3.38994 4.79994C1.97551 6.16147 0.849798 7.79393 0.0799412 9.59994C0.0248778 9.72611 -0.00354362 9.86228 -0.00354362 9.99994C-0.00354362 10.1376 0.0248778 10.2738 0.0799412 10.3999C2.09994 15.0899 5.89994 17.9999 9.99994 17.9999C11.797 17.9875 13.5517 17.4524 15.0499 16.4599L18.2899 19.7099C18.3829 19.8037 18.4935 19.8781 18.6154 19.9288C18.7372 19.9796 18.8679 20.0057 18.9999 20.0057C19.132 20.0057 19.2627 19.9796 19.3845 19.9288C19.5064 19.8781 19.617 19.8037 19.7099 19.7099C19.8037 19.617 19.8781 19.5064 19.9288 19.3845C19.9796 19.2627 20.0057 19.132 20.0057 18.9999C20.0057 18.8679 19.9796 18.7372 19.9288 18.6154C19.8781 18.4935 19.8037 18.3829 19.7099 18.2899L1.70994 0.289941ZM8.06994 9.47994L10.5199 11.9299C10.3509 11.9784 10.1758 12.002 9.99994 11.9999C9.46951 11.9999 8.9608 11.7892 8.58573 11.4142C8.21066 11.0391 7.99994 10.5304 7.99994 9.99994C7.99789 9.82413 8.02147 9.64895 8.06994 9.47994ZM9.99994 15.9999C6.81994 15.9999 3.82994 13.7099 2.09994 9.99994C2.74603 8.57369 3.66301 7.28652 4.79994 6.20994L6.56994 7.99994C6.15419 8.75874 5.99568 9.63189 6.1182 10.4884C6.24072 11.3449 6.63766 12.1386 7.24947 12.7504C7.86128 13.3622 8.65497 13.7592 9.51148 13.8817C10.368 14.0042 11.2411 13.8457 11.9999 13.4299L13.5899 14.9999C12.501 15.6408 11.2634 15.9856 9.99994 15.9999Z" fill="#F6F6F6"/>
</svg>
