<svg width="54" height="64" viewBox="0 0 54 64" fill="none" xmlns="http://www.w3.org/2000/svg">
<path d="M24.8754 34.1452C26.7697 37.4793 28.6605 40.8154 30.5606 44.1464C31.6721 46.0945 32.8215 48.0216 33.9144 49.9797C36.117 53.9256 34.826 58.6138 30.9466 60.8511C27.2446 62.9863 22.4451 61.7592 20.2268 57.959C14.8035 48.6675 9.41958 39.352 4.09566 30.0028C2.46321 27.1355 2.66857 24.1606 4.62047 21.5091C6.68066 18.7106 9.5797 17.7944 12.978 18.4229C13.8006 18.8127 14.7648 19.0455 15.4126 19.6295C16.4665 20.5786 17.4755 21.6576 18.2165 22.8588C20.5087 26.5762 22.666 30.3772 24.8754 34.1452Z" fill="#C879EB"/>
<path d="M27 37.9681C28.9399 34.6603 30.8841 31.3548 32.8186 28.0438C33.9502 26.1074 35.0443 24.1485 36.1933 22.2229C38.5099 18.3424 43.2151 17.116 47.0922 19.3572C50.7925 21.4959 52.1299 26.2656 49.9475 30.087C44.6124 39.4296 39.2374 48.7498 33.8025 58.0347C32.1356 60.8823 29.4566 62.1918 26.1844 61.8271C22.7304 61.4423 20.4876 59.3899 19.3324 56.1323C19.2593 55.2254 18.9785 54.274 19.1603 53.4209C19.4558 52.0336 19.8855 50.6201 20.5553 49.3778C22.6283 45.534 24.8412 41.7655 27 37.9681Z" fill="#C879EB"/>
<path d="M45.4998 25.5C42.2348 20.0374 31.2858 23.6575 31.2858 23.6575V3C31.2858 3 0.999755 25.5 9.49977 31.5C12.8508 33.8654 24.4805 33.8654 24.4805 33.8654V54.5229C24.4805 54.5229 50.4998 33.8654 45.4998 25.5Z" fill="white"/>
</svg>
