<svg width="332" height="221" viewBox="0 0 332 221" fill="none" xmlns="http://www.w3.org/2000/svg">
<g clip-path="url(#clip0_265_1444)">
<path d="M119.225 127.162C130.57 107.205 152.21 91.8819 175.119 93.3581C158.221 111.734 148.367 135.494 147.302 160.435C146.925 170.056 147.509 180.795 141.121 187.998C137.147 192.481 131.072 194.652 125.099 195.107C119.125 195.562 113.153 194.483 107.26 193.408L105.83 193.847C105.286 170.898 107.88 147.119 119.225 127.162Z" fill="#F0F0F0"/>
<path d="M175.153 93.8387C158.212 101.994 143.767 115.614 134.9 132.224C132.983 135.815 131.351 139.625 130.639 143.653C129.927 147.683 130.424 151.52 131.801 155.347C133.059 158.846 134.751 162.28 135.137 166.024C135.544 169.971 134.092 173.661 131.478 176.589C128.28 180.173 123.985 182.393 119.709 184.419C114.962 186.668 109.996 188.928 106.634 193.125C106.226 193.634 105.461 192.972 105.868 192.464C111.718 185.162 121.731 183.789 128.675 177.907C131.915 175.162 134.348 171.424 134.194 167.044C134.06 163.214 132.318 159.672 131.013 156.14C129.643 152.431 128.96 148.702 129.451 144.748C129.954 140.703 131.44 136.822 133.257 133.197C137.355 125.023 142.962 117.519 149.386 111.032C156.768 103.575 165.372 97.4366 174.825 92.8813C175.41 92.5996 175.734 93.5588 175.153 93.8387Z" fill="white"/>
<path d="M137.497 126.673C134.9 124.774 133.063 122.014 132.313 118.885C131.563 115.756 131.95 112.463 133.404 109.593C133.7 109.014 134.615 109.447 134.318 110.027C132.959 112.697 132.599 115.765 133.303 118.677C134.008 121.589 135.729 124.153 138.158 125.907C138.686 126.289 138.021 127.053 137.497 126.673Z" fill="white"/>
<path d="M130.929 153.657C137.436 152.706 143.346 149.337 147.481 144.223C147.89 143.716 148.655 144.377 148.246 144.884C143.934 150.198 137.777 153.691 131.003 154.666C130.357 154.758 130.287 153.749 130.929 153.657Z" fill="white"/>
<path d="M157.268 104.82C158.12 105.764 159.193 106.482 160.391 106.909C161.588 107.336 162.873 107.459 164.13 107.267C164.775 107.166 164.844 108.176 164.204 108.276C162.815 108.482 161.396 108.344 160.071 107.875C158.747 107.407 157.558 106.621 156.607 105.586C156.509 105.496 156.45 105.372 156.44 105.24C156.43 105.107 156.471 104.976 156.555 104.873C156.643 104.772 156.767 104.709 156.901 104.7C157.034 104.69 157.166 104.733 157.268 104.82Z" fill="white"/>
<path d="M220.699 156.315C220.298 156.389 219.898 156.463 219.494 156.545C214.115 157.571 208.828 159.033 203.685 160.915C203.285 161.054 202.882 161.201 202.487 161.352C190.146 166.019 178.779 172.936 168.963 181.753C165.061 185.265 161.431 189.068 158.105 193.131C153.513 198.742 148.98 205.191 142.979 208.849C142.357 209.238 141.712 209.588 141.047 209.897L106.476 195.557C106.414 195.485 106.348 195.421 106.285 195.349L104.879 194.839C105.036 194.618 105.203 194.391 105.36 194.17C105.451 194.041 105.549 193.915 105.639 193.787C105.702 193.702 105.765 193.617 105.817 193.537C105.838 193.508 105.859 193.48 105.876 193.46C105.928 193.379 105.985 193.31 106.033 193.238C106.966 191.97 107.909 190.707 108.863 189.447C108.866 189.44 108.866 189.44 108.877 189.435C116.168 179.859 124.323 170.807 133.592 163.282C133.871 163.055 134.153 162.821 134.447 162.601C138.644 159.232 143.109 156.211 147.799 153.57C150.371 152.131 153.014 150.824 155.718 149.653C162.712 146.641 170.136 144.748 177.718 144.043C192.832 142.639 208.228 146.085 219.82 155.58C220.117 155.824 220.406 156.064 220.699 156.315Z" fill="#F0F0F0"/>
<path d="M220.439 156.721C202.003 153.033 182.269 155.211 165.189 163.135C161.496 164.848 157.899 166.908 154.905 169.695C151.91 172.484 149.998 175.847 148.792 179.731C147.69 183.283 146.974 187.043 145.028 190.265C142.977 193.661 139.596 195.733 135.745 196.498C131.035 197.433 126.268 196.62 121.635 195.664C116.491 194.601 111.164 193.416 105.953 194.743C105.321 194.904 105.109 193.914 105.739 193.754C114.807 191.445 123.628 196.378 132.714 195.862C136.954 195.621 141.147 194.101 143.661 190.512C145.86 187.373 146.601 183.496 147.686 179.89C148.825 176.104 150.525 172.715 153.298 169.854C156.134 166.927 159.658 164.723 163.291 162.923C171.484 158.863 180.479 156.248 189.514 154.936C199.898 153.427 210.463 153.705 220.754 155.759C221.39 155.887 221.071 156.848 220.439 156.721Z" fill="white"/>
<path d="M170.605 160.267C169.675 157.187 169.869 153.877 171.154 150.927C172.439 147.978 174.731 145.581 177.62 144.165C178.205 143.881 178.675 144.777 178.089 145.062C175.396 146.376 173.262 148.608 172.071 151.357C170.88 154.106 170.711 157.19 171.594 160.053C171.785 160.675 170.795 160.885 170.605 160.267Z" fill="white"/>
<path d="M149.114 177.857C154.883 181.016 161.63 181.884 168.01 180.289C168.642 180.131 168.855 181.12 168.224 181.278C161.581 182.926 154.562 182.008 148.566 178.707C147.995 178.392 148.546 177.544 149.114 177.857Z" fill="white"/>
<path d="M199.548 154.722C199.66 155.988 200.084 157.207 200.784 158.27C201.483 159.332 202.435 160.203 203.554 160.806C204.129 161.114 203.577 161.962 203.006 161.657C201.772 160.985 200.722 160.021 199.947 158.849C199.172 157.677 198.695 156.334 198.559 154.935C198.535 154.805 198.562 154.67 198.634 154.558C198.706 154.446 198.818 154.366 198.947 154.334C199.078 154.306 199.215 154.332 199.327 154.404C199.44 154.477 199.519 154.591 199.548 154.722Z" fill="white"/>
<path d="M154.843 179.972C150.002 156.562 143.95 148.757 143.95 148.757L141.638 146.964L138.858 144.805L138.871 144.527L138.211 144.303L138.057 144.183L137.803 143.988L137.762 144.031L137.676 144.121L125.094 139.844L109.133 134.422L101.741 124.815C100.538 123.25 98.9877 121.986 97.2134 121.12C95.4391 120.255 93.4884 119.812 91.5144 119.827L67.909 120.001C64.7173 120.025 61.6498 121.242 59.3097 123.412L43.7943 137.804L19.6183 149.35L19.5775 149.31L19.3236 149.491L15.5882 151.277L15.7423 152.079L13.4303 153.748C13.4303 153.748 7.37839 161.01 2.53683 182.792C1.30519 188.335 0.698934 200.224 0.480107 214.875C0.469116 215.616 0.605572 216.352 0.881537 217.04C1.1575 217.728 1.56748 218.354 2.08762 218.882C2.60775 219.41 3.22768 219.83 3.91136 220.116C4.59503 220.402 5.32881 220.55 6.07003 220.55H135.199L151.316 220.55C152.057 220.55 152.79 220.402 153.473 220.116C154.156 219.83 154.776 219.411 155.296 218.884C155.816 218.357 156.226 217.731 156.503 217.044C156.779 216.357 156.916 215.621 156.906 214.881C156.692 198.939 156.086 185.982 154.843 179.972Z" fill="#121212"/>
<path d="M171.411 20.9656C166.387 20.9656 161.569 22.9613 158.017 26.5137C154.464 30.0661 152.469 34.8842 152.469 39.9081C152.469 44.932 154.464 49.7501 158.017 53.3025C161.569 56.8549 166.387 58.8507 171.411 58.8507H312.578C317.602 58.8507 322.42 56.8549 325.973 53.3025C329.525 49.7501 331.521 44.932 331.521 39.9081C331.521 34.8842 329.525 30.0661 325.973 26.5137C322.42 22.9613 317.602 20.9656 312.578 20.9656H171.411Z" fill="#E5E5E5"/>
<path d="M171.412 24.7991C167.405 24.7991 163.562 26.3909 160.728 29.2244C157.895 32.0579 156.303 35.9009 156.303 39.908C156.303 43.9152 157.895 47.7582 160.728 50.5916C163.562 53.4251 167.405 55.017 171.412 55.017H312.579C316.586 55.0169 320.429 53.4251 323.262 50.5916C326.096 47.7582 327.688 43.9152 327.688 39.908C327.688 35.9009 326.096 32.0579 323.262 29.2244C320.429 26.3909 316.586 24.7991 312.579 24.7991H171.412Z" fill="white"/>
<path d="M83.4195 110.959C100.499 110.959 114.345 97.1131 114.345 80.0335C114.345 62.9539 100.499 49.1082 83.4195 49.1082C66.3399 49.1082 52.4941 62.9539 52.4941 80.0335C52.4941 97.1131 66.3399 110.959 83.4195 110.959Z" fill="#9E616A"/>
<path d="M75.5076 109.445C75.3754 109.154 75.2437 108.862 75.1123 108.569C75.1629 108.57 75.2131 108.578 75.2637 108.579L75.5076 109.445Z" fill="#3D3D3D"/>
<path d="M51.6333 50.5144C53.1974 49.2667 55.0255 48.1186 57.0253 48.1832C59.025 48.2476 61.0529 50.0538 60.6386 52.0112C64.3118 45.5076 70.1584 40.5055 77.1521 37.883C84.1458 35.2606 91.8398 35.1853 98.8835 37.6704C103.854 39.4239 108.728 42.9321 109.87 48.0774C110.163 49.3982 110.226 50.8465 111.05 51.9191C112.09 53.2713 114.08 53.5772 115.718 53.1015C115.734 53.0968 115.75 53.092 115.767 53.0871C116.044 52.9926 116.342 52.9833 116.624 53.0604C116.906 53.1375 117.159 53.2975 117.349 53.5197C117.539 53.7418 117.658 54.0159 117.691 54.3065C117.724 54.5972 117.668 54.8909 117.532 55.1497L116.126 57.7725C117.899 58.1677 119.741 58.1285 121.495 57.6583C121.787 57.5819 122.095 57.5975 122.377 57.703C122.659 57.8085 122.902 57.9987 123.071 58.2476C123.241 58.4965 123.33 58.7918 123.325 59.093C123.321 59.3943 123.223 59.6867 123.045 59.9302C118.408 66.2968 110.661 70.408 102.755 70.3597C97.1363 70.3254 91.4594 68.3889 85.9909 69.681C83.8753 70.1809 81.8985 71.1481 80.2055 72.5116C78.5125 73.8751 77.1462 75.6004 76.2069 77.5608C75.2676 79.5212 74.7791 81.6671 74.7773 83.8409C74.7755 86.0147 75.2605 88.1613 76.1965 90.1233C74.5165 88.2858 71.269 88.7208 69.5505 90.5225C67.8321 92.3241 67.3872 95.0132 67.5604 97.4969C67.8251 101.296 69.3135 104.875 70.8826 108.359C57.7273 107.945 45.2846 98.7168 41.0963 86.2354C36.8905 73.7017 41.2984 58.7589 51.6333 50.5144Z" fill="#3D3D3D"/>
<path opacity="0.2" d="M30.918 172.904L39.5918 220.097L44.7963 220.55L30.918 172.904Z" fill="black"/>
<path opacity="0.2" d="M126.462 169.345L117.789 220.063L112.584 220.55L126.462 169.345Z" fill="black"/>
<path d="M59.0319 34.6318C57.3689 35.3263 55.6335 34.5652 54.9057 32.8223C54.1668 31.0528 54.8569 29.2564 56.5467 28.5508C58.2366 27.8452 59.941 28.6081 60.6918 30.4062C61.4314 32.1773 60.7488 33.9149 59.0319 34.6318ZM55.8462 25.0678L54.5238 25.6199C54.1935 25.7562 53.824 25.7636 53.4885 25.6405C53.153 25.5175 52.8759 25.273 52.712 24.9554L52.6466 24.8275C51.2238 22.2615 51.0609 19.1428 52.165 15.5631C53.1878 12.3519 53.6126 10.0934 52.7583 8.04742C51.7705 5.68184 49.6612 4.94082 46.9714 6.01427C45.9282 6.44989 45.5962 6.44294 44.7752 7.25736C44.5966 7.43667 44.3838 7.57819 44.1493 7.67346C43.9149 7.76873 43.6636 7.81581 43.4106 7.8119C43.166 7.80902 42.9244 7.75691 42.7004 7.65867C42.4763 7.56044 42.2744 7.41809 42.1065 7.24012C41.7832 6.89714 41.602 6.44423 41.5996 5.97286C41.5973 5.50149 41.7738 5.04678 42.0937 4.70056C43.4736 3.25604 45.138 2.11325 46.9818 1.34429C52.7611 -1.06893 55.6704 2.49384 57.0017 5.68218C58.3039 8.80075 57.5714 11.6942 56.3944 15.4416C55.4081 18.5555 55.4656 20.8628 56.5859 23.157C56.6668 23.3304 56.7118 23.5184 56.7183 23.7097C56.7247 23.9009 56.6924 24.0915 56.6233 24.27C56.5542 24.4485 56.4497 24.6111 56.3162 24.7482C56.1826 24.8853 56.0228 24.994 55.8462 25.0678Z" fill="black"/>
<path d="M202.593 48.9424H174.506C174.417 48.943 174.329 48.926 174.246 48.8922C174.163 48.8585 174.088 48.8088 174.025 48.7459C173.962 48.683 173.911 48.6082 173.877 48.5259C173.843 48.4435 173.825 48.3551 173.825 48.2659C173.825 48.1767 173.843 48.0883 173.877 48.0059C173.911 47.9235 173.962 47.8488 174.025 47.7859C174.088 47.723 174.163 47.6733 174.246 47.6395C174.329 47.6058 174.417 47.5888 174.506 47.5894H202.593C202.772 47.5906 202.943 47.6624 203.069 47.7891C203.195 47.9159 203.265 48.0873 203.265 48.2659C203.265 48.4445 203.195 48.6159 203.069 48.7426C202.943 48.8694 202.772 48.9412 202.593 48.9424Z" fill="black"/>
<path d="M238.224 49.1678H210.137C210.048 49.1684 209.959 49.1513 209.877 49.1176C209.794 49.0839 209.719 49.0341 209.656 48.9712C209.593 48.9084 209.542 48.8336 209.508 48.7512C209.474 48.6688 209.456 48.5805 209.456 48.4912C209.456 48.402 209.474 48.3137 209.508 48.2313C209.542 48.1489 209.593 48.0741 209.656 48.0112C209.719 47.9483 209.794 47.8986 209.877 47.8649C209.959 47.8312 210.048 47.8141 210.137 47.8147H238.224C238.313 47.8141 238.402 47.8312 238.485 47.8649C238.567 47.8986 238.642 47.9483 238.706 48.0112C238.769 48.0741 238.819 48.1489 238.853 48.2313C238.888 48.3137 238.905 48.402 238.905 48.4912C238.905 48.5805 238.888 48.6688 238.853 48.7512C238.819 48.8336 238.769 48.9084 238.706 48.9712C238.642 49.0341 238.567 49.0839 238.485 49.1176C238.402 49.1513 238.313 49.1684 238.224 49.1678Z" fill="black"/>
<path d="M273.854 49.3933H245.767C245.588 49.3921 245.417 49.3203 245.291 49.1936C245.165 49.0668 245.095 48.8954 245.095 48.7168C245.095 48.5382 245.165 48.3668 245.291 48.2401C245.417 48.1133 245.588 48.0415 245.767 48.0403H273.854C273.943 48.0397 274.031 48.0567 274.114 48.0905C274.197 48.1242 274.272 48.1739 274.335 48.2368C274.398 48.2997 274.449 48.3745 274.483 48.4569C274.517 48.5392 274.535 48.6276 274.535 48.7168C274.535 48.806 274.517 48.8944 274.483 48.9768C274.449 49.0592 274.398 49.1339 274.335 49.1968C274.272 49.2597 274.197 49.3094 274.114 49.3432C274.031 49.3769 273.943 49.3939 273.854 49.3933Z" fill="black"/>
<path d="M309.484 49.6189H281.397C281.218 49.6177 281.047 49.5459 280.921 49.4191C280.795 49.2924 280.725 49.121 280.725 48.9424C280.725 48.7638 280.795 48.5924 280.921 48.4656C281.047 48.3389 281.218 48.2671 281.397 48.2659H309.484C309.662 48.2671 309.833 48.3389 309.959 48.4656C310.085 48.5924 310.155 48.7638 310.155 48.9424C310.155 49.121 310.085 49.2924 309.959 49.4191C309.833 49.5459 309.662 49.6177 309.484 49.6189Z" fill="black"/>
<path d="M188.488 42.7162C191.371 42.7162 193.708 40.3791 193.708 37.4961C193.708 34.613 191.371 32.2759 188.488 32.2759C185.605 32.2759 183.268 34.613 183.268 37.4961C183.268 40.3791 185.605 42.7162 188.488 42.7162Z" fill="black"/>
<path d="M224.333 42.7162C227.216 42.7162 229.554 40.3791 229.554 37.4961C229.554 34.613 227.216 32.2759 224.333 32.2759C221.45 32.2759 219.113 34.613 219.113 37.4961C219.113 40.3791 221.45 42.7162 224.333 42.7162Z" fill="black"/>
<path d="M260.179 42.7162C263.062 42.7162 265.399 40.3791 265.399 37.4961C265.399 34.613 263.062 32.2759 260.179 32.2759C257.296 32.2759 254.959 34.613 254.959 37.4961C254.959 40.3791 257.296 42.7162 260.179 42.7162Z" fill="black"/>
<path d="M296.024 42.7162C298.907 42.7162 301.244 40.3791 301.244 37.4961C301.244 34.613 298.907 32.2759 296.024 32.2759C293.141 32.2759 290.804 34.613 290.804 37.4961C290.804 40.3791 293.141 42.7162 296.024 42.7162Z" fill="black"/>
</g>
<defs>
<clipPath id="clip0_265_1444">
<rect width="331.041" height="220" fill="white" transform="translate(0.479492 0.550293)"/>
</clipPath>
</defs>
</svg>
