<svg width="270" height="220" viewBox="0 0 270 220" fill="none" xmlns="http://www.w3.org/2000/svg">
<g clip-path="url(#clip0_164_802)">
<path d="M216.161 -0.0237579H60.9759C60.3848 -0.0230483 59.818 0.287276 59.4001 0.839095C58.9821 1.39091 58.7471 2.13913 58.7466 2.91951V141.753C58.7471 142.533 58.9821 143.281 59.4001 143.833C59.818 144.385 60.3848 144.695 60.9759 144.696H216.161C216.483 144.696 216.802 144.604 217.094 144.425C217.387 144.247 217.647 143.987 217.856 143.663C217.874 143.638 217.89 143.611 217.904 143.582C218.037 143.367 218.145 143.127 218.224 142.87C218.336 142.516 218.393 142.136 218.393 141.753V2.91952C218.392 2.13859 218.157 1.38994 217.738 0.838054C217.32 0.286169 216.752 -0.0238031 216.161 -0.0237579ZM217.756 141.753C217.756 142.163 217.665 142.565 217.493 142.907C217.34 143.208 217.132 143.454 216.889 143.623C216.664 143.776 216.414 143.856 216.161 143.856H60.9759C60.5536 143.855 60.1488 143.633 59.8502 143.239C59.5516 142.845 59.3836 142.31 59.3831 141.753V2.91952C59.3836 2.36203 59.5516 1.82756 59.8502 1.43335C60.1488 1.03915 60.5536 0.817381 60.9759 0.816704H216.161C216.583 0.816632 216.989 1.03805 217.288 1.43232C217.587 1.82659 217.755 2.36148 217.756 2.91952V141.753Z" fill="#F6F6F6"/>
<path d="M218.393 11.6576H59.3955V12.3066H218.393V11.6576Z" fill="#F6F6F6"/>
<path d="M66.5704 8.81685C67.9616 8.81685 69.0895 7.68901 69.0895 6.29775C69.0895 4.9065 67.9616 3.77866 66.5704 3.77866C65.1791 3.77866 64.0513 4.9065 64.0513 6.29775C64.0513 7.68901 65.1791 8.81685 66.5704 8.81685Z" fill="#B0B0B0"/>
<path d="M73.813 8.81685C75.2043 8.81685 76.3321 7.68901 76.3321 6.29775C76.3321 4.9065 75.2043 3.77866 73.813 3.77866C72.4218 3.77866 71.2939 4.9065 71.2939 6.29775C71.2939 7.68901 72.4218 8.81685 73.813 8.81685Z" fill="#B0B0B0"/>
<path d="M81.0552 8.81685C82.4465 8.81685 83.5743 7.68901 83.5743 6.29775C83.5743 4.9065 82.4465 3.77866 81.0552 3.77866C79.664 3.77866 78.5361 4.9065 78.5361 6.29775C78.5361 7.68901 79.664 8.81685 81.0552 8.81685Z" fill="#B0B0B0"/>
<path d="M175.736 26.1051H101.585C100.365 26.1068 99.1957 26.5921 98.3333 27.4545C97.4709 28.3169 96.9856 29.4861 96.9839 30.7057V124.342C96.9856 125.562 97.4709 126.731 98.3333 127.594C99.1957 128.456 100.365 128.941 101.585 128.943H175.736C176.956 128.941 178.125 128.456 178.987 127.594C179.85 126.731 180.335 125.562 180.337 124.342V30.7057C180.335 29.4861 179.85 28.3169 178.987 27.4545C178.125 26.592 176.956 26.1068 175.736 26.1051ZM179.796 124.342C179.794 125.419 179.366 126.45 178.605 127.211C177.844 127.972 176.812 128.4 175.736 128.402H101.585C100.508 128.4 99.4766 127.972 98.7156 127.211C97.9546 126.45 97.5264 125.419 97.5251 124.342V30.7057C97.5264 29.6295 97.9546 28.5977 98.7156 27.8367C99.4766 27.0757 100.508 26.6476 101.585 26.6463H175.736C176.812 26.6476 177.844 27.0757 178.605 27.8367C179.366 28.5977 179.794 29.6295 179.796 30.7057V124.342Z" fill="#B0B0B0"/>
<path d="M161.122 90.9201H116.198C111.609 90.8979 111.59 83.9077 116.199 83.8838H161.122C165.708 83.9052 165.733 90.896 161.122 90.9201Z" fill="#B0B0B0"/>
<path d="M161.122 103.91H116.198C111.609 103.888 111.59 96.8978 116.199 96.8738H161.122C165.708 96.8953 165.733 103.886 161.122 103.91Z" fill="#B0B0B0"/>
<path d="M161.122 116.9H116.198C111.609 116.878 111.59 109.888 116.199 109.864H161.122C165.708 109.885 165.733 116.876 161.122 116.9Z" fill="#B0B0B0"/>
<path d="M160.31 75.4402H117.01C115.826 75.4389 114.691 74.968 113.854 74.1309C113.017 73.2937 112.546 72.1587 112.545 70.9749V46.7269C112.546 45.543 113.017 44.408 113.854 43.5709C114.691 42.7337 115.826 42.2629 117.01 42.2615H160.31C161.494 42.2629 162.629 42.7337 163.466 43.5709C164.304 44.408 164.774 45.543 164.776 46.7269V70.9749C164.774 72.1587 164.304 73.2937 163.466 74.1309C162.629 74.968 161.494 75.4389 160.31 75.4402Z" fill="#B0B0B0"/>
<path d="M6.18018 185.965V186.639C6.18115 187.755 6.62507 188.826 7.4145 189.615C8.20393 190.405 9.27435 190.849 10.3908 190.85H40.7071C41.8236 190.849 42.8944 190.405 43.6839 189.616C44.4735 188.826 44.9172 187.756 44.9176 186.639V185.965C44.9197 184.98 44.5737 184.026 43.9407 183.27C43.73 183.02 43.4916 182.794 43.2299 182.597C43.2299 182.597 26.5627 182.219 26.5627 181.755H10.3908C9.27453 181.756 8.20444 182.2 7.41514 182.99C6.62583 183.779 6.18172 184.849 6.18018 185.965Z" fill="#E6E6E6"/>
<path d="M23.1928 218.977H27.5718L27.5718 190.682H23.1928L23.1928 218.977Z" fill="#E6E6E6"/>
<path d="M10.7295 218.824C10.7295 219.297 17.3652 219.007 25.5508 219.007C33.7364 219.007 40.3721 219.297 40.3721 218.824C40.3721 218.351 33.7364 214.598 25.5508 214.598C17.3652 214.598 10.7295 218.351 10.7295 218.824Z" fill="#E6E6E6"/>
<path d="M47.6462 215.359L51.7759 215.358L53.7404 199.43L47.6455 199.43L47.6462 215.359Z" fill="#A0616A"/>
<path d="M59.7402 219.193L46.7613 219.193L46.761 214.179L54.7254 214.178C55.3839 214.178 56.036 214.308 56.6444 214.56C57.2528 214.812 57.8057 215.181 58.2713 215.647C58.737 216.113 59.1064 216.665 59.3584 217.274C59.6105 217.882 59.7402 218.534 59.7402 219.193Z" fill="#121212"/>
<path d="M54.0927 213.054L58.0328 211.817L55.1386 196.031L49.3232 197.856L54.0927 213.054Z" fill="#A0616A"/>
<path d="M66.7803 213.091L54.3967 216.977L52.8953 212.193L60.4943 209.808C61.7632 209.41 63.1384 209.532 64.3172 210.148C65.4961 210.764 66.3821 211.822 66.7803 213.091Z" fill="#121212"/>
<path d="M57.2657 203.716C56.5011 200.277 53.8938 188.568 52.4656 182.289C52.1925 181.277 51.6051 180.378 50.7881 179.722C50.5122 179.48 50.222 179.255 49.919 179.049H27.5859C27.3626 179.048 27.1485 178.96 26.9906 178.802C26.8327 178.644 26.7439 178.43 26.7438 178.206C26.7438 178.169 26.7473 178.136 26.7506 178.099C26.7771 177.896 26.8764 177.709 27.0301 177.574C27.1838 177.439 27.3813 177.365 27.5859 177.364H31.7965V174.019C31.5676 173.992 31.3452 173.965 31.1228 173.942C29.3611 173.733 27.8453 173.598 26.7608 173.514C25.7974 173.44 25.1742 173.406 25.026 173.4L24.9384 173.393L22.9308 175.916L22.1594 176.886C21.9139 177.655 21.7424 178.446 21.6474 179.247C21.4082 181.363 21.8967 183.081 23.1059 184.367C27.8656 189.434 42.0806 186.291 43.7749 185.893L51.3304 205.723C51.4405 206.01 51.635 206.257 51.8882 206.431C52.1414 206.604 52.4414 206.697 52.7485 206.697C52.7957 206.697 52.8428 206.694 52.89 206.69C53.0224 206.678 53.1526 206.648 53.2773 206.603L56.3157 205.464C56.6568 205.334 56.9402 205.087 57.1145 204.766C57.2888 204.445 57.3424 204.073 57.2657 203.716Z" fill="#121212"/>
<path d="M52.8864 206.074C52.1217 202.635 49.5145 190.926 48.0863 184.647C47.6113 182.565 45.3476 180.959 42.3027 179.722C41.7198 179.483 41.1067 179.261 40.4701 179.049H27.5856C27.3623 179.048 27.1482 178.96 26.9903 178.802C26.8324 178.644 26.7436 178.43 26.7435 178.206C26.7435 178.169 26.747 178.136 26.7503 178.099C26.7768 177.896 26.8761 177.709 27.0298 177.574C27.1835 177.439 27.381 177.365 27.5856 177.364H31.7962V177.007C31.3281 176.926 30.8599 176.852 30.4018 176.782C30.1929 176.751 29.984 176.721 29.7751 176.691C29.4013 176.637 29.0341 176.586 28.6737 176.539C26.3999 176.233 24.3789 176.037 22.9305 175.916C21.6538 175.811 20.8217 175.768 20.6467 175.758L20.5591 175.751L17.7801 179.244C17.6824 179.557 17.5982 179.867 17.5241 180.167C16.8504 182.956 17.2546 185.156 18.7266 186.725C23.4862 191.792 37.7013 188.649 39.3955 188.251L46.9511 208.081C47.0951 208.454 47.38 208.756 47.7443 208.92C48.1086 209.085 48.523 209.099 48.898 208.961L51.9364 207.822C52.1787 207.73 52.3935 207.578 52.5603 207.38C52.7272 207.182 52.8406 206.945 52.8897 206.69C52.934 206.487 52.9328 206.277 52.8864 206.074Z" fill="#121212"/>
<path d="M48.6389 166.922C48.2495 166.922 47.8685 167.035 47.5416 167.246C47.2147 167.458 46.956 167.759 46.7964 168.114L49.8617 167.333C49.5109 167.064 49.0807 166.92 48.6389 166.922Z" fill="#A0616A"/>
<path d="M34.7369 156.453C34.738 155.35 34.5173 154.258 34.0879 153.242C33.6586 152.225 33.0293 151.306 32.2376 150.538C31.1884 149.519 29.8914 148.792 28.475 148.429C27.3759 148.14 26.2599 147.92 25.1335 147.769C23.8429 147.598 22.5303 147.735 21.3028 148.168C20.0752 148.602 18.9674 149.319 18.0697 150.262C18.0092 150.322 17.952 150.386 17.898 150.45C17.0438 151.385 16.4151 152.502 16.06 153.717C15.705 154.932 15.6331 156.213 15.85 157.46C16.0151 158.444 16.1835 159.484 16.3418 160.569C16.5069 161.704 16.6651 162.883 16.8066 164.086C17.0694 166.306 17.2715 168.603 17.3658 170.84C17.5136 173.505 17.4121 176.179 17.0627 178.826C17.0246 179.07 17.0468 179.32 17.1272 179.554C17.2076 179.787 17.3439 179.998 17.5242 180.167C17.5724 180.211 17.623 180.253 17.6757 180.292C17.8989 180.457 18.1645 180.556 18.4418 180.577C18.719 180.598 18.9964 180.54 19.242 180.409C19.9224 180.062 20.7343 179.665 21.6471 179.247C23.0248 178.617 24.6315 177.937 26.363 177.31C26.9592 177.095 27.5722 176.886 28.1921 176.691C28.3503 176.64 28.512 176.59 28.6737 176.539C29.4788 176.293 30.2974 176.064 31.1226 175.869C31.3482 175.815 31.5706 175.764 31.7963 175.717V160.69C31.797 160.274 31.938 159.869 32.1964 159.542C32.4549 159.216 32.8158 158.985 33.2211 158.888C33.3612 158.854 33.5048 158.837 33.6489 158.838H34.7337C34.7269 158.612 34.7236 158.386 34.7236 158.164C34.7167 157.659 34.7202 157.16 34.7337 156.672C34.7369 156.598 34.7369 156.524 34.7369 156.453Z" fill="#6D6D6D"/>
<path d="M39.1464 158.164L36.7985 152.741C36.4284 151.888 35.7644 151.196 34.9273 150.792C34.0901 150.388 33.1356 150.298 32.2376 150.538C32.056 150.587 31.8782 150.649 31.7053 150.723C30.7629 151.133 30.0213 151.899 29.6431 152.854C29.2649 153.81 29.2809 154.876 29.6877 155.82L31.3483 159.653L31.7963 160.69C31.7971 160.274 31.938 159.869 32.1965 159.542C32.4549 159.216 32.8158 158.985 33.2212 158.888C33.3612 158.854 33.5048 158.837 33.649 158.838H39.436L39.1464 158.164Z" fill="#6D6D6D"/>
<path d="M24.5194 145.141C29.0886 145.141 32.7927 141.437 32.7927 136.868C32.7927 132.299 29.0886 128.595 24.5194 128.595C19.9502 128.595 16.2461 132.299 16.2461 136.868C16.2461 141.437 19.9502 145.141 24.5194 145.141Z" fill="#A0616A"/>
<path d="M19.5197 144.218C19.4025 144.354 19.2594 144.464 19.0987 144.543C18.9381 144.622 18.7633 144.668 18.5846 144.678C18.4059 144.688 18.227 144.663 18.0584 144.603C17.8897 144.543 17.7349 144.449 17.603 144.328C15.7582 142.835 14.295 140.924 13.3344 138.754C12.2588 136.19 12.1012 133.062 13.3253 130.658C14.3601 128.627 16.2177 127.334 18.0721 126.277C18.783 125.829 19.5621 125.5 20.3788 125.302C20.7913 125.208 21.2188 125.202 21.6339 125.284C22.0489 125.366 22.4422 125.533 22.7886 125.776C23.1561 126.055 23.4405 126.43 23.6113 126.859C23.7821 127.288 23.8328 127.755 23.758 128.21C24.6063 127.093 25.7499 126.235 27.0598 125.732C27.8636 125.386 28.7616 125.326 29.6043 125.562C30.7952 125.96 31.6768 127.162 32.1673 128.454C32.564 129.443 32.7093 130.516 32.5902 131.575C32.5383 132.08 32.384 132.57 32.1368 133.014C31.8896 133.459 31.5546 133.848 31.1522 134.159C30.1808 134.829 28.9292 134.761 27.7995 134.464C26.6698 134.168 25.5733 133.665 24.4239 133.524C23.2744 133.384 22.0005 133.688 21.3157 134.713C20.8334 135.435 20.7197 136.387 20.6213 137.293L20.1094 142.009C20.0732 142.683 19.9279 143.347 19.679 143.976C19.6369 144.063 19.5833 144.145 19.5197 144.218Z" fill="#121212"/>
<path d="M31.1229 169.108L21.4857 164.783L21.4083 164.015L21.0647 160.697L16.3421 160.569L14.5669 160.522L14.5871 163.409L14.6106 167.326C14.6181 168.115 14.8798 168.879 15.3569 169.507C15.834 170.134 16.5009 170.591 17.2584 170.809L17.3661 170.84L26.7608 173.514L31.1229 174.757L31.7966 174.949V169.411L31.1229 169.108Z" fill="#A0616A"/>
<path d="M18.9122 150.379C18.4045 150.348 17.8956 150.417 17.4146 150.582C16.9336 150.747 16.4898 151.006 16.1088 151.343C15.7277 151.68 15.4169 152.089 15.1939 152.546C14.971 153.003 14.8404 153.5 14.8095 154.007L14.2908 162.412C14.2696 162.768 14.3745 163.121 14.5871 163.409C14.612 163.444 14.639 163.478 14.6681 163.51C14.795 163.653 14.9482 163.771 15.1194 163.857C15.3035 163.951 15.5054 164.007 15.7122 164.018L16.8069 164.086L20.418 164.308C20.8193 164.332 21.2137 164.195 21.5148 163.929C21.8159 163.663 21.9993 163.288 22.0248 162.887L22.5401 154.482C22.6022 153.457 22.2551 152.45 21.5749 151.68C20.8947 150.911 19.937 150.443 18.9122 150.379Z" fill="#6D6D6D"/>
<path d="M31.1225 176.647V176.691H30.688C30.5938 176.721 30.4961 176.751 30.4018 176.782C29.8191 176.967 29.2464 177.161 28.6839 177.364H31.7962V176.741C31.5706 176.707 31.3449 176.677 31.1225 176.647ZM31.1225 176.647V176.691H30.688C30.5938 176.721 30.4961 176.751 30.4018 176.782C29.8191 176.967 29.2464 177.161 28.6839 177.364H31.7962V176.741C31.5706 176.707 31.3449 176.677 31.1225 176.647ZM31.1225 176.647V176.691H30.688C30.5938 176.721 30.4961 176.751 30.4018 176.782C30.8599 176.852 31.3281 176.926 31.7962 177.007V176.741C31.5706 176.707 31.3449 176.677 31.1225 176.647ZM31.1225 175.869V176.691H30.688C30.5938 176.721 30.4961 176.751 30.4018 176.782C29.8191 176.967 29.2464 177.161 28.6839 177.364H31.7962V175.717C31.5706 175.764 31.3482 175.815 31.1225 175.869ZM31.1225 175.869V176.691H30.688C30.5938 176.721 30.4961 176.751 30.4018 176.782C29.8191 176.967 29.2464 177.161 28.6839 177.364H31.7962V175.717C31.5706 175.764 31.3482 175.815 31.1225 175.869ZM31.1225 175.869V176.691H30.688C30.5938 176.721 30.4961 176.751 30.4018 176.782C29.8191 176.967 29.2464 177.161 28.6839 177.364H31.7962V175.717C31.5706 175.764 31.3482 175.815 31.1225 175.869ZM63.6283 158.164H33.6489C33.4128 158.163 33.1778 158.197 32.9517 158.265C32.6003 158.367 32.2751 158.544 31.9983 158.784C31.7216 159.023 31.4998 159.32 31.3482 159.653C31.1991 159.978 31.1222 160.332 31.1225 160.69V176.691H27.5856C27.3866 176.691 27.1895 176.73 27.0055 176.806C26.8216 176.882 26.6545 176.994 26.5137 177.135C26.373 177.275 26.2613 177.442 26.1852 177.626C26.109 177.81 26.0698 178.007 26.0698 178.206C26.0698 178.262 26.0732 178.317 26.08 178.371C26.121 178.742 26.2972 179.085 26.575 179.334C26.8527 179.583 27.2125 179.722 27.5856 179.722H63.6283C64.2983 179.722 64.9407 179.456 65.4145 178.982C65.8882 178.508 66.1544 177.866 66.1547 177.196V160.69C66.1539 160.021 65.8874 159.378 65.4138 158.905C64.9402 158.431 64.2981 158.165 63.6283 158.164ZM65.481 177.196C65.4807 177.687 65.2854 178.158 64.938 178.506C64.5907 178.853 64.1196 179.048 63.6283 179.049H27.5856C27.3623 179.048 27.1482 178.96 26.9903 178.802C26.8324 178.644 26.7436 178.43 26.7435 178.206C26.7435 178.169 26.747 178.136 26.7503 178.099C26.7768 177.896 26.8761 177.709 27.0298 177.574C27.1835 177.439 27.381 177.365 27.5856 177.364H31.7962L31.7962 160.69C31.797 160.274 31.9379 159.869 32.1964 159.542C32.4549 159.216 32.8158 158.985 33.2211 158.888C33.3611 158.854 33.5048 158.837 33.6489 158.838H63.6283C64.1196 158.838 64.5907 159.033 64.938 159.381C65.2854 159.728 65.4807 160.199 65.481 160.69V177.196ZM31.1225 175.869V176.691H30.688C30.5938 176.721 30.4961 176.751 30.4018 176.782C29.8191 176.967 29.2464 177.161 28.6839 177.364H31.7962V175.717C31.5706 175.764 31.3482 175.815 31.1225 175.869ZM31.1225 175.869V176.691H30.688C30.5938 176.721 30.4961 176.751 30.4018 176.782C29.8191 176.967 29.2464 177.161 28.6839 177.364H31.7962V175.717C31.5706 175.764 31.3482 175.815 31.1225 175.869ZM31.1225 175.869V176.691H30.688C30.5938 176.721 30.4961 176.751 30.4018 176.782C29.8191 176.967 29.2464 177.161 28.6839 177.364H31.7962V175.717C31.5706 175.764 31.3482 175.815 31.1225 175.869ZM31.1225 176.647V176.691H30.688C30.5938 176.721 30.4961 176.751 30.4018 176.782C29.8191 176.967 29.2464 177.161 28.6839 177.364H31.7962V176.741C31.5706 176.707 31.3449 176.677 31.1225 176.647Z" fill="#121212"/>
<path d="M50.6598 168.943C50.6598 169.479 50.4469 169.993 50.0679 170.372C49.6889 170.751 49.1748 170.964 48.6388 170.964C48.1027 170.964 47.5887 170.751 47.2096 170.372C46.8306 169.993 46.6177 169.479 46.6177 168.943C46.6173 168.657 46.6782 168.375 46.7963 168.114C46.9559 167.759 47.2147 167.458 47.5415 167.246C47.8684 167.035 48.2494 166.922 48.6388 166.922C49.0806 166.92 49.5108 167.064 49.8616 167.333C50.1099 167.522 50.3111 167.765 50.4495 168.044C50.588 168.324 50.66 168.631 50.6598 168.943Z" fill="#454545"/>
<path d="M249.333 144.865C255.1 144.865 259.775 140.19 259.775 134.423C259.775 128.656 255.1 123.98 249.333 123.98C243.566 123.98 238.891 128.656 238.891 134.423C238.891 140.19 243.566 144.865 249.333 144.865Z" fill="#121212"/>
<path d="M259.658 183.069H243.486C243.486 183.534 226.819 183.911 226.819 183.911C226.557 184.108 226.319 184.334 226.108 184.585C225.475 185.34 225.129 186.294 225.131 187.28V187.953C225.132 189.07 225.576 190.141 226.365 190.93C227.155 191.72 228.225 192.164 229.342 192.164H259.658C260.775 192.163 261.845 191.719 262.635 190.93C263.424 190.14 263.868 189.07 263.869 187.953V187.28C263.867 186.163 263.423 185.093 262.634 184.304C261.845 183.515 260.774 183.071 259.658 183.069Z" fill="#E6E6E6"/>
<path d="M246.857 191.997H242.478V220.292H246.857V191.997Z" fill="#E6E6E6"/>
<path d="M259.32 220.138C259.32 220.611 252.684 220.321 244.499 220.321C236.313 220.321 229.677 220.611 229.677 220.138C229.677 219.665 236.313 215.913 244.499 215.913C252.684 215.913 259.32 219.665 259.32 220.138Z" fill="#E6E6E6"/>
<path d="M222.6 216.416H218.471L216.506 200.488H222.601L222.6 216.416Z" fill="#FFB8B8"/>
<path d="M215.52 215.236H223.485V220.251H210.506C210.506 218.921 211.034 217.645 211.975 216.705C212.915 215.765 214.191 215.236 215.52 215.236Z" fill="#121212"/>
<path d="M216.154 214.112L212.214 212.875L215.108 197.089L220.923 198.913L216.154 214.112Z" fill="#FFB8B8"/>
<path d="M209.752 210.866L217.351 213.251L215.85 218.035L203.466 214.149C203.663 213.521 203.982 212.937 204.405 212.432C204.828 211.927 205.346 211.511 205.929 211.206C206.513 210.901 207.151 210.714 207.807 210.656C208.463 210.597 209.124 210.669 209.752 210.866Z" fill="#121212"/>
<path d="M248.598 180.308C248.503 179.505 248.331 178.713 248.086 177.943L247.315 176.973L245.307 174.453L245.22 174.457C245.071 174.464 244.455 174.497 243.502 174.571H243.492C242.902 174.619 242.181 174.679 241.363 174.757C241.147 174.78 240.921 174.8 240.689 174.824V178.341H244.9C245.104 178.341 245.302 178.416 245.456 178.551C245.609 178.686 245.709 178.872 245.735 179.075C245.738 179.112 245.742 179.146 245.742 179.183C245.742 179.406 245.653 179.62 245.495 179.778C245.337 179.936 245.123 180.025 244.9 180.025H220.445C220.133 180.232 219.834 180.457 219.548 180.699C218.687 181.366 218.066 182.295 217.78 183.346C216.352 189.625 213.748 201.334 212.98 204.773C212.924 205.032 212.937 205.301 213.017 205.554C213.096 205.807 213.24 206.035 213.435 206.215C213.578 206.349 213.746 206.453 213.93 206.521L216.968 207.66C217.093 207.706 217.223 207.737 217.356 207.751C217.372 207.751 217.386 207.754 217.403 207.754C217.434 207.757 217.466 207.758 217.497 207.758C217.804 207.756 218.104 207.662 218.357 207.488C218.61 207.314 218.805 207.067 218.915 206.781L221.314 200.488L225.009 190.787L226.471 186.951C228.165 187.348 242.38 190.494 247.14 185.425C247.609 184.925 247.98 184.341 248.231 183.703C248.632 182.619 248.758 181.453 248.598 180.308Z" fill="#121212"/>
<path d="M252.722 181.224C252.647 180.924 252.563 180.614 252.466 180.301L249.687 176.811L249.599 176.815C249.424 176.825 248.592 176.869 247.315 176.973C245.867 177.094 243.842 177.29 241.569 177.596C241.501 177.603 241.431 177.613 241.363 177.623C241.141 177.654 240.915 177.684 240.689 177.717V178.341H244.9C245.105 178.341 245.302 178.416 245.456 178.551C245.61 178.686 245.709 178.872 245.735 179.075C245.739 179.112 245.742 179.146 245.742 179.183C245.742 179.406 245.653 179.62 245.495 179.778C245.337 179.936 245.123 180.025 244.9 180.025H230.018C229.368 180.237 228.741 180.459 228.142 180.699C224.996 181.945 222.641 183.579 222.159 185.704C221.998 186.418 221.819 187.203 221.631 188.039C220.93 191.144 220.078 194.947 219.306 198.403V198.407C219.148 199.121 218.99 199.815 218.838 200.488C218.195 203.385 217.649 205.841 217.359 207.131C217.353 207.168 217.346 207.202 217.339 207.239V207.246C217.305 207.507 217.338 207.772 217.433 208.017L217.437 208.02V208.024C217.529 208.258 217.68 208.466 217.875 208.627C218.005 208.734 218.152 208.819 218.309 208.879L221.348 210.018C221.517 210.081 221.696 210.114 221.876 210.115C222.13 210.116 222.379 210.052 222.601 209.93C222.919 209.758 223.165 209.477 223.295 209.139L229.836 191.973L230.85 189.308C232.544 189.706 246.759 192.849 251.519 187.782C252.459 186.765 252.996 185.439 253.028 184.054C253.061 183.101 252.958 182.148 252.722 181.224Z" fill="#121212"/>
<path d="M252.348 151.507C252.294 151.443 252.236 151.379 252.176 151.319C251.279 150.376 250.171 149.658 248.943 149.226C247.715 148.793 246.402 148.657 245.112 148.829C243.987 148.977 242.872 149.197 241.774 149.486C240.356 149.851 239.058 150.579 238.008 151.598C237.19 152.392 236.546 153.346 236.116 154.401C235.686 155.457 235.481 156.59 235.512 157.729C235.525 158.19 235.529 158.662 235.522 159.14C235.522 159.363 235.519 159.588 235.515 159.814H238.837C238.981 159.814 239.124 159.831 239.264 159.865C239.67 159.961 240.031 160.192 240.289 160.519C240.548 160.846 240.689 161.25 240.689 161.667V177.337C240.915 177.401 241.141 177.465 241.363 177.532C241.434 177.556 241.501 177.576 241.568 177.596C241.646 177.62 241.723 177.643 241.798 177.667C242.481 177.879 243.149 178.104 243.802 178.341H244.9C245.105 178.341 245.302 178.416 245.456 178.551C245.609 178.686 245.709 178.872 245.735 179.075C245.964 179.166 246.187 179.257 246.406 179.348C247.184 179.671 247.921 179.995 248.598 180.308C249.511 180.726 250.323 181.123 251.004 181.47C251.218 181.579 251.454 181.637 251.694 181.638C252.009 181.637 252.316 181.536 252.57 181.349C252.623 181.31 252.673 181.268 252.721 181.224C252.902 181.055 253.038 180.845 253.118 180.611C253.199 180.377 253.221 180.128 253.183 179.883C252.835 177.237 252.734 174.565 252.88 171.9C252.974 169.66 253.176 167.363 253.439 165.143C253.58 163.94 253.739 162.761 253.904 161.626C254.062 160.542 254.231 159.501 254.396 158.517C254.612 157.27 254.54 155.99 254.185 154.775C253.83 153.559 253.202 152.442 252.348 151.507Z" fill="#454545"/>
<path d="M238.54 151.784C238.367 151.709 238.19 151.648 238.008 151.598C237.11 151.357 236.156 151.446 235.318 151.85C234.481 152.254 233.817 152.945 233.447 153.798L231.133 159.14L230.843 159.814H238.837C238.981 159.814 239.124 159.831 239.264 159.865L239.534 159.242L240.558 156.877C240.965 155.934 240.981 154.868 240.602 153.913C240.224 152.958 239.483 152.192 238.54 151.784Z" fill="#454545"/>
<path d="M245.727 146.199C250.297 146.199 254.001 142.495 254.001 137.926C254.001 133.357 250.297 129.653 245.727 129.653C241.158 129.653 237.454 133.357 237.454 137.926C237.454 142.495 241.158 146.199 245.727 146.199Z" fill="#FFB8B8"/>
<path d="M253.904 161.626L249.181 161.754L248.838 165.072L248.76 165.84L241.363 169.162L240.689 169.465V175.37L241.363 175.178L243.492 174.571H243.502L252.88 171.9L252.988 171.87C253.745 171.651 254.412 171.194 254.889 170.565C255.366 169.937 255.628 169.172 255.635 168.383L255.659 164.466L255.679 161.579L253.904 161.626Z" fill="#FFB8B8"/>
<path d="M255.44 155.065C255.377 154.039 254.909 153.08 254.139 152.4C253.37 151.719 252.361 151.372 251.336 151.435C250.31 151.498 249.351 151.966 248.671 152.736C247.99 153.505 247.643 154.514 247.706 155.54L248.221 163.947C248.235 164.168 248.298 164.384 248.404 164.578C248.511 164.773 248.659 164.941 248.838 165.072C249.123 165.285 249.474 165.388 249.828 165.365L253.439 165.143L254.534 165.076C254.733 165.066 254.929 165.016 255.108 164.928C255.288 164.841 255.448 164.718 255.578 164.567C255.607 164.535 255.634 164.501 255.659 164.466C255.873 164.179 255.978 163.826 255.955 163.469L255.44 155.065Z" fill="#454545"/>
<path d="M241.798 177.667H241.363V177.623C241.141 177.654 240.915 177.684 240.69 177.718V178.341H243.802C243.148 178.105 242.48 177.88 241.798 177.667ZM241.798 177.667H241.363V177.623C241.141 177.654 240.915 177.684 240.69 177.718V178.341H243.802C243.148 178.105 242.48 177.88 241.798 177.667ZM244.9 177.667H241.363V161.667C241.362 161.119 241.183 160.586 240.853 160.149C240.523 159.712 240.06 159.393 239.534 159.241C239.308 159.173 239.073 159.139 238.837 159.14H208.857C208.188 159.141 207.546 159.408 207.072 159.881C206.598 160.355 206.332 160.997 206.331 161.667V178.172C206.331 178.842 206.598 179.485 207.071 179.958C207.545 180.432 208.187 180.698 208.857 180.699H244.9C245.273 180.698 245.633 180.56 245.911 180.311C246.189 180.062 246.365 179.719 246.406 179.348C246.413 179.293 246.416 179.238 246.416 179.183C246.415 178.781 246.255 178.396 245.971 178.112C245.687 177.828 245.302 177.668 244.9 177.667ZM245.742 179.183C245.742 179.406 245.653 179.62 245.495 179.778C245.338 179.936 245.123 180.025 244.9 180.025H208.857C208.366 180.025 207.895 179.829 207.548 179.482C207.2 179.135 207.005 178.664 207.005 178.172V161.667C207.005 161.176 207.2 160.704 207.548 160.357C207.895 160.01 208.366 159.814 208.857 159.814H238.837C238.981 159.814 239.125 159.831 239.265 159.865C239.67 159.961 240.031 160.192 240.289 160.519C240.548 160.846 240.689 161.25 240.69 161.667V178.341H244.9C245.105 178.341 245.302 178.416 245.456 178.551C245.61 178.686 245.709 178.872 245.735 179.075C245.739 179.112 245.742 179.146 245.742 179.183ZM241.798 177.667H241.363V177.623C241.141 177.654 240.915 177.684 240.69 177.718V178.341H243.802C243.148 178.105 242.48 177.88 241.798 177.667Z" fill="#121212"/>
<path d="M223.846 171.941C224.962 171.941 225.867 171.036 225.867 169.92C225.867 168.804 224.962 167.899 223.846 167.899C222.73 167.899 221.825 168.804 221.825 169.92C221.825 171.036 222.73 171.941 223.846 171.941Z" fill="#454545"/>
<path d="M252.043 144.28C251.337 144.66 250.459 145.034 249.787 144.576C249.131 144.129 249.085 143.133 249.311 142.36C249.537 141.586 249.962 140.863 250.001 140.053C250.058 138.892 249.282 137.814 248.32 137.211C247.358 136.609 246.229 136.388 245.129 136.178L239.091 135.026C237.596 134.741 235.978 134.385 234.981 133.182C233.538 131.441 234.164 128.538 235.873 127.129C237.582 125.719 239.991 125.561 242.143 126.035C243.333 126.297 244.494 126.732 245.702 126.859C248.087 127.11 250.61 126.166 252.823 127.147C254.75 128.002 255.917 130.172 256.189 132.328C256.461 134.485 255.986 136.652 255.455 138.745C255.139 139.99 254.791 141.254 254.094 142.313C253.397 143.372 252.283 144.209 251.043 144.225L252.043 144.28Z" fill="#121212"/>
<path d="M257.218 134.831C260.939 134.831 263.955 131.815 263.955 128.094C263.955 124.373 260.939 121.357 257.218 121.357C253.497 121.357 250.481 124.373 250.481 128.094C250.481 131.815 253.497 134.831 257.218 134.831Z" fill="#121212"/>
</g>
<defs>
<clipPath id="clip0_164_802">
<rect width="268.024" height="220" fill="white" transform="translate(0.988281 1.52588e-05)"/>
</clipPath>
</defs>
</svg>
