<svg width="150" height="150" viewBox="0 0 150 150" fill="none" xmlns="http://www.w3.org/2000/svg">
<path d="M101.739 42.7967C101.341 40.2102 99.1522 37.5387 97.106 36.2454C96.8925 36.1036 96.6799 35.9753 96.4664 35.8477C91.8337 39.0565 83.363 44.2467 73.4148 45.8243C72.6476 45.9519 71.7096 45.7668 71.1268 46.2929C69.294 47.9272 68.9246 53.6405 64.3911 53.7681C63.765 55.3606 63.1971 56.8949 62.5859 58.2023C63.327 57.1643 68.7425 58.1486 70.1178 58.4583C71.4671 58.7568 77.2871 60.3426 77.0393 61.5851C78.0624 59.3814 77.6647 57.1509 76.9968 54.8196C85.1115 53.2569 96.353 47.5153 101.739 42.7967Z" fill="#5EBAB0"/>
<path d="M30.7655 66.7728C29.3222 68.1601 27.4998 69.0883 25.529 69.4399C23.5581 69.7916 21.5272 69.5509 19.6931 68.7483C17.859 67.9457 16.3042 66.6173 15.2251 64.931C14.146 63.2447 13.5912 61.2762 13.6309 59.2746C13.6706 57.273 14.3029 55.3281 15.4479 53.6859C16.5929 52.0437 18.1992 50.7779 20.0636 50.0486C21.9281 49.3193 23.9669 49.1592 25.9223 49.5886C27.8777 50.0181 29.6618 51.0177 31.0491 52.4612C31.971 53.419 32.6951 54.5493 33.1799 55.7872C33.6647 57.0252 33.9006 58.3465 33.8743 59.6757C33.8479 61.005 33.5598 62.316 33.0264 63.5337C32.493 64.7515 31.7247 65.8522 30.7655 66.7728Z" fill="#5EBAB0"/>
<path d="M139.539 106.55C140.562 103.012 143.973 104.092 145.849 101.959C146.19 105.215 144.399 108.483 141.159 108.639L139.539 106.55Z" fill="#5EBAB0"/>
<path d="M62.4146 113.556C61.1213 114.31 58.7057 112.746 56.0625 109.761C56.1087 110.791 56.4009 111.795 56.9147 112.69C58.7057 116.043 58.6206 124.315 60.6101 123.734C61.1646 123.563 61.8183 120.749 62.4011 117.524C62.7029 115.965 63.1016 114.427 63.5951 112.919C63.3481 113.045 62.6623 113.391 62.4146 113.556Z" fill="#AD44D9"/>
<path d="M70.6836 42.2861C70.9446 43.0448 71.3288 43.7553 71.8209 44.3891C73.0708 44.2047 74.4604 43.8256 74.7193 43.2525C74.7641 43.1555 74.8029 43.0563 74.8335 42.954C74.5066 43.9913 72.6164 43.2951 70.6836 42.2861Z" fill="#AD44D9"/>
<path d="M72.3631 34.6538C69.8475 32.0106 61.6477 34.0851 56.0911 38.1074C50.5062 42.1431 52.1121 45.9236 59.3455 44.1901C58.9194 44.3177 54.2859 45.7102 51.2591 49.19C46.8107 54.3063 50.6763 56.2674 55.662 55.2443C61.6163 54.0219 66.7326 49.1333 68.4662 45.7505C69.2624 43.7575 69.8025 41.6715 70.0736 39.5425C67.999 37.8515 69.2639 36.3164 70.4004 37.4821C71.0116 38.1074 71.6937 37.8089 70.9407 35.7657C71.6997 35.2948 72.6108 35.1441 72.3631 34.6538Z" fill="#AD44D9"/>
<path d="M91.3354 117.28C91.0728 113.906 91.1107 110.514 91.4488 107.147C88.7524 107.908 85.8922 107.864 83.2207 107.019C83.2774 109.379 82.5386 110.572 83.1498 112.036C83.5168 112.857 84.0377 113.599 84.6841 114.224C87.3564 116.925 89.6444 124.883 91.3921 123.746C91.8757 123.432 91.6906 120.549 91.3354 117.28Z" fill="#AD44D9"/>
<path d="M64.6022 57.748C64.4746 58.4077 64.2739 59.051 64.0052 59.6667C61.6888 58.5152 62.2291 57.7622 64.6022 57.748Z" fill="#AD44D9"/>
<path d="M77.0493 61.5677C76.9919 61.8378 76.6083 62.0087 75.9688 62.09C76.2105 61.6498 76.424 61.2513 76.6083 60.8535C76.9351 61.1296 77.0911 61.3714 77.0493 61.5677Z" fill="#AD44D9"/>
<path d="M83.4163 83.3715L81.9238 87.649C81.8671 85.9863 81.8104 84.352 81.7812 82.7461L83.4163 83.3715Z" fill="#AD44D9"/>
<path d="M32.38 113.57C28.5637 107.038 23.4996 101.474 21.1071 102.395C17.8692 103.643 22.2623 113.649 24.7817 118.019C29.0166 125.352 34.1329 130.326 36.2672 129.178C39.3694 127.45 34.3016 116.859 32.38 113.57Z" fill="#AD44D9"/>
<path d="M58.6194 98.1802C54.4128 90.9035 49.3107 85.9864 47.207 87.2103C45.0899 88.4319 46.7951 95.3108 50.9875 102.587C55.1799 109.863 60.2962 114.766 62.3991 113.557C64.517 112.335 62.8118 105.456 58.6194 98.1802Z" fill="#AD44D9"/>
<path d="M63.5952 112.918C63.103 114.427 62.7042 115.965 62.4011 117.523C61.825 120.75 61.1661 123.567 60.6101 123.733C58.6244 124.33 58.699 116.047 56.9147 112.689C56.3998 111.795 56.1074 110.791 56.0625 109.76" stroke="#FFE8FF" stroke-width="0.75" stroke-linecap="round" stroke-linejoin="round"/>
<path d="M112.78 59.439C112.497 58.9801 112.116 58.5891 111.664 58.2937C111.213 57.9984 110.702 57.8059 110.168 57.7299C109.634 57.654 109.09 57.6963 108.574 57.8541C108.058 58.0118 107.583 58.2811 107.183 58.6428C107.024 58.1031 106.743 57.6071 106.362 57.1934C105.981 56.7797 105.51 56.4593 104.985 56.257C104.229 55.9653 103.397 55.9328 102.62 56.1647C101.844 56.3966 101.166 56.8797 100.694 57.5383C100.408 57.9333 100.203 58.381 100.091 58.8554C99.6504 58.5231 99.1399 58.2947 98.5982 58.1872C98.0565 58.0797 97.4975 58.096 96.9629 58.2347C96.4283 58.3735 95.932 58.6312 95.5109 58.9885C95.0899 59.3459 94.755 59.7938 94.5312 60.2987C94.2323 60.9743 94.1444 61.7244 94.2789 62.4509C93.7994 62.3253 93.2995 62.2971 92.8088 62.368C92.3182 62.4389 91.8467 62.6074 91.4223 62.8636C90.9433 63.1576 90.5383 63.5577 90.2384 64.033C89.9385 64.5084 89.7519 65.0463 89.6928 65.6052C89.6337 66.1641 89.7039 66.7291 89.8978 67.2566C90.0917 67.7842 90.4042 68.2601 90.8111 68.6477C90.0597 68.9434 89.4267 69.4786 89.0103 70.1704C88.5938 70.8622 88.4171 71.6721 88.5074 72.4745C88.5664 73.0066 88.7418 73.5193 89.0201 73.9767C89.4092 74.6196 89.9899 75.1245 90.6808 75.4201C91.3716 75.7158 92.1378 75.7875 92.8715 75.6252L112.711 63.4613C113.21 63.1606 113.817 61.1128 112.78 59.439Z" stroke="#FFE8FF" stroke-width="0.75" stroke-linecap="round" stroke-linejoin="round"/>
<path d="M97.7302 65.0806C98.0798 65.4106 98.3387 65.825 98.482 66.284C98.6252 66.743 98.648 67.2311 98.5482 67.7014C98.4484 68.1717 98.2293 68.6085 97.9119 68.9697C97.5946 69.3309 97.1897 69.6044 96.7362 69.764C96.1283 69.9773 95.4655 69.9747 94.8594 69.7566" stroke="#FFE8FF" stroke-width="0.75" stroke-linecap="round" stroke-linejoin="round"/>
<path d="M106.568 62.5801C106.489 63.1547 106.234 63.6909 105.839 64.1153C105.443 64.5398 104.926 64.8318 104.359 64.9515C103.791 65.0712 103.201 65.0128 102.668 64.7841C102.134 64.5555 101.685 64.1678 101.381 63.6741C101.252 63.4608 101.151 63.2314 101.082 62.992" stroke="#FFE8FF" stroke-width="0.75" stroke-linecap="round" stroke-linejoin="round"/>
<path d="M107.184 58.6426C106.802 59.003 106.485 59.4263 106.246 59.894" stroke="#FFE8FF" stroke-width="0.75" stroke-linecap="round" stroke-linejoin="round"/>
<path d="M92.1087 68.4087C91.6679 68.4308 91.232 68.5116 90.8125 68.649" stroke="#FFE8FF" stroke-width="0.75" stroke-linecap="round" stroke-linejoin="round"/>
<path d="M100.087 58.8569C99.9943 59.3201 99.979 59.7954 100.042 60.2636" stroke="#FFE8FF" stroke-width="0.75" stroke-linecap="round" stroke-linejoin="round"/>
<path d="M95.6855 63.1106C95.2592 62.8088 94.7823 62.5856 94.2773 62.4517" stroke="#FFE8FF" stroke-width="0.75" stroke-linecap="round" stroke-linejoin="round"/>
<path d="M117.842 67.6536C116.788 65.917 114.612 65.6073 114.232 65.8917L94.3785 78.0712C93.8106 78.4122 93.0308 80.4756 94.1091 82.2204C94.3899 82.6761 94.7668 83.0651 95.2136 83.36C95.6603 83.655 96.1661 83.8487 96.6956 83.9278C97.2254 84.0063 97.7659 83.9676 98.2791 83.8144C98.7923 83.6612 99.2656 83.3973 99.6657 83.0412C99.8936 83.8241 100.377 84.5083 101.038 84.9852C101.699 85.4621 102.501 85.7042 103.316 85.6732C104.131 85.6421 104.912 85.3396 105.535 84.8138C106.158 84.288 106.587 83.569 106.755 82.7711C107.342 83.2203 108.051 83.4817 108.789 83.5212C109.527 83.5606 110.259 83.3763 110.891 82.9922C111.522 82.6082 112.023 82.0424 112.327 81.3689C112.631 80.6955 112.725 79.9458 112.596 79.2182C113.383 79.417 114.215 79.349 114.959 79.0248C115.704 78.7005 116.32 78.1384 116.711 77.4264C117.101 76.7139 117.244 75.892 117.116 75.0897C116.989 74.2874 116.598 73.5501 116.006 72.9937C116.51 72.8024 116.966 72.5026 117.341 72.1156C117.716 71.7286 118.002 71.2638 118.177 70.7542C118.352 70.2444 118.413 69.7024 118.355 69.1666C118.297 68.6307 118.122 68.1142 117.842 67.6536Z" stroke="#FFE8FF" stroke-width="0.75" stroke-linecap="round" stroke-linejoin="round"/>
<path d="M105.974 78.5252C105.865 78.1554 105.68 77.8121 105.433 77.5166C105.185 77.2212 104.879 76.9798 104.534 76.8077C104.189 76.6356 103.812 76.5363 103.427 76.5161C103.042 76.4958 102.657 76.5551 102.296 76.6901C101.813 76.8711 101.389 77.1814 101.071 77.5871C100.76 77.9879 100.559 78.4631 100.488 78.9655" stroke="#FFE8FF" stroke-width="0.75" stroke-linecap="round" stroke-linejoin="round"/>
<path d="M112.213 71.7919C111.605 71.5827 110.944 71.5879 110.339 71.8064C109.735 72.0249 109.223 72.4437 108.89 72.9932C108.556 73.5427 108.42 74.1898 108.505 74.8271C108.59 75.4643 108.89 76.0533 109.356 76.4962" stroke="#FFE8FF" stroke-width="0.75" stroke-linecap="round" stroke-linejoin="round"/>
<path d="M116.009 72.9976C115.508 73.1826 114.979 73.2788 114.445 73.2819" stroke="#FFE8FF" stroke-width="0.75" stroke-linecap="round" stroke-linejoin="round"/>
<path d="M100.451 82.0161C100.238 82.3952 99.973 82.7422 99.6641 83.0482" stroke="#FFE8FF" stroke-width="0.75" stroke-linecap="round" stroke-linejoin="round"/>
<path d="M112.594 79.2222C112.136 79.0909 111.704 78.8857 111.312 78.6147" stroke="#FFE8FF" stroke-width="0.75" stroke-linecap="round" stroke-linejoin="round"/>
<path d="M106.794 81.2524C106.862 81.7588 106.848 82.2727 106.754 82.7748" stroke="#FFE8FF" stroke-width="0.75" stroke-linecap="round" stroke-linejoin="round"/>
<path d="M94.3749 78.0708L92.2578 79.3491" stroke="#FFE8FF" stroke-width="0.75" stroke-linecap="round" stroke-linejoin="round"/>
<path d="M92.8707 75.6265L90.7812 76.8914" stroke="#FFE8FF" stroke-width="0.75" stroke-linecap="round" stroke-linejoin="round"/>
<path d="M81.8572 85.6733L59.2891 99.373" stroke="#FFE8FF" stroke-width="0.75" stroke-linecap="round" stroke-linejoin="round"/>
<path d="M81.4002 82.5903L57.8516 96.9019" stroke="#FFE8FF" stroke-width="0.75" stroke-linecap="round" stroke-linejoin="round"/>
<path d="M101.441 43.0535C106.495 42.5858 111.577 43.5884 116.075 45.9407C120.573 48.293 124.296 51.8948 126.795 56.3128C134.344 69.2864 130.39 86.0419 117.969 93.7321C110.2 98.5424 108.044 95.9992 92.957 100.299" stroke="#FFE8FF" stroke-width="0.75" stroke-linecap="round" stroke-linejoin="round"/>
<path d="M62.5625 113.447C69.4638 109.847 75.6316 106.701 81.9837 104.106" stroke="#FFE8FF" stroke-width="0.75" stroke-linecap="round" stroke-linejoin="round"/>
<path d="M63.3539 75.1001C58.5652 78.9373 53.3205 82.6753 47.1953 87.1946" stroke="#FFE8FF" stroke-width="0.75" stroke-linecap="round" stroke-linejoin="round"/>
<path d="M83.9322 52.7886C80.9539 57.2661 77.6122 61.4921 73.9414 65.4226" stroke="#FFE8FF" stroke-width="0.75" stroke-linecap="round" stroke-linejoin="round"/>
<path d="M96.4523 35.8628C98.8537 37.2128 101.298 39.9844 101.739 42.7977C96.3523 47.5163 85.1115 53.2579 76.9968 54.8205C77.6647 57.1518 78.0624 59.3831 77.0393 61.586C77.2871 60.345 71.5521 58.7794 70.1178 58.4593C68.7179 58.1466 63.321 57.175 62.5859 58.2033C63.1971 56.8959 63.7658 55.3608 64.3911 53.7691C68.9246 53.6415 69.2865 47.92 71.1268 46.2939C71.7066 45.782 72.6193 45.9536 73.4148 45.8252C83.3571 44.2081 91.8337 39.0605 96.4664 35.8486L96.4523 35.8628Z" stroke="#FFE8FF" stroke-width="0.75" stroke-linecap="round" stroke-linejoin="round"/>
<path d="M63.3984 60.7328C67.467 60.6681 71.474 61.7323 74.9743 63.8073" stroke="#FFE8FF" stroke-width="0.75" stroke-linecap="round" stroke-linejoin="round"/>
<path d="M74.7678 43.1055C74.3044 43.916 72.5134 43.2414 70.6836 42.2847C70.9444 43.0435 71.3286 43.754 71.8209 44.3876" stroke="#FFE8FF" stroke-width="0.75" stroke-linecap="round" stroke-linejoin="round"/>
<path d="M72.8884 45.8779C71.8981 45.6346 72.163 45.1525 71.8242 44.3891C74.4958 43.9944 74.9585 43.5026 74.8488 42.1638C74.6883 40.2191 73.5466 35.9819 72.3638 34.6543" stroke="#FFE8FF" stroke-width="0.75" stroke-linecap="round" stroke-linejoin="round"/>
<path d="M76.9964 54.8208C76.1718 54.9775 75.3763 55.0909 74.6367 55.1626" stroke="#FFE8FF" stroke-width="0.75" stroke-linecap="round" stroke-linejoin="round"/>
<path d="M70.9411 35.7625C71.6941 37.8087 71.0158 38.1072 70.4008 37.4789C69.2636 36.314 67.9994 37.852 70.074 39.5393C69.8036 41.669 69.2639 43.7558 68.4681 45.7496C66.7345 49.1323 61.6182 54.021 55.6639 55.2434C50.6752 56.2665 46.8096 54.3053 51.261 49.189C54.2878 45.707 58.9213 44.3145 59.3474 44.1892C52.114 45.9227 50.5096 42.1444 56.093 38.1065C61.6511 34.0864 69.8494 32.0096 72.365 34.6528C72.6053 35.1394 71.6717 35.311 70.9411 35.7625Z" stroke="#FFE8FF" stroke-width="0.75" stroke-linecap="round" stroke-linejoin="round"/>
<path d="M64.3945 53.7686C65.1451 51.7378 66.1124 49.7938 67.2795 47.9702C67.741 47.2799 68.1357 46.5472 68.4586 45.7822" stroke="#FFE8FF" stroke-width="0.75" stroke-linecap="round" stroke-linejoin="round"/>
<path d="M73.9648 65.4C74.9503 63.9487 75.8381 62.4335 76.6222 60.8643" stroke="#FFE8FF" stroke-width="0.75" stroke-linecap="round" stroke-linejoin="round"/>
<path d="M104.836 35.1657C106.981 34.6538 108.748 35.621 108.602 36.4448C108.569 36.6101 108.501 36.7664 108.403 36.9036C108.305 37.0407 108.179 37.1555 108.034 37.2403" stroke="#FFE8FF" stroke-width="0.75" stroke-linecap="round" stroke-linejoin="round"/>
<path d="M104.637 33.8584C106.896 33.3181 109.142 34.4554 108.175 35.6494" stroke="#FFE8FF" stroke-width="0.75" stroke-linecap="round" stroke-linejoin="round"/>
<path d="M101.5 41.7745C102.837 40.2482 104.553 39.1012 106.475 38.4492" stroke="#FFE8FF" stroke-width="0.75" stroke-linecap="round" stroke-linejoin="round"/>
<path d="M104.751 36.7007C106.84 36.2745 108.216 37.0984 108.134 37.9088C108.031 38.9036 106.044 40.4103 104.367 39.4439" stroke="#FFE8FF" stroke-width="0.75" stroke-linecap="round" stroke-linejoin="round"/>
<path d="M102.988 33.1049C103.016 33.0766 103.883 31.8691 103.5 31.4848C103.173 31.1579 98.4544 35.0377 97.1328 36.2742" stroke="#FFE8FF" stroke-width="0.75" stroke-linecap="round" stroke-linejoin="round"/>
<path d="M105.701 33.7163C109.453 31.9119 110.46 29.7351 109.751 30.1343C107.385 31.3186 104.956 32.3719 102.475 33.2894C100.554 34.0202 98.7492 35.0257 97.1172 36.2744" stroke="#FFE8FF" stroke-width="0.75" stroke-linecap="round" stroke-linejoin="round"/>
<path d="M91.4491 107.148C91.114 110.516 91.076 113.907 91.3357 117.281C91.6976 120.549 91.8752 123.434 91.3924 123.747C89.6432 124.882 87.3514 116.931 84.6843 114.225C84.0368 113.602 83.5159 112.859 83.15 112.037C82.5374 110.571 83.2799 109.375 83.2202 107.008" stroke="#FFE8FF" stroke-width="0.75" stroke-linecap="round" stroke-linejoin="round"/>
<path d="M58.6226 98.1804C62.8203 105.453 64.5217 112.338 62.4024 113.553C60.301 114.764 55.1832 109.858 50.9907 102.583C46.7983 95.3081 45.0946 88.4337 47.2102 87.2091C49.3259 85.9845 54.4213 90.9008 58.6226 98.1804Z" stroke="#FFE8FF" stroke-width="0.75" stroke-linecap="round" stroke-linejoin="round"/>
<path d="M37.0519 125.173C35.9892 118.559 29.6013 107.555 24.4149 103.581C21.7358 101.506 19.8172 101.873 20.0366 105.354C20.453 111.958 27.8073 124.699 33.2967 128.438C36.3444 130.513 37.6548 128.928 37.0519 125.173Z" stroke="#FFE8FF" stroke-width="0.75" stroke-linecap="round" stroke-linejoin="round"/>
<path d="M36.4091 129.104L40.6284 126.663C41.0347 126.345 41.3107 125.889 41.405 125.381C41.4992 124.874 41.4051 124.349 41.1404 123.906C42.8194 126.435 46.1141 123.824 44.7925 121.632C46.0186 123.722 49.8737 122.372 48.2887 119.202C48.6476 119.668 49.1596 119.992 49.7342 120.117C50.3089 120.242 50.9091 120.159 51.4289 119.884C53.1453 118.789 52.5087 116.658 51.4438 113.19C49.4519 107.234 46.2921 101.736 42.1493 97.0155C41.1537 95.8295 40.0138 94.7726 38.7561 93.8693C36.7673 92.6357 34.5301 93.5603 35.2995 96.9162C34.6666 95.8618 33.9241 95.1722 32.6697 95.5088C32.3531 95.5971 32.0612 95.7575 31.8168 95.9773C31.5724 96.1971 31.3821 96.4704 31.2608 96.7759C31.1395 97.0815 31.0908 97.411 31.1184 97.7386C31.146 98.0662 31.2491 98.3829 31.4197 98.6639C31.4197 98.6639 29.9474 96.8028 28.2787 98.1244C27.8646 98.4474 27.5857 98.9131 27.4963 99.4306C27.4069 99.9481 27.5134 100.48 27.7952 100.924C27.5931 100.566 27.289 100.278 26.9217 100.095C26.5545 99.9115 26.1409 99.8424 25.734 99.896C25.4639 99.9312 25.2034 100.02 24.9676 100.156L20.9961 102.441" stroke="#FFE8FF" stroke-width="0.75" stroke-linecap="round" stroke-linejoin="round"/>
<path d="M139.543 106.551C137.79 107.519 136.109 108.612 134.512 109.82C129.821 113.443 125.246 117.991 125.856 118.788C126.465 119.584 132.011 116.317 136.713 112.691C138.289 111.452 139.771 110.098 141.147 108.64" stroke="#FFE8FF" stroke-width="0.75" stroke-linecap="round" stroke-linejoin="round"/>
<path d="M139.543 106.551C140.566 103.013 143.977 104.092 145.853 101.96C146.194 105.216 144.403 108.484 141.163 108.64L139.543 106.551Z" stroke="#FFE8FF" stroke-width="0.75" stroke-linecap="round" stroke-linejoin="round"/>
<path d="M135.102 109.375L137.297 112.221" stroke="#FFE8FF" stroke-width="0.75" stroke-linecap="round" stroke-linejoin="round"/>
<path d="M142.881 38.4775L141.02 42.6483H144.43L142.554 46.8199" stroke="#FFE8FF" stroke-width="0.75" stroke-linecap="round" stroke-linejoin="round"/>
<path d="M76.611 141.498L69.0508 141.724" stroke="#FFE8FF" stroke-width="0.75" stroke-linecap="round" stroke-linejoin="round"/>
<path d="M72.9464 145.391L72.7188 137.83" stroke="#FFE8FF" stroke-width="0.75" stroke-linecap="round" stroke-linejoin="round"/>
<path d="M64.6061 57.7485C64.4785 58.4082 64.2778 59.0515 64.0091 59.6671C61.6928 58.5157 62.233 57.7627 64.6061 57.7485Z" stroke="#FFE8FF" stroke-width="0.75" stroke-linecap="round" stroke-linejoin="round"/>
<path d="M77.039 61.5859C76.9703 61.8434 76.6054 62.0113 75.9883 62.0949" stroke="#FFE8FF" stroke-width="0.75" stroke-linecap="round" stroke-linejoin="round"/>
<path d="M64.6013 57.7485C64.3685 59.3631 63.5489 60.8352 62.2991 61.8835C56.7142 66.3177 56.6276 72.528 60.7074 77.1757" stroke="#FFE8FF" stroke-width="0.75" stroke-linecap="round" stroke-linejoin="round"/>
<path d="M20.7461 102.597L14.4492 106.167" stroke="#FFE8FF" stroke-width="0.75" stroke-linecap="round" stroke-linejoin="round"/>
<path d="M36.1216 129.26L30.4688 132.557" stroke="#FFE8FF" stroke-width="0.75" stroke-linecap="round" stroke-linejoin="round"/>
<path d="M27.7393 134.277L23.5469 136.722" stroke="#FFE8FF" stroke-width="0.75" stroke-linecap="round" stroke-linejoin="round"/>
<path d="M11.5236 108L7.24609 110.431" stroke="#FFE8FF" stroke-width="0.75" stroke-linecap="round" stroke-linejoin="round"/>
<path d="M24.7986 118.02L11.0273 126.163" stroke="#FFE8FF" stroke-width="0.75" stroke-linecap="round" stroke-linejoin="round"/>
<path d="M8.28372 127.883L4.10547 130.313" stroke="#FFE8FF" stroke-width="0.75" stroke-linecap="round" stroke-linejoin="round"/>
<path d="M30.7694 66.7728C29.3261 68.1601 27.5037 69.0883 25.5329 69.4399C23.562 69.7916 21.5311 69.5509 19.697 68.7483C17.8629 67.9457 16.3081 66.6173 15.229 64.931C14.1499 63.2447 13.5951 61.2762 13.6348 59.2746C13.6745 57.273 14.3068 55.3281 15.4518 53.6859C16.5968 52.0437 18.2031 50.7779 20.0675 50.0486C21.932 49.3193 23.9708 49.1592 25.9262 49.5886C27.8816 50.0181 29.6657 51.0177 31.053 52.4612C31.9749 53.419 32.699 54.5493 33.1838 55.7872C33.6686 57.0252 33.9045 58.3465 33.8782 59.6757C33.8519 61.005 33.5637 62.316 33.0303 63.5337C32.4969 64.7515 31.7286 65.8522 30.7694 66.7728Z" stroke="#FFE8FF" stroke-width="0.75" stroke-linecap="round" stroke-linejoin="round"/>
<path d="M33.8654 60.0761C37.0063 61.5686 38.8652 62.9865 38.5981 63.882C38.1197 65.4991 31.0513 64.8767 22.7948 62.4887C14.5382 60.1007 8.22571 56.8523 8.6966 55.2329C8.96525 54.3083 11.354 54.1098 14.8905 54.5508" stroke="#FFE8FF" stroke-width="0.75" stroke-linecap="round" stroke-linejoin="round"/>
<path d="M61.2695 70.638C61.6815 73.2245 63.1352 75.596 65.0926 76.2095C71.2051 78.1214 81.7907 82.7608 81.7907 82.7608C81.9227 90.08 82.5854 98.1335 81.8765 106.551C85.2658 107.978 89.0705 108.064 92.521 106.792C93.118 98.8485 93.5008 91.2307 93.359 84.1958C93.3269 82.4454 92.9211 80.722 92.1687 79.1411C91.4163 77.5603 90.3347 76.1585 88.9965 75.0296C83.4732 70.4636 77.3154 66.7248 70.7163 63.9307" stroke="#FFE8FF" stroke-width="0.75" stroke-linecap="round" stroke-linejoin="round"/>
<path d="M81.7852 82.7607L83.4194 83.3719L81.9277 87.6494" stroke="#FFE8FF" stroke-width="0.75" stroke-linecap="round" stroke-linejoin="round"/>
<path d="M82.168 100.937C85.6229 102.122 89.3432 102.305 92.8976 101.463" stroke="#FFE8FF" stroke-width="0.75" stroke-linecap="round" stroke-linejoin="round"/>
<path d="M79.043 4.61084V6.98466" stroke="#FFE8FF" stroke-width="0.75" stroke-linecap="round" stroke-linejoin="round"/>
<path d="M83.6629 9.22998H81.2891" stroke="#FFE8FF" stroke-width="0.75" stroke-linecap="round" stroke-linejoin="round"/>
<path d="M79.043 13.8494V11.4756" stroke="#FFE8FF" stroke-width="0.75" stroke-linecap="round" stroke-linejoin="round"/>
<path d="M74.4258 9.22998H76.8004" stroke="#FFE8FF" stroke-width="0.75" stroke-linecap="round" stroke-linejoin="round"/>
<path d="M81.2856 9.22958C80.9905 9.23047 80.6982 9.17301 80.4255 9.06052C80.1528 8.94803 79.905 8.78272 79.6963 8.5741C79.4877 8.36548 79.3224 8.11767 79.2099 7.84493C79.0974 7.57219 79.04 7.27989 79.0408 6.98486C79.0423 7.42906 78.9114 7.86361 78.6648 8.23311C78.4183 8.6026 78.0673 8.89027 77.6566 9.05944C77.384 9.17223 77.0918 9.23006 76.7969 9.22958C77.0919 9.22889 77.3841 9.28651 77.6568 9.39913C77.9294 9.51175 78.1771 9.67715 78.3857 9.88582C78.5942 10.0945 78.7594 10.3423 78.8719 10.615C78.9843 10.8878 79.0417 11.18 79.0408 11.475C79.04 11.18 79.0974 10.8877 79.2099 10.6149C79.3224 10.3421 79.4877 10.0942 79.6963 9.88555C79.9049 9.67688 80.1527 9.51149 80.4254 9.39892C80.6982 9.28634 80.9905 9.2288 81.2856 9.22958Z" stroke="#FFE8FF" stroke-width="0.75" stroke-linecap="round" stroke-linejoin="round"/>
</svg>
