<svg width="304" height="221" viewBox="0 0 304 221" fill="none" xmlns="http://www.w3.org/2000/svg">
<g clip-path="url(#clip0_136_1112)">
<path d="M176.955 39.3337C182.624 39.3337 187.219 34.738 187.219 29.0688C187.219 23.3997 182.624 18.804 176.955 18.804C171.285 18.804 166.69 23.3997 166.69 29.0688C166.69 34.738 171.285 39.3337 176.955 39.3337Z" fill="#D1D1D1"/>
<path d="M256.583 191.676C271.84 180.055 279.128 160.527 274.565 141.898C274.452 141.435 274.332 140.973 274.206 140.512C271.182 129.455 263.699 118.945 252.793 115.412C243.636 112.445 233.64 114.726 224.087 113.547C205.333 111.231 190.794 96.0568 180.564 80.1696C170.334 64.2824 162.471 46.4989 148.878 33.3738C126.47 11.7391 89.9187 7.08119 62.1371 21.1637C34.3555 35.2463 16.6589 66.4896 17.4136 97.6274C18.1683 128.765 36.6535 158.535 63.4986 174.33C73.3604 180.133 84.7664 184.243 96.1178 182.805C105.967 181.557 114.917 176.264 124.72 174.693C140.133 172.223 155.447 179.191 168.778 187.312C182.109 195.433 194.985 205.058 210.134 208.822C224.843 212.478 243.067 201.971 256.583 191.676Z" fill="#D1D1D1"/>
<path d="M234.661 21.8176C234.327 21.5947 233.988 21.3832 233.654 21.1679C223.986 14.9845 213.623 9.9611 202.779 6.20159L200.265 40.886H184.326V1.13849C183.323 0.93089 182.312 0.734825 181.301 0.550293V40.886H162.359C151.932 40.886 141.931 36.7437 134.558 29.3703C127.185 21.997 123.042 11.9966 123.042 1.56911C122.027 1.78824 121.02 2.02272 120.013 2.2726V40.886H104.585L102.19 7.81241C91.0469 12.086 80.468 17.7059 70.6889 24.5472C70.5197 24.6625 70.3506 24.7817 70.1853 24.897C69.3357 25.4929 68.4976 26.1003 67.6633 26.7154V159.037H113.131L112.328 147.907L107.907 86.7999H196.94L192.519 147.907L191.715 159.037H236.679V23.1555C236.011 22.7019 235.338 22.2559 234.661 21.8176ZM120.013 76.7083H107.176L104.804 43.9154H120.013V76.7083ZM181.301 76.7083H159.741V76.0586C159.741 75.7462 159.68 75.437 159.56 75.1485C159.44 74.86 159.265 74.5979 159.044 74.3772C158.823 74.1565 158.56 73.9816 158.272 73.8624C157.983 73.7433 157.674 73.6822 157.361 73.6827H147.989C147.677 73.6826 147.368 73.744 147.079 73.8633C146.791 73.9827 146.529 74.1577 146.308 74.3783C146.088 74.599 145.913 74.8609 145.793 75.1492C145.674 75.4375 145.613 75.7465 145.613 76.0586V76.7083H123.042V43.9154H181.301V76.7083ZM184.326 76.7083V43.9154H200.046L197.674 76.7083H184.326Z" fill="#5D5D5D"/>
<path d="M0.756592 167.51C4.09634 171.467 7.70865 175.186 11.5671 178.64L292.433 179.024C296.291 175.571 299.904 171.852 303.243 167.894L0.756592 167.51Z" fill="#5D5D5D"/>
<path d="M191.221 131.872V164.821C191.221 165.24 191.388 165.643 191.685 165.94C191.982 166.237 192.384 166.404 192.804 166.404H241.63C242.05 166.404 242.453 166.237 242.749 165.94C243.046 165.643 243.213 165.24 243.214 164.821V131.872C243.213 131.453 243.045 131.051 242.749 130.754C242.452 130.458 242.05 130.291 241.63 130.291H192.804C192.385 130.291 191.983 130.458 191.686 130.754C191.389 131.051 191.222 131.453 191.221 131.872Z" fill="#5D5D5D"/>
<path d="M192.366 132.282V164.414C192.367 164.639 192.456 164.854 192.615 165.012C192.773 165.171 192.988 165.26 193.213 165.261H241.224C241.448 165.26 241.663 165.171 241.822 165.012C241.98 164.854 242.07 164.639 242.07 164.414V132.282C242.07 132.058 241.981 131.842 241.822 131.683C241.664 131.524 241.448 131.435 241.224 131.434H193.213C192.988 131.435 192.773 131.524 192.614 131.683C192.455 131.842 192.366 132.058 192.366 132.282Z" fill="black"/>
<path d="M190.2 171.246C190.289 171.359 190.403 171.449 190.532 171.511C190.662 171.573 190.803 171.605 190.947 171.604H243.228C243.371 171.604 243.512 171.572 243.641 171.51C243.77 171.449 243.884 171.359 243.974 171.248C244.064 171.137 244.128 171.007 244.162 170.868C244.195 170.729 244.198 170.584 244.168 170.445L243.357 166.59C243.323 166.432 243.251 166.286 243.146 166.164C243.041 166.042 242.908 165.948 242.758 165.891C242.649 165.848 242.533 165.826 242.416 165.826H191.755C191.638 165.826 191.523 165.848 191.414 165.891C191.264 165.948 191.13 166.042 191.025 166.164C190.921 166.286 190.848 166.432 190.815 166.59L190.003 170.445C189.974 170.584 189.977 170.729 190.011 170.868C190.045 171.006 190.109 171.136 190.2 171.246Z" fill="#121212"/>
<path d="M240.622 167.487H241.857C241.961 167.487 242.045 167.403 242.045 167.299V166.708C242.045 166.605 241.961 166.521 241.857 166.521H240.622C240.519 166.521 240.435 166.605 240.435 166.708V167.299C240.435 167.403 240.519 167.487 240.622 167.487Z" fill="#5D5D5D"/>
<path d="M237.402 167.487H238.637C238.74 167.487 238.824 167.403 238.824 167.299V166.708C238.824 166.605 238.74 166.521 238.637 166.521H237.402C237.298 166.521 237.214 166.605 237.214 166.708V167.299C237.214 167.403 237.298 167.487 237.402 167.487Z" fill="#5D5D5D"/>
<path d="M234.181 167.487H235.416C235.52 167.487 235.604 167.403 235.604 167.299V166.708C235.604 166.605 235.52 166.521 235.416 166.521H234.181C234.078 166.521 233.994 166.605 233.994 166.708V167.299C233.994 167.403 234.078 167.487 234.181 167.487Z" fill="#5D5D5D"/>
<path d="M230.961 167.487H232.196C232.3 167.487 232.384 167.403 232.384 167.299V166.708C232.384 166.605 232.3 166.521 232.196 166.521H230.961C230.857 166.521 230.773 166.605 230.773 166.708V167.299C230.773 167.403 230.857 167.487 230.961 167.487Z" fill="#5D5D5D"/>
<path d="M227.74 167.487H228.975C229.079 167.487 229.163 167.403 229.163 167.299V166.708C229.163 166.605 229.079 166.521 228.975 166.521H227.74C227.637 166.521 227.553 166.605 227.553 166.708V167.299C227.553 167.403 227.637 167.487 227.74 167.487Z" fill="#5D5D5D"/>
<path d="M224.52 167.487H225.755C225.859 167.487 225.943 167.403 225.943 167.299V166.708C225.943 166.605 225.859 166.521 225.755 166.521H224.52C224.416 166.521 224.332 166.605 224.332 166.708V167.299C224.332 167.403 224.416 167.487 224.52 167.487Z" fill="#5D5D5D"/>
<path d="M221.3 167.487H222.534C222.638 167.487 222.722 167.403 222.722 167.299V166.708C222.722 166.605 222.638 166.521 222.534 166.521H221.3C221.196 166.521 221.112 166.605 221.112 166.708V167.299C221.112 167.403 221.196 167.487 221.3 167.487Z" fill="#5D5D5D"/>
<path d="M218.079 167.487H219.314C219.418 167.487 219.502 167.403 219.502 167.299V166.708C219.502 166.605 219.418 166.521 219.314 166.521H218.079C217.975 166.521 217.891 166.605 217.891 166.708V167.299C217.891 167.403 217.975 167.487 218.079 167.487Z" fill="#5D5D5D"/>
<path d="M214.859 167.487H216.094C216.197 167.487 216.281 167.403 216.281 167.299V166.708C216.281 166.605 216.197 166.521 216.094 166.521H214.859C214.755 166.521 214.671 166.605 214.671 166.708V167.299C214.671 167.403 214.755 167.487 214.859 167.487Z" fill="#5D5D5D"/>
<path d="M211.638 167.487H212.873C212.977 167.487 213.061 167.403 213.061 167.299V166.708C213.061 166.605 212.977 166.521 212.873 166.521H211.638C211.535 166.521 211.451 166.605 211.451 166.708V167.299C211.451 167.403 211.535 167.487 211.638 167.487Z" fill="#5D5D5D"/>
<path d="M208.418 167.487H209.652C209.756 167.487 209.84 167.403 209.84 167.299V166.708C209.84 166.605 209.756 166.521 209.652 166.521H208.418C208.314 166.521 208.23 166.605 208.23 166.708V167.299C208.23 167.403 208.314 167.487 208.418 167.487Z" fill="#5D5D5D"/>
<path d="M205.197 167.487H206.432C206.536 167.487 206.62 167.403 206.62 167.299V166.708C206.62 166.605 206.536 166.521 206.432 166.521H205.197C205.094 166.521 205.01 166.605 205.01 166.708V167.299C205.01 167.403 205.094 167.487 205.197 167.487Z" fill="#5D5D5D"/>
<path d="M201.977 167.487H203.212C203.315 167.487 203.399 167.403 203.399 167.299V166.708C203.399 166.605 203.315 166.521 203.212 166.521H201.977C201.873 166.521 201.789 166.605 201.789 166.708V167.299C201.789 167.403 201.873 167.487 201.977 167.487Z" fill="#5D5D5D"/>
<path d="M198.756 167.487H199.991C200.095 167.487 200.179 167.403 200.179 167.299V166.708C200.179 166.605 200.095 166.521 199.991 166.521H198.756C198.652 166.521 198.568 166.605 198.568 166.708V167.299C198.568 167.403 198.652 167.487 198.756 167.487Z" fill="#5D5D5D"/>
<path d="M195.536 167.487H196.771C196.874 167.487 196.958 167.403 196.958 167.299V166.708C196.958 166.605 196.874 166.521 196.771 166.521H195.536C195.432 166.521 195.348 166.605 195.348 166.708V167.299C195.348 167.403 195.432 167.487 195.536 167.487Z" fill="#5D5D5D"/>
<path d="M192.315 167.487H193.55C193.654 167.487 193.738 167.403 193.738 167.299V166.708C193.738 166.605 193.654 166.521 193.55 166.521H192.315C192.212 166.521 192.128 166.605 192.128 166.708V167.299C192.128 167.403 192.212 167.487 192.315 167.487Z" fill="#5D5D5D"/>
<path d="M240.66 169.097H241.895C241.999 169.097 242.083 169.013 242.083 168.909V168.319C242.083 168.215 241.999 168.131 241.895 168.131H240.66C240.557 168.131 240.473 168.215 240.473 168.319V168.909C240.473 169.013 240.557 169.097 240.66 169.097Z" fill="#5D5D5D"/>
<path d="M237.44 169.097H238.675C238.779 169.097 238.863 169.013 238.863 168.909V168.319C238.863 168.215 238.779 168.131 238.675 168.131H237.44C237.336 168.131 237.252 168.215 237.252 168.319V168.909C237.252 169.013 237.336 169.097 237.44 169.097Z" fill="#5D5D5D"/>
<path d="M234.22 169.097H235.454C235.558 169.097 235.642 169.013 235.642 168.909V168.319C235.642 168.215 235.558 168.131 235.454 168.131H234.22C234.116 168.131 234.032 168.215 234.032 168.319V168.909C234.032 169.013 234.116 169.097 234.22 169.097Z" fill="#5D5D5D"/>
<path d="M230.999 169.097H232.234C232.338 169.097 232.422 169.013 232.422 168.909V168.319C232.422 168.215 232.338 168.131 232.234 168.131H230.999C230.895 168.131 230.811 168.215 230.811 168.319V168.909C230.811 169.013 230.895 169.097 230.999 169.097Z" fill="#5D5D5D"/>
<path d="M227.779 169.097H229.014C229.117 169.097 229.201 169.013 229.201 168.909V168.319C229.201 168.215 229.117 168.131 229.014 168.131H227.779C227.675 168.131 227.591 168.215 227.591 168.319V168.909C227.591 169.013 227.675 169.097 227.779 169.097Z" fill="#5D5D5D"/>
<path d="M224.558 169.097H225.793C225.897 169.097 225.981 169.013 225.981 168.909V168.319C225.981 168.215 225.897 168.131 225.793 168.131H224.558C224.455 168.131 224.37 168.215 224.37 168.319V168.909C224.37 169.013 224.455 169.097 224.558 169.097Z" fill="#5D5D5D"/>
<path d="M221.338 169.097H222.573C222.676 169.097 222.76 169.013 222.76 168.909V168.319C222.76 168.215 222.676 168.131 222.573 168.131H221.338C221.234 168.131 221.15 168.215 221.15 168.319V168.909C221.15 169.013 221.234 169.097 221.338 169.097Z" fill="#5D5D5D"/>
<path d="M218.117 169.097H219.352C219.456 169.097 219.54 169.013 219.54 168.909V168.319C219.54 168.215 219.456 168.131 219.352 168.131H218.117C218.013 168.131 217.929 168.215 217.929 168.319V168.909C217.929 169.013 218.013 169.097 218.117 169.097Z" fill="#5D5D5D"/>
<path d="M214.897 169.097H216.132C216.235 169.097 216.319 169.013 216.319 168.909V168.319C216.319 168.215 216.235 168.131 216.132 168.131H214.897C214.793 168.131 214.709 168.215 214.709 168.319V168.909C214.709 169.013 214.793 169.097 214.897 169.097Z" fill="#5D5D5D"/>
<path d="M211.676 169.097H212.911C213.015 169.097 213.099 169.013 213.099 168.909V168.319C213.099 168.215 213.015 168.131 212.911 168.131H211.676C211.572 168.131 211.488 168.215 211.488 168.319V168.909C211.488 169.013 211.572 169.097 211.676 169.097Z" fill="#5D5D5D"/>
<path d="M208.456 169.097H209.691C209.794 169.097 209.878 169.013 209.878 168.909V168.319C209.878 168.215 209.794 168.131 209.691 168.131H208.456C208.352 168.131 208.268 168.215 208.268 168.319V168.909C208.268 169.013 208.352 169.097 208.456 169.097Z" fill="#5D5D5D"/>
<path d="M205.235 169.097H206.47C206.574 169.097 206.658 169.013 206.658 168.909V168.319C206.658 168.215 206.574 168.131 206.47 168.131H205.235C205.132 168.131 205.047 168.215 205.047 168.319V168.909C205.047 169.013 205.132 169.097 205.235 169.097Z" fill="#5D5D5D"/>
<path d="M202.015 169.097H203.25C203.353 169.097 203.438 169.013 203.438 168.909V168.319C203.438 168.215 203.353 168.131 203.25 168.131H202.015C201.911 168.131 201.827 168.215 201.827 168.319V168.909C201.827 169.013 201.911 169.097 202.015 169.097Z" fill="#5D5D5D"/>
<path d="M198.794 169.097H200.029C200.133 169.097 200.217 169.013 200.217 168.909V168.319C200.217 168.215 200.133 168.131 200.029 168.131H198.794C198.691 168.131 198.607 168.215 198.607 168.319V168.909C198.607 169.013 198.691 169.097 198.794 169.097Z" fill="#5D5D5D"/>
<path d="M195.574 169.097H196.809C196.912 169.097 196.996 169.013 196.996 168.909V168.319C196.996 168.215 196.912 168.131 196.809 168.131H195.574C195.47 168.131 195.386 168.215 195.386 168.319V168.909C195.386 169.013 195.47 169.097 195.574 169.097Z" fill="#5D5D5D"/>
<path d="M192.353 169.097H193.588C193.692 169.097 193.776 169.013 193.776 168.909V168.319C193.776 168.215 193.692 168.131 193.588 168.131H192.353C192.25 168.131 192.166 168.215 192.166 168.319V168.909C192.166 169.013 192.25 169.097 192.353 169.097Z" fill="#5D5D5D"/>
<path d="M213.931 171.029H226.437C226.541 171.029 226.625 170.945 226.625 170.841V170.251C226.625 170.147 226.541 170.063 226.437 170.063H213.931C213.827 170.063 213.743 170.147 213.743 170.251V170.841C213.743 170.945 213.827 171.029 213.931 171.029Z" fill="#5D5D5D"/>
<path d="M200.68 138.464H199.587C199.256 138.464 198.987 138.733 198.987 139.064C198.987 139.395 199.256 139.664 199.587 139.664H200.68C201.012 139.664 201.28 139.395 201.28 139.064C201.28 138.733 201.012 138.464 200.68 138.464Z" fill="white"/>
<path d="M213.184 138.464H212.09C211.759 138.464 211.49 138.733 211.49 139.064C211.49 139.395 211.759 139.664 212.09 139.664H213.184C213.515 139.664 213.784 139.395 213.784 139.064C213.784 138.733 213.515 138.464 213.184 138.464Z" fill="white"/>
<path d="M216.726 138.464H215.633C215.301 138.464 215.033 138.733 215.033 139.064C215.033 139.395 215.301 139.664 215.633 139.664H216.726C217.058 139.664 217.326 139.395 217.326 139.064C217.326 138.733 217.058 138.464 216.726 138.464Z" fill="white"/>
<path d="M209.782 138.364H202.988C202.656 138.364 202.388 138.633 202.388 138.964C202.388 139.295 202.656 139.564 202.988 139.564H209.782C210.114 139.564 210.383 139.295 210.383 138.964C210.383 138.633 210.114 138.364 209.782 138.364Z" fill="white"/>
<path d="M226.454 138.364H219.659C219.328 138.364 219.059 138.633 219.059 138.964C219.059 139.295 219.328 139.564 219.659 139.564H226.454C226.785 139.564 227.054 139.295 227.054 138.964C227.054 138.633 226.785 138.364 226.454 138.364Z" fill="white"/>
<path d="M204.014 141.173H202.921C202.59 141.173 202.321 141.442 202.321 141.773C202.321 142.105 202.59 142.373 202.921 142.373H204.014C204.346 142.373 204.615 142.105 204.615 141.773C204.615 141.442 204.346 141.173 204.014 141.173Z" fill="white"/>
<path d="M216.518 141.173H215.424C215.093 141.173 214.824 141.442 214.824 141.773C214.824 142.105 215.093 142.373 215.424 142.373H216.518C216.849 142.373 217.118 142.105 217.118 141.773C217.118 141.442 216.849 141.173 216.518 141.173Z" fill="white"/>
<path d="M220.06 141.173H218.967C218.636 141.173 218.367 141.442 218.367 141.773C218.367 142.105 218.636 142.373 218.967 142.373H220.06C220.392 142.373 220.66 142.105 220.66 141.773C220.66 141.442 220.392 141.173 220.06 141.173Z" fill="white"/>
<path d="M213.117 141.073H206.322C205.991 141.073 205.722 141.342 205.722 141.673C205.722 142.004 205.991 142.273 206.322 142.273H213.117C213.448 142.273 213.717 142.004 213.717 141.673C213.717 141.342 213.448 141.073 213.117 141.073Z" fill="white"/>
<path d="M229.788 141.073H222.993C222.662 141.073 222.393 141.342 222.393 141.673C222.393 142.004 222.662 142.273 222.993 142.273H229.788C230.119 142.273 230.388 142.004 230.388 141.673C230.388 141.342 230.119 141.073 229.788 141.073Z" fill="white"/>
<path d="M207.349 143.882H206.255C205.924 143.882 205.655 144.151 205.655 144.482C205.655 144.814 205.924 145.082 206.255 145.082H207.349C207.68 145.082 207.949 144.814 207.949 144.482C207.949 144.151 207.68 143.882 207.349 143.882Z" fill="white"/>
<path d="M219.852 143.882H218.759C218.427 143.882 218.158 144.151 218.158 144.482C218.158 144.814 218.427 145.082 218.759 145.082H219.852C220.183 145.082 220.452 144.814 220.452 144.482C220.452 144.151 220.183 143.882 219.852 143.882Z" fill="white"/>
<path d="M223.395 143.882H222.301C221.97 143.882 221.701 144.151 221.701 144.482C221.701 144.814 221.97 145.082 222.301 145.082H223.395C223.726 145.082 223.995 144.814 223.995 144.482C223.995 144.151 223.726 143.882 223.395 143.882Z" fill="white"/>
<path d="M216.451 143.782H209.656C209.325 143.782 209.056 144.051 209.056 144.382C209.056 144.714 209.325 144.982 209.656 144.982H216.451C216.782 144.982 217.051 144.714 217.051 144.382C217.051 144.051 216.782 143.782 216.451 143.782Z" fill="white"/>
<path d="M233.122 143.782H226.327C225.996 143.782 225.727 144.051 225.727 144.382C225.727 144.714 225.996 144.982 226.327 144.982H233.122C233.453 144.982 233.722 144.714 233.722 144.382C233.722 144.051 233.453 143.782 233.122 143.782Z" fill="white"/>
<path d="M210.683 146.591H209.59C209.258 146.591 208.99 146.86 208.99 147.191C208.99 147.523 209.258 147.791 209.59 147.791H210.683C211.014 147.791 211.283 147.523 211.283 147.191C211.283 146.86 211.014 146.591 210.683 146.591Z" fill="white"/>
<path d="M223.186 146.591H222.093C221.761 146.591 221.493 146.86 221.493 147.191C221.493 147.523 221.761 147.791 222.093 147.791H223.186C223.518 147.791 223.786 147.523 223.786 147.191C223.786 146.86 223.518 146.591 223.186 146.591Z" fill="white"/>
<path d="M226.729 146.591H225.636C225.304 146.591 225.035 146.86 225.035 147.191C225.035 147.523 225.304 147.791 225.636 147.791H226.729C227.06 147.791 227.329 147.523 227.329 147.191C227.329 146.86 227.06 146.591 226.729 146.591Z" fill="white"/>
<path d="M219.785 146.491H212.991C212.659 146.491 212.39 146.76 212.39 147.091C212.39 147.423 212.659 147.691 212.991 147.691H219.785C220.117 147.691 220.385 147.423 220.385 147.091C220.385 146.76 220.117 146.491 219.785 146.491Z" fill="white"/>
<path d="M213.184 157.363H212.09C211.759 157.363 211.49 157.632 211.49 157.963C211.49 158.295 211.759 158.564 212.09 158.564H213.184C213.515 158.564 213.784 158.295 213.784 157.963C213.784 157.632 213.515 157.363 213.184 157.363Z" fill="white"/>
<path d="M216.726 157.363H215.633C215.301 157.363 215.033 157.632 215.033 157.963C215.033 158.295 215.301 158.564 215.633 158.564H216.726C217.058 158.564 217.326 158.295 217.326 157.963C217.326 157.632 217.058 157.363 216.726 157.363Z" fill="white"/>
<path d="M226.454 157.463H219.659C219.328 157.463 219.059 157.732 219.059 158.063C219.059 158.395 219.328 158.664 219.659 158.664H226.454C226.785 158.664 227.054 158.395 227.054 158.063C227.054 157.732 226.785 157.463 226.454 157.463Z" fill="white"/>
<path d="M200.68 157.363H199.587C199.256 157.363 198.987 157.632 198.987 157.963C198.987 158.295 199.256 158.564 199.587 158.564H200.68C201.012 158.564 201.28 158.295 201.28 157.963C201.28 157.632 201.012 157.363 200.68 157.363Z" fill="white"/>
<path d="M209.782 157.463H202.988C202.656 157.463 202.388 157.732 202.388 158.063C202.388 158.395 202.656 158.664 202.988 158.664H209.782C210.114 158.664 210.383 158.395 210.383 158.063C210.383 157.732 210.114 157.463 209.782 157.463Z" fill="white"/>
<path d="M204.014 154.654H202.921C202.59 154.654 202.321 154.923 202.321 155.254C202.321 155.586 202.59 155.854 202.921 155.854H204.014C204.346 155.854 204.615 155.586 204.615 155.254C204.615 154.923 204.346 154.654 204.014 154.654Z" fill="white"/>
<path d="M216.518 154.654H215.424C215.093 154.654 214.824 154.923 214.824 155.254C214.824 155.586 215.093 155.854 215.424 155.854H216.518C216.849 155.854 217.118 155.586 217.118 155.254C217.118 154.923 216.849 154.654 216.518 154.654Z" fill="white"/>
<path d="M220.06 154.654H218.967C218.636 154.654 218.367 154.923 218.367 155.254C218.367 155.586 218.636 155.854 218.967 155.854H220.06C220.392 155.854 220.66 155.586 220.66 155.254C220.66 154.923 220.392 154.654 220.06 154.654Z" fill="white"/>
<path d="M213.117 154.754H206.322C205.991 154.754 205.722 155.023 205.722 155.354C205.722 155.686 205.991 155.955 206.322 155.955H213.117C213.448 155.955 213.717 155.686 213.717 155.354C213.717 155.023 213.448 154.754 213.117 154.754Z" fill="white"/>
<path d="M207.349 151.945H206.255C205.924 151.945 205.655 152.214 205.655 152.545C205.655 152.877 205.924 153.145 206.255 153.145H207.349C207.68 153.145 207.949 152.877 207.949 152.545C207.949 152.214 207.68 151.945 207.349 151.945Z" fill="white"/>
<path d="M219.852 151.945H218.759C218.427 151.945 218.158 152.214 218.158 152.545C218.158 152.877 218.427 153.145 218.759 153.145H219.852C220.183 153.145 220.452 152.877 220.452 152.545C220.452 152.214 220.183 151.945 219.852 151.945Z" fill="white"/>
<path d="M223.395 151.945H222.301C221.97 151.945 221.701 152.214 221.701 152.545C221.701 152.877 221.97 153.145 222.301 153.145H223.395C223.726 153.145 223.995 152.877 223.995 152.545C223.995 152.214 223.726 151.945 223.395 151.945Z" fill="white"/>
<path d="M216.451 152.045H209.656C209.325 152.045 209.056 152.314 209.056 152.645C209.056 152.977 209.325 153.245 209.656 153.245H216.451C216.782 153.245 217.051 152.977 217.051 152.645C217.051 152.314 216.782 152.045 216.451 152.045Z" fill="white"/>
<path d="M210.683 149.236H209.59C209.258 149.236 208.99 149.505 208.99 149.836C208.99 150.168 209.258 150.436 209.59 150.436H210.683C211.014 150.436 211.283 150.168 211.283 149.836C211.283 149.505 211.014 149.236 210.683 149.236Z" fill="white"/>
<path d="M223.186 149.236H222.093C221.761 149.236 221.493 149.505 221.493 149.836C221.493 150.168 221.761 150.436 222.093 150.436H223.186C223.518 150.436 223.786 150.168 223.786 149.836C223.786 149.505 223.518 149.236 223.186 149.236Z" fill="white"/>
<path d="M226.729 149.236H225.636C225.304 149.236 225.035 149.505 225.035 149.836C225.035 150.168 225.304 150.436 225.636 150.436H226.729C227.06 150.436 227.329 150.168 227.329 149.836C227.329 149.505 227.06 149.236 226.729 149.236Z" fill="white"/>
<path d="M219.785 149.336H212.991C212.659 149.336 212.39 149.605 212.39 149.936C212.39 150.268 212.659 150.536 212.991 150.536H219.785C220.117 150.536 220.385 150.268 220.385 149.936C220.385 149.605 220.117 149.336 219.785 149.336Z" fill="white"/>
<path d="M194.868 189.112L189.736 181L205.845 168.158L212.494 160.792C213.358 159.835 214.458 159.121 215.684 158.723C216.91 158.324 218.219 158.254 219.48 158.52C220.742 158.785 221.912 159.377 222.873 160.237C223.834 161.096 224.552 162.193 224.957 163.417C225.556 165.231 225.427 167.207 224.597 168.928C223.767 170.649 222.301 171.98 220.509 172.64L209.995 176.514L194.868 189.112Z" fill="#FFB6B6"/>
<path d="M74.4502 130.292V169.721H102.072V130.292C102.073 130.009 101.982 129.732 101.814 129.504C101.646 129.276 101.409 129.107 101.138 129.023C101.01 128.981 100.877 128.961 100.742 128.962H75.7842C75.6093 128.962 75.4359 128.996 75.2742 129.062C75.1124 129.129 74.9654 129.227 74.8415 129.351C74.7176 129.474 74.6193 129.621 74.5521 129.782C74.485 129.944 74.4504 130.117 74.4502 130.292ZM85.23 143.84C85.2372 143.063 85.551 142.32 86.1032 141.772C86.6554 141.225 87.4013 140.918 88.1786 140.918C88.956 140.918 89.7018 141.225 90.254 141.772C90.8062 142.32 91.1201 143.063 91.1273 143.84V148.415C91.1233 149.194 90.8109 149.94 90.2583 150.49C89.7058 151.04 88.9581 151.348 88.1786 151.348C87.3992 151.348 86.6515 151.04 86.0989 150.49C85.5464 149.94 85.2339 149.194 85.23 148.415V143.84Z" fill="#121212"/>
<path d="M74.3657 168.46V172.262C74.3663 172.459 74.4446 172.647 74.5835 172.787C74.7224 172.927 74.9108 173.006 75.1077 173.008H101.415C101.612 173.007 101.801 172.928 101.94 172.788C102.079 172.648 102.157 172.459 102.157 172.262V168.46H74.3657Z" fill="#5D5D5D"/>
<path d="M30.9968 70.8883V142.879C30.9976 143.796 31.3623 144.676 32.011 145.325C32.6597 145.973 33.5394 146.338 34.4568 146.339H141.14C142.057 146.338 142.937 145.973 143.585 145.325C144.234 144.676 144.599 143.796 144.599 142.879V70.8883C144.597 69.9716 144.232 69.0932 143.583 68.4455C142.935 67.7977 142.056 67.4333 141.14 67.4321H34.4568C33.5402 67.4333 32.6614 67.7977 32.0129 68.4455C31.3644 69.0933 30.999 69.9716 30.9968 70.8883Z" fill="#5D5D5D"/>
<path d="M33.4995 71.7839V141.991C33.5004 142.481 33.6954 142.951 34.042 143.297C34.3886 143.644 34.8585 143.839 35.3487 143.84H140.251C140.742 143.839 141.211 143.644 141.558 143.297C141.905 142.951 142.1 142.481 142.101 141.991V71.7839C142.101 71.2932 141.906 70.8224 141.559 70.4751C141.212 70.1277 140.742 69.932 140.251 69.9309H35.3487C34.8579 69.932 34.3876 70.1277 34.0409 70.4751C33.6943 70.8224 33.4996 71.2932 33.4995 71.7839Z" fill="white"/>
<path d="M52.9677 172.75C53.0745 172.884 53.2102 172.992 53.3647 173.066C53.5191 173.14 53.6883 173.178 53.8596 173.177H116.27C116.441 173.176 116.609 173.138 116.763 173.065C116.917 172.991 117.053 172.884 117.16 172.752C117.268 172.619 117.345 172.464 117.385 172.298C117.425 172.132 117.428 171.96 117.393 171.793L116.424 167.191C116.384 167.003 116.297 166.829 116.172 166.683C116.047 166.537 115.888 166.425 115.709 166.357C115.579 166.306 115.441 166.28 115.301 166.28H54.8245C54.6851 166.28 54.5469 166.306 54.417 166.357C54.2377 166.425 54.0784 166.537 53.9535 166.683C53.8286 166.829 53.7421 167.003 53.702 167.191L52.7332 171.793C52.6987 171.96 52.7019 172.132 52.7424 172.298C52.783 172.463 52.8599 172.618 52.9677 172.75Z" fill="#121212"/>
<path d="M136.847 79.6022H38.6899C38.5878 79.6 38.4908 79.5578 38.4194 79.4849C38.3481 79.4119 38.3081 79.3139 38.3081 79.2119C38.3081 79.1098 38.3481 79.0118 38.4194 78.9389C38.4908 78.8659 38.5878 78.8238 38.6899 78.8215H136.847C136.949 78.8238 137.046 78.8659 137.117 78.9389C137.189 79.0118 137.229 79.1098 137.229 79.2119C137.229 79.3139 137.189 79.4119 137.117 79.4849C137.046 79.5578 136.949 79.6 136.847 79.6022Z" fill="#5D5D5D"/>
<path d="M45.3716 76.8285C46.635 76.8285 47.6592 75.7815 47.6592 74.4899C47.6592 73.1984 46.635 72.1514 45.3716 72.1514C44.1082 72.1514 43.084 73.1984 43.084 74.4899C43.084 75.7815 44.1082 76.8285 45.3716 76.8285Z" fill="#5D5D5D"/>
<path d="M53.2742 76.8285C54.5376 76.8285 55.5618 75.7815 55.5618 74.4899C55.5618 73.1984 54.5376 72.1514 53.2742 72.1514C52.0108 72.1514 50.9866 73.1984 50.9866 74.4899C50.9866 75.7815 52.0108 76.8285 53.2742 76.8285Z" fill="#5D5D5D"/>
<path d="M61.1768 76.8285C62.4402 76.8285 63.4643 75.7815 63.4643 74.4899C63.4643 73.1984 62.4402 72.1514 61.1768 72.1514C59.9133 72.1514 58.8892 73.1984 58.8892 74.4899C58.8892 75.7815 59.9133 76.8285 61.1768 76.8285Z" fill="#5D5D5D"/>
<path d="M132.088 72.7297H126.476C126.365 72.7323 126.259 72.7782 126.182 72.8576C126.104 72.937 126.061 73.0436 126.061 73.1545C126.061 73.2655 126.104 73.3721 126.182 73.4515C126.259 73.5309 126.365 73.5768 126.476 73.5794H132.088C132.2 73.5778 132.307 73.5323 132.385 73.4528C132.463 73.3733 132.507 73.2662 132.507 73.1545C132.507 73.0429 132.463 72.9358 132.385 72.8563C132.307 72.7768 132.2 72.7313 132.088 72.7297Z" fill="#5D5D5D"/>
<path d="M132.088 74.325H126.476C126.365 74.3274 126.259 74.3732 126.181 74.4526C126.104 74.532 126.06 74.6387 126.06 74.7498C126.06 74.8608 126.104 74.9675 126.181 75.0469C126.259 75.1263 126.365 75.1721 126.476 75.1746H132.088C132.2 75.1732 132.307 75.1279 132.386 75.0483C132.464 74.9688 132.508 74.8616 132.508 74.7498C132.508 74.638 132.464 74.5307 132.386 74.4512C132.307 74.3716 132.2 74.3263 132.088 74.325Z" fill="#5D5D5D"/>
<path d="M132.088 75.9204H126.476C126.365 75.923 126.259 75.9689 126.182 76.0483C126.104 76.1277 126.061 76.2342 126.061 76.3452C126.061 76.4562 126.104 76.5628 126.182 76.6422C126.259 76.7216 126.365 76.7674 126.476 76.77H132.088C132.2 76.7684 132.307 76.723 132.385 76.6435C132.463 76.564 132.507 76.4569 132.507 76.3452C132.507 76.2336 132.463 76.1264 132.385 76.0469C132.307 75.9674 132.2 75.922 132.088 75.9204Z" fill="#5D5D5D"/>
<path d="M267.404 170.128C267.573 170.621 267.895 171.048 268.322 171.347C268.749 171.646 269.26 171.803 269.781 171.793L279.966 171.531C280.491 171.521 280.999 171.341 281.413 171.018C281.827 170.696 282.126 170.247 282.265 169.741L283.706 154.33C284.217 154.561 284.774 154.676 285.335 154.664C285.823 154.652 286.303 154.544 286.749 154.346C287.195 154.148 287.597 153.864 287.934 153.511C288.27 153.157 288.533 152.741 288.708 152.286C288.884 151.831 288.967 151.346 288.955 150.858C288.943 150.37 288.835 149.89 288.637 149.444C288.439 148.998 288.155 148.596 287.802 148.26C287.448 147.924 287.032 147.66 286.577 147.485C286.122 147.31 285.637 147.226 285.149 147.238C284.925 147.237 284.701 147.261 284.481 147.308C284.243 147.05 283.953 146.844 283.63 146.705C283.307 146.566 282.959 146.496 282.608 146.499L266.942 146.904C266.812 146.908 266.682 146.925 266.555 146.952C266.212 147.016 265.886 147.153 265.599 147.353C265.313 147.554 265.073 147.813 264.896 148.114C264.718 148.415 264.607 148.751 264.57 149.098C264.533 149.446 264.571 149.797 264.682 150.129L267.404 170.128ZM284.002 153.283L285.027 149.611C285.144 149.186 285.147 148.739 285.035 148.313C285.085 148.313 285.129 148.29 285.179 148.29C285.882 148.275 286.562 148.54 287.07 149.026C287.578 149.512 287.873 150.18 287.889 150.883C287.906 151.587 287.643 152.268 287.158 152.777C286.673 153.287 286.006 153.583 285.303 153.601C284.848 153.616 284.398 153.506 284.002 153.283Z" fill="#121212"/>
<path d="M266.555 146.952C266.889 148.86 270.641 150.202 275.154 149.968C279.303 149.777 282.695 148.32 283.317 146.594C283.087 146.526 282.848 146.494 282.608 146.499L266.942 146.904C266.812 146.908 266.682 146.925 266.555 146.952Z" fill="#5D5D5D"/>
<path d="M275.98 161.66C276.001 161.654 276.021 161.646 276.038 161.634L278.25 160.186C278.277 160.169 278.299 160.145 278.314 160.117C278.329 160.089 278.337 160.058 278.337 160.026C278.337 159.994 278.329 159.962 278.314 159.934C278.299 159.906 278.277 159.882 278.25 159.865L275.951 158.359C275.93 158.345 275.907 158.336 275.882 158.331C275.857 158.326 275.831 158.326 275.807 158.331C275.782 158.336 275.758 158.346 275.737 158.36C275.717 158.375 275.699 158.393 275.685 158.414C275.671 158.435 275.661 158.459 275.657 158.484C275.652 158.509 275.652 158.534 275.657 158.559C275.663 158.584 275.673 158.607 275.687 158.628C275.701 158.649 275.72 158.667 275.741 158.681L277.794 160.025L275.828 161.312C275.79 161.337 275.762 161.375 275.749 161.419C275.736 161.462 275.739 161.509 275.757 161.551C275.776 161.592 275.808 161.626 275.849 161.646C275.89 161.666 275.936 161.671 275.98 161.66Z" fill="black"/>
<path d="M272.487 161.821C272.524 161.811 272.558 161.791 272.583 161.763C272.609 161.734 272.625 161.698 272.63 161.661C272.636 161.623 272.629 161.584 272.612 161.55C272.596 161.515 272.569 161.487 272.536 161.468L270.497 160.299L272.467 158.835C272.488 158.82 272.505 158.801 272.518 158.78C272.531 158.758 272.539 158.734 272.543 158.709C272.546 158.684 272.545 158.659 272.539 158.634C272.533 158.61 272.522 158.587 272.507 158.566C272.492 158.546 272.473 158.529 272.451 158.516C272.43 158.503 272.406 158.495 272.381 158.491C272.356 158.487 272.33 158.489 272.306 158.495C272.281 158.501 272.258 158.512 272.238 158.527L270.032 160.166C270.006 160.185 269.986 160.21 269.972 160.239C269.959 160.267 269.953 160.299 269.955 160.331C269.957 160.363 269.966 160.394 269.983 160.421C270 160.448 270.023 160.471 270.051 160.486L272.344 161.801C272.388 161.826 272.439 161.833 272.487 161.821Z" fill="black"/>
<path d="M275.76 162.928C275.779 162.924 275.797 162.916 275.813 162.906C275.835 162.893 275.853 162.876 275.868 162.855C275.883 162.835 275.894 162.812 275.9 162.787C275.906 162.763 275.907 162.737 275.903 162.712C275.899 162.687 275.891 162.663 275.877 162.642L272.742 157.487C272.716 157.444 272.673 157.413 272.623 157.401C272.574 157.389 272.522 157.397 272.478 157.423C272.434 157.45 272.403 157.492 272.391 157.542C272.379 157.591 272.387 157.644 272.414 157.687L275.549 162.842C275.57 162.877 275.602 162.904 275.64 162.92C275.679 162.935 275.721 162.938 275.76 162.928Z" fill="black"/>
<path d="M99.4966 100.823H82.5078C81.8148 100.823 81.2529 101.385 81.2529 102.078V103.738C81.2529 104.431 81.8148 104.993 82.5078 104.993H99.4966C100.19 104.993 100.752 104.431 100.752 103.738V102.078C100.752 101.385 100.19 100.823 99.4966 100.823Z" fill="black"/>
<path d="M109.399 109.162H72.605C71.9119 109.162 71.3501 109.724 71.3501 110.417V112.077C71.3501 112.77 71.9119 113.332 72.605 113.332H109.399C110.092 113.332 110.654 112.77 110.654 112.077V110.417C110.654 109.724 110.092 109.162 109.399 109.162Z" fill="#828282"/>
<path d="M109.399 117.501H72.605C71.9119 117.501 71.3501 118.063 71.3501 118.756V120.416C71.3501 121.109 71.9119 121.671 72.605 121.671H109.399C110.092 121.671 110.654 121.109 110.654 120.416V118.756C110.654 118.063 110.092 117.501 109.399 117.501Z" fill="#828282"/>
<path d="M112.518 145.426L112.602 145.689L112.606 145.698L115.115 153.324L118 162.113L123.43 178.629L123.482 181.195V181.203L123.886 201.842L122.767 204.64L124.026 209.227C124.026 209.227 123.447 202.293 120.342 206.275C118.584 208.538 116.527 210.854 114.838 213.025C117.299 214.02 119.798 214.921 122.338 215.726C122.886 215.902 123.438 216.068 123.991 216.235C124.109 216.27 124.228 216.305 124.346 216.34C132.764 218.829 141.465 220.228 150.239 220.502C150.695 220.515 151.142 220.524 151.576 220.533C151.73 220.537 151.879 220.542 152.028 220.542C152.519 220.546 153.006 220.55 153.497 220.55C154.488 220.55 155.475 220.536 156.458 220.506C163.729 220.302 170.957 219.324 178.021 217.59C177.973 214.674 177.842 211.266 177.653 207.626C177.565 205.841 175.596 203.907 175.478 202.039C175.394 200.635 177.162 199.315 177.07 197.89C176.473 189.114 175.728 192.483 175.175 186.269C175.118 185.659 175.066 185.076 175.017 184.519C174.662 180.528 174.417 178.033 174.417 178.033L176.776 163.161L180.482 139.812L180.197 139.343L179.877 139.185L160.33 129.51L159.269 126.791C158.959 126.008 158.423 125.335 157.728 124.859C157.033 124.383 156.212 124.126 155.37 124.121L142.494 124.068C141.826 124.065 141.166 124.221 140.571 124.524C139.975 124.827 139.46 125.267 139.069 125.809L135.582 130.638L112.518 145.426Z" fill="#5D5D5D"/>
<path d="M126.399 174.954L123.482 181.195L121.491 185.457L118.066 203.39L116.351 205.21L114.882 198.767L99.5052 202.181C99.0009 199.379 99.3702 202.276 99.0588 199.202C99.1466 199.114 99.2386 199.026 99.3307 198.939C99.5763 198.711 99.7825 198.496 99.7781 198.29C99.6027 187.685 100.129 169.639 104.523 158.705C105.212 156.92 106.119 155.227 107.225 153.666C107.313 153.548 107.396 153.429 107.479 153.311C109.505 150.473 110.786 147.68 112.602 145.693V145.689C112.613 145.68 112.623 145.669 112.632 145.658C112.639 145.655 112.645 145.65 112.65 145.645L125.122 139.031L125.657 154.065L126.039 164.871L126.399 174.954Z" fill="#5D5D5D"/>
<path d="M171.373 176.726L175.016 184.521L176.287 187.236L179.711 205.167L181.42 206.982L182.893 200.541L183.585 200.399L196.063 197.814L199.7 209.365C200.52 208 200.843 206.393 200.615 204.816C200.386 203.24 199.62 201.79 198.447 200.713C198.198 200.489 197.991 200.27 197.997 200.063C198.204 187.59 197.441 164.816 190.551 155.442C188.363 152.467 187.05 149.505 185.14 147.435C185.134 147.429 185.134 147.423 185.128 147.423L180.48 139.812L180.196 139.344L179.877 139.185L171.373 176.726Z" fill="#5D5D5D"/>
<path d="M149.304 120.403C158.764 120.403 166.434 112.734 166.434 103.273C166.434 93.8127 158.764 86.1433 149.304 86.1433C139.843 86.1433 132.174 93.8127 132.174 103.273C132.174 112.734 139.843 120.403 149.304 120.403Z" fill="#FFB6B6"/>
<path d="M172.457 91.3081C172.324 91.1663 172.164 91.0526 171.987 90.974C171.809 90.8954 171.617 90.8535 171.423 90.8506L171.68 90.1356C171.765 89.9103 171.787 89.6668 171.746 89.4299C171.705 89.193 171.602 88.9713 171.447 88.7875C171.292 88.6036 171.091 88.4642 170.865 88.3836C170.638 88.303 170.394 88.284 170.158 88.3287L169.22 88.5094L169.308 87.8827C169.342 87.6493 169.315 87.4112 169.229 87.1916C169.143 86.972 169.001 86.7786 168.818 86.6304C168.634 86.4823 168.415 86.3844 168.182 86.3465C167.95 86.3086 167.711 86.3319 167.49 86.4142C167.289 86.4933 167.073 86.5264 166.857 86.5111C166.642 86.4958 166.432 86.4325 166.244 86.3257C166.056 86.2223 165.892 86.0789 165.765 85.9056C165.637 85.7323 165.549 85.5332 165.506 85.3223L165.18 83.7461L165.145 83.6615C163.553 81.0089 160.493 79.079 156.749 78.3716C153.416 77.7373 149.998 78.0602 146.703 78.3639C145.396 78.487 143.92 78.6253 142.69 79.3789C141.644 80.0247 140.76 81.3165 140.94 82.6197C137.692 81.624 134.209 83.6116 132.483 86.1181C130.438 89.1014 130.103 92.8382 130.049 95.7599C129.903 102.672 131.329 108.327 134.278 112.572C134.493 112.879 134.547 113.521 134.974 113.736L134.886 113.594C135.362 113.833 135.847 114.217 135.666 114.628C135.147 115.812 138.595 118.43 141.025 119.295C145.458 120.876 151.351 120.741 155.495 120.172L155.642 119.192C157.137 118.988 158.19 118.6 158.486 117.992C159.009 117.546 159.455 117.146 159.844 116.777L159.847 116.774C159.855 116.766 159.87 116.754 159.878 116.747C161.75 114.951 162.185 113.929 162.381 112.372C162.569 110.845 162.235 109.296 161.893 107.901C169.097 109.016 159.055 100.227 165.768 98.5279C165.845 98.5042 165.923 98.485 166.002 98.4703C166.198 98.4241 166.394 98.378 166.583 98.3242C167.491 98.0777 168.36 97.7064 169.166 97.2208C171.042 96.079 171.661 94.5643 172.63 92.8574C172.77 92.6144 172.828 92.3331 172.797 92.0544C172.766 91.7758 172.647 91.5143 172.457 91.3081Z" fill="#121212"/>
<path d="M209.89 177.946C209.886 178.619 209.879 179.561 209.848 180.726C209.844 180.887 209.84 181.052 209.836 181.221C209.786 183.363 209.736 185.158 209.656 187.153C209.652 187.292 209.648 187.426 209.64 187.565C209.533 190.348 209.364 193.589 209.071 198.721C208.529 208.202 207.584 200.025 206.634 203.35C206.588 203.515 206.538 203.711 206.492 203.942C206.348 204.779 206.105 205.596 205.769 206.376C205.265 206.675 204.746 206.964 204.235 207.252C202.778 208.063 201.298 208.844 199.806 209.586C198.968 210.001 198.126 210.408 197.281 210.8C197.146 210.862 197.015 210.924 196.885 210.981C192.553 212.984 188.09 214.688 183.525 216.079C182.633 216.348 181.745 216.609 180.846 216.852C179.908 217.113 178.97 217.359 178.02 217.59C170.956 219.324 163.728 220.302 156.457 220.508C155.476 220.538 154.488 220.55 153.496 220.55C153.004 220.55 152.52 220.546 152.028 220.542C151.878 220.542 151.728 220.538 151.578 220.535C151.144 220.523 150.694 220.515 150.24 220.504C141.467 220.23 132.765 218.831 124.348 216.34L123.99 216.236C123.437 216.067 122.887 215.902 122.337 215.725C119.8 214.922 117.3 214.022 114.837 213.026C112.957 212.269 111.099 211.457 109.262 210.589C109.246 210.584 109.23 210.577 109.216 210.566C108.832 210.389 108.444 210.205 108.059 210.016C108.009 209.989 107.955 209.962 107.902 209.935C106.468 209.236 105.049 208.503 103.646 207.736C102.466 205.026 100.805 204.507 99.7745 202.124C99.4746 201.415 99.2579 200.675 99.1286 199.917C99.1286 199.909 99.1248 199.902 99.1248 199.89C99.2324 201.32 98.6673 197.353 99.1209 199.875C99.1171 199.828 99.1132 199.779 99.1094 199.721C99.0979 199.582 99.0825 199.413 99.0594 199.202C97.7408 186.327 97.8254 171.603 97.2525 159.47C97.2141 158.686 97.1744 157.935 97.1334 157.217C97.1218 156.979 97.1065 156.744 97.0911 156.513C97.118 156.444 97.1487 156.371 97.1833 156.302C97.1907 156.282 97.1997 156.263 97.2102 156.244C97.2216 156.22 97.2344 156.197 97.2487 156.175C97.2564 156.164 97.2679 156.148 97.2756 156.137C97.2812 156.123 97.2876 156.111 97.2948 156.098C97.3294 156.044 97.3679 155.987 97.4101 155.933C97.4294 155.91 97.4448 155.891 97.464 155.871C97.4772 155.852 97.4927 155.834 97.5101 155.818C97.5219 155.799 97.5361 155.782 97.5524 155.768C97.5678 155.752 97.5831 155.733 97.6024 155.714C97.6106 155.702 97.621 155.691 97.6331 155.683C97.6635 155.648 97.697 155.616 97.7331 155.587C97.8702 155.461 98.0168 155.345 98.1713 155.241C98.2251 155.206 98.2828 155.172 98.3367 155.133C98.7241 154.902 99.132 154.706 99.5553 154.549C99.7014 154.495 99.8475 154.445 100.005 154.391C100.063 154.376 100.117 154.357 100.174 154.337C100.259 154.311 100.343 154.284 100.432 154.264C100.87 154.134 101.343 154.022 101.854 153.918C101.916 153.907 101.981 153.895 102.047 153.88C102.139 153.861 102.235 153.845 102.331 153.83C102.462 153.807 102.596 153.784 102.731 153.761C103.873 153.58 105.168 153.446 106.598 153.357C106.733 153.349 106.867 153.342 107.002 153.334C107.16 153.326 107.317 153.319 107.479 153.311C107.613 153.303 107.752 153.299 107.89 153.296C108.025 153.288 108.163 153.284 108.305 153.28C108.694 153.269 109.093 153.257 109.501 153.249C110.662 153.226 111.884 153.234 113.168 153.261C113.764 153.276 114.372 153.292 114.995 153.319C115.037 153.319 115.075 153.323 115.114 153.323C115.656 153.342 116.202 153.365 116.763 153.396C117.155 153.415 117.551 153.434 117.947 153.457C118.32 153.48 118.697 153.503 119.077 153.53C119.373 153.546 119.669 153.569 119.969 153.588C120.223 153.607 120.477 153.626 120.73 153.642L121.076 153.665C121.265 153.68 121.453 153.692 121.645 153.711C122.068 153.745 122.491 153.78 122.922 153.815C123.348 153.853 123.783 153.892 124.217 153.93C124.652 153.968 125.09 154.011 125.528 154.053C125.574 154.057 125.617 154.061 125.659 154.065C126.059 154.107 126.459 154.145 126.862 154.188C126.955 154.195 127.051 154.203 127.143 154.214C127.528 154.253 127.92 154.298 128.309 154.34C128.428 154.353 128.546 154.365 128.666 154.378C128.97 154.411 129.27 154.44 129.576 154.476C129.98 154.522 130.391 154.564 130.791 154.618C131.103 154.653 131.414 154.687 131.725 154.726C132.214 154.783 132.71 154.845 133.206 154.91C133.394 154.933 133.582 154.956 133.771 154.983C135.185 155.16 136.616 155.356 138.069 155.56C140.272 155.871 142.509 156.21 144.762 156.575C147.019 156.94 149.288 157.326 151.57 157.732C152.147 157.836 152.724 157.94 153.304 158.047C153.566 158.097 153.827 158.147 154.088 158.197C154.534 158.278 154.98 158.363 155.426 158.447C155.872 158.532 156.318 158.616 156.764 158.705C157.295 158.809 157.829 158.912 158.36 159.016C161.854 159.708 165.329 160.446 168.72 161.219C169.278 161.346 169.835 161.477 170.389 161.603C171.496 161.861 172.593 162.122 173.68 162.388C173.979 162.457 174.275 162.53 174.571 162.603C175.31 162.787 176.048 162.972 176.774 163.16L176.901 163.195C177.436 163.326 177.958 163.46 178.481 163.599C179.715 163.922 180.929 164.248 182.122 164.579C182.914 164.798 183.697 165.02 184.471 165.244C185.628 165.579 186.762 165.917 187.865 166.259C188.138 166.344 188.411 166.428 188.68 166.509C189.488 166.759 190.284 167.013 191.056 167.266C191.671 167.466 192.271 167.67 192.863 167.874C193.455 168.077 194.036 168.281 194.605 168.485C194.97 168.616 195.331 168.754 195.693 168.885C196.212 169.077 196.723 169.269 197.223 169.461C197.377 169.519 197.527 169.581 197.676 169.638C197.773 169.681 197.865 169.715 197.957 169.754C198.138 169.827 198.322 169.896 198.499 169.969C198.68 170.038 198.857 170.111 199.034 170.188C199.207 170.257 199.383 170.33 199.553 170.403C199.726 170.472 199.895 170.546 200.064 170.622C200.206 170.68 200.344 170.742 200.479 170.803C200.752 170.922 201.025 171.041 201.29 171.164C201.421 171.226 201.552 171.284 201.682 171.345L201.982 171.484C202.024 171.507 202.067 171.526 202.109 171.545C202.205 171.591 202.305 171.641 202.401 171.687C202.624 171.791 202.843 171.903 203.059 172.006C203.347 172.153 203.628 172.299 203.897 172.441C204.17 172.587 204.435 172.733 204.689 172.875C204.731 172.898 204.769 172.921 204.812 172.944C204.869 172.975 204.927 173.01 204.985 173.041C205.181 173.152 205.369 173.267 205.558 173.379C205.927 173.606 206.276 173.829 206.603 174.052C206.676 174.102 206.745 174.152 206.818 174.198C207.061 174.371 207.291 174.54 207.507 174.713C207.507 174.717 207.507 174.717 207.51 174.717C207.584 174.771 207.653 174.828 207.722 174.882C207.78 174.936 207.841 174.982 207.899 175.036C208.099 175.209 208.283 175.374 208.452 175.543C208.509 175.595 208.563 175.651 208.614 175.709C208.636 175.727 208.657 175.748 208.675 175.77C208.752 175.847 208.821 175.924 208.887 176.001C208.897 176.011 208.906 176.023 208.914 176.035C209.006 176.143 209.091 176.251 209.171 176.358C209.21 176.412 209.252 176.466 209.287 176.52C209.333 176.585 209.379 176.654 209.417 176.72C209.452 176.773 209.483 176.831 209.513 176.885C209.595 177.024 209.664 177.169 209.721 177.319C209.764 177.421 209.799 177.527 209.825 177.635C209.854 177.737 209.876 177.841 209.89 177.946Z" fill="#121212"/>
<path opacity="0.2" d="M209.89 177.946C209.886 178.619 209.879 179.561 209.848 180.726C209.844 180.887 209.836 181.052 209.833 181.221C209.794 182.855 209.736 184.874 209.656 187.153C209.652 187.292 209.648 187.426 209.64 187.565C209.533 190.348 209.363 193.589 209.071 198.721C208.529 208.202 207.584 200.025 206.634 203.35C203.997 201.728 201.106 200.028 198.015 198.283C197.457 197.968 196.895 197.651 196.327 197.333C190.145 193.885 183.241 190.271 176.032 186.692C175.748 186.55 175.46 186.408 175.175 186.269C158.663 178.107 140.641 170.169 126.04 164.871C123.222 163.849 120.53 162.926 118.001 162.115C112.672 160.412 108.067 159.22 104.522 158.705C100.832 158.166 98.2828 158.359 97.2525 159.47C97.214 158.685 97.1743 157.935 97.1333 157.217C97.1179 156.979 97.1025 156.744 97.0872 156.513C97.1109 156.45 97.1417 156.39 97.1716 156.329C97.1758 156.32 97.1789 156.311 97.1833 156.302C97.1906 156.282 97.1996 156.263 97.2102 156.244C97.2215 156.22 97.2344 156.197 97.2486 156.175C97.2611 156.148 97.2766 156.122 97.2948 156.098C97.3294 156.044 97.3678 155.987 97.4101 155.933C97.4412 155.893 97.4746 155.854 97.51 155.817C97.5218 155.799 97.5361 155.782 97.5523 155.768C97.5677 155.752 97.5831 155.733 97.6023 155.714C97.6105 155.702 97.621 155.691 97.6331 155.683C97.6635 155.648 97.6969 155.616 97.733 155.587C97.8702 155.461 98.0167 155.345 98.1713 155.241C98.2251 155.206 98.2828 155.172 98.3366 155.133C98.724 154.901 99.132 154.706 99.5553 154.549C99.7014 154.495 99.8475 154.445 100.005 154.391C100.063 154.376 100.117 154.357 100.174 154.337C100.259 154.311 100.343 154.284 100.432 154.264C100.87 154.134 101.343 154.022 101.854 153.918C102.008 153.888 102.169 153.857 102.331 153.83C102.462 153.807 102.596 153.784 102.731 153.761C103.873 153.58 105.168 153.446 106.598 153.357C106.733 153.349 106.867 153.342 107.002 153.334C107.16 153.326 107.317 153.319 107.479 153.311C107.613 153.303 107.752 153.299 107.89 153.296C108.025 153.288 108.163 153.284 108.305 153.28C108.693 153.269 109.093 153.257 109.501 153.249C110.662 153.23 111.884 153.238 113.168 153.265C113.764 153.276 114.372 153.296 114.994 153.322C115.033 153.322 115.075 153.326 115.114 153.326C115.656 153.342 116.205 153.369 116.763 153.396C117.155 153.415 117.551 153.434 117.947 153.457C118.32 153.48 118.697 153.503 119.077 153.53C119.373 153.545 119.669 153.569 119.969 153.588C120.223 153.607 120.477 153.626 120.73 153.642C121.034 153.665 121.338 153.688 121.645 153.711C122.068 153.745 122.491 153.78 122.922 153.815C123.348 153.853 123.783 153.891 124.217 153.93C124.652 153.968 125.09 154.011 125.528 154.053C125.574 154.057 125.617 154.061 125.659 154.064C126.059 154.107 126.459 154.145 126.862 154.187C129.1 154.414 131.402 154.68 133.771 154.983C135.185 155.164 136.618 155.357 138.069 155.564C140.272 155.875 142.509 156.213 144.762 156.575C147.019 156.94 149.288 157.326 151.57 157.732C152.147 157.836 152.724 157.94 153.304 158.047C154.011 158.178 154.719 158.311 155.426 158.447C155.872 158.532 156.318 158.616 156.764 158.705C157.295 158.808 157.829 158.912 158.36 159.016C161.854 159.708 165.329 160.446 168.72 161.219C169.278 161.346 169.835 161.477 170.389 161.603C171.496 161.861 172.593 162.122 173.68 162.388C173.979 162.461 174.275 162.534 174.571 162.607C175.313 162.791 176.048 162.976 176.774 163.16V163.164C176.817 163.172 176.859 163.183 176.901 163.195C177.432 163.33 177.958 163.464 178.481 163.602C179.715 163.925 180.929 164.251 182.122 164.579C182.914 164.802 183.698 165.021 184.471 165.244C185.628 165.582 186.762 165.921 187.865 166.259C188.138 166.344 188.411 166.428 188.68 166.509C189.488 166.763 190.28 167.015 191.056 167.266C191.671 167.466 192.271 167.67 192.863 167.874C193.455 168.077 194.036 168.281 194.605 168.485C194.974 168.616 195.335 168.75 195.693 168.881C196.216 169.073 196.723 169.265 197.223 169.461C197.377 169.519 197.526 169.581 197.676 169.638C197.957 169.746 198.23 169.857 198.499 169.969C198.68 170.038 198.857 170.111 199.034 170.188C199.207 170.257 199.383 170.33 199.552 170.403C199.726 170.472 199.895 170.546 200.064 170.622C200.206 170.68 200.344 170.742 200.479 170.803C200.752 170.922 201.025 171.041 201.29 171.164C201.421 171.226 201.552 171.284 201.682 171.345L201.982 171.484C202.024 171.507 202.067 171.526 202.109 171.545C202.436 171.699 202.751 171.853 203.059 172.006C203.347 172.152 203.628 172.299 203.897 172.441C204.216 172.61 204.519 172.775 204.812 172.944C204.869 172.975 204.927 173.01 204.985 173.041C205.181 173.152 205.369 173.267 205.557 173.379C205.927 173.606 206.276 173.829 206.603 174.052C206.926 174.275 207.226 174.494 207.507 174.713C207.507 174.717 207.507 174.717 207.51 174.717C207.645 174.824 207.776 174.932 207.899 175.036C208.099 175.209 208.283 175.374 208.452 175.543C208.509 175.595 208.563 175.651 208.614 175.709C208.636 175.727 208.657 175.748 208.675 175.77C208.756 175.858 208.837 175.947 208.914 176.035C209.006 176.143 209.091 176.251 209.171 176.358C209.21 176.412 209.252 176.466 209.287 176.52C209.333 176.585 209.379 176.654 209.417 176.72C209.452 176.773 209.483 176.831 209.513 176.885C209.595 177.023 209.664 177.169 209.721 177.319C209.763 177.422 209.798 177.527 209.825 177.635C209.854 177.737 209.876 177.841 209.89 177.946Z" fill="black"/>
</g>
<defs>
<clipPath id="clip0_136_1112">
<rect width="302.487" height="220" fill="white" transform="translate(0.756592 0.550293)"/>
</clipPath>
</defs>
</svg>
