<svg width="162" height="40" viewBox="0 0 162 40" fill="none" xmlns="http://www.w3.org/2000/svg">
<path d="M13.872 13.16C14.224 13.336 14.424 13.608 14.472 13.976C14.536 14.344 14.448 14.68 14.208 14.984C14.032 15.224 13.8 15.36 13.512 15.392C13.24 15.424 12.968 15.368 12.696 15.224C12.232 14.984 11.744 14.792 11.232 14.648C10.72 14.504 10.176 14.432 9.6 14.432C8.688 14.432 7.864 14.584 7.128 14.888C6.408 15.176 5.784 15.6 5.256 16.16C4.728 16.704 4.32 17.352 4.032 18.104C3.76 18.856 3.624 19.688 3.624 20.6C3.624 21.608 3.776 22.504 4.08 23.288C4.384 24.056 4.8 24.712 5.328 25.256C5.872 25.784 6.504 26.184 7.224 26.456C7.96 26.712 8.752 26.84 9.6 26.84C10.144 26.84 10.672 26.776 11.184 26.648C11.712 26.52 12.208 26.328 12.672 26.072C12.96 25.928 13.24 25.88 13.512 25.928C13.8 25.96 14.032 26.096 14.208 26.336C14.48 26.672 14.576 27.016 14.496 27.368C14.432 27.704 14.232 27.96 13.896 28.136C13.496 28.36 13.056 28.552 12.576 28.712C12.096 28.872 11.608 29 11.112 29.096C10.616 29.192 10.112 29.24 9.6 29.24C8.448 29.24 7.36 29.048 6.336 28.664C5.312 28.28 4.4 27.72 3.6 26.984C2.8 26.248 2.168 25.344 1.704 24.272C1.256 23.2 1.032 21.976 1.032 20.6C1.032 19.368 1.24 18.232 1.656 17.192C2.088 16.136 2.688 15.232 3.456 14.48C4.24 13.712 5.152 13.12 6.192 12.704C7.232 12.272 8.368 12.056 9.6 12.056C10.368 12.056 11.112 12.152 11.832 12.344C12.568 12.536 13.248 12.808 13.872 13.16ZM29.0338 22.688C29.0338 23.968 28.7538 25.104 28.1938 26.096C27.6338 27.072 26.8738 27.84 25.9138 28.4C24.9538 28.96 23.8738 29.24 22.6738 29.24C21.4738 29.24 20.3938 28.96 19.4338 28.4C18.4738 27.84 17.7058 27.072 17.1298 26.096C16.5698 25.104 16.2898 23.968 16.2898 22.688C16.2898 21.392 16.5698 20.256 17.1298 19.28C17.7058 18.288 18.4738 17.512 19.4338 16.952C20.3938 16.376 21.4738 16.088 22.6738 16.088C23.8738 16.088 24.9538 16.376 25.9138 16.952C26.8738 17.512 27.6338 18.288 28.1938 19.28C28.7538 20.256 29.0338 21.392 29.0338 22.688ZM26.6338 22.688C26.6338 21.808 26.4578 21.048 26.1058 20.408C25.7538 19.752 25.2738 19.24 24.6658 18.872C24.0738 18.488 23.4098 18.296 22.6738 18.296C21.9378 18.296 21.2658 18.488 20.6578 18.872C20.0498 19.24 19.5698 19.752 19.2178 20.408C18.8658 21.048 18.6898 21.808 18.6898 22.688C18.6898 23.536 18.8658 24.288 19.2178 24.944C19.5698 25.6 20.0498 26.112 20.6578 26.48C21.2658 26.848 21.9378 27.032 22.6738 27.032C23.4098 27.032 24.0738 26.848 24.6658 26.48C25.2738 26.112 25.7538 25.6 26.1058 24.944C26.4578 24.288 26.6338 23.536 26.6338 22.688ZM42.0943 11.24C42.4463 11.24 42.7343 11.352 42.9583 11.576C43.1823 11.8 43.2943 12.096 43.2943 12.464V27.776C43.2943 28.128 43.1823 28.424 42.9583 28.664C42.7343 28.888 42.4463 29 42.0943 29C41.7583 29 41.4703 28.888 41.2303 28.664C41.0063 28.424 40.8943 28.128 40.8943 27.776V26.048L41.3983 26.072C41.3983 26.36 41.2783 26.688 41.0383 27.056C40.8143 27.408 40.5023 27.752 40.1023 28.088C39.7023 28.424 39.2303 28.704 38.6863 28.928C38.1423 29.136 37.5583 29.24 36.9343 29.24C35.8303 29.24 34.8383 28.96 33.9583 28.4C33.0783 27.824 32.3823 27.048 31.8703 26.072C31.3583 25.08 31.1023 23.944 31.1023 22.664C31.1023 21.384 31.3583 20.256 31.8703 19.28C32.3823 18.288 33.0703 17.512 33.9343 16.952C34.8143 16.376 35.7903 16.088 36.8623 16.088C37.5343 16.088 38.1583 16.2 38.7343 16.424C39.3263 16.648 39.8383 16.936 40.2703 17.288C40.7023 17.64 41.0383 18.016 41.2783 18.416C41.5183 18.8 41.6383 19.168 41.6383 19.52L40.8943 19.592V12.464C40.8943 12.112 41.0063 11.824 41.2303 11.6C41.4703 11.36 41.7583 11.24 42.0943 11.24ZM37.1983 27.032C37.9663 27.032 38.6303 26.84 39.1903 26.456C39.7663 26.072 40.2143 25.552 40.5343 24.896C40.8543 24.24 41.0143 23.496 41.0143 22.664C41.0143 21.832 40.8543 21.088 40.5343 20.432C40.2143 19.776 39.7663 19.256 39.1903 18.872C38.6143 18.488 37.9503 18.296 37.1983 18.296C36.4623 18.296 35.8063 18.488 35.2303 18.872C34.6703 19.256 34.2223 19.776 33.8863 20.432C33.5663 21.088 33.4063 21.832 33.4063 22.664C33.4063 23.496 33.5663 24.24 33.8863 24.896C34.2223 25.552 34.6703 26.072 35.2303 26.456C35.8063 26.84 36.4623 27.032 37.1983 27.032ZM52.5366 29.24C51.2086 29.24 50.0566 28.968 49.0806 28.424C48.1046 27.864 47.3446 27.104 46.8006 26.144C46.2726 25.168 46.0086 24.056 46.0086 22.808C46.0086 21.4 46.2886 20.2 46.8486 19.208C47.4246 18.2 48.1686 17.432 49.0806 16.904C49.9926 16.36 50.9606 16.088 51.9846 16.088C52.7686 16.088 53.5126 16.248 54.2166 16.568C54.9206 16.872 55.5446 17.304 56.0886 17.864C56.6486 18.408 57.0886 19.056 57.4086 19.808C57.7286 20.544 57.8966 21.352 57.9126 22.232C57.8966 22.552 57.7686 22.816 57.5286 23.024C57.2886 23.232 57.0086 23.336 56.6886 23.336H47.3526L46.7766 21.296H55.8006L55.3446 21.728V21.128C55.3126 20.568 55.1286 20.08 54.7926 19.664C54.4566 19.232 54.0406 18.904 53.5446 18.68C53.0486 18.44 52.5286 18.32 51.9846 18.32C51.5046 18.32 51.0406 18.4 50.5926 18.56C50.1606 18.704 49.7686 18.944 49.4166 19.28C49.0806 19.616 48.8086 20.064 48.6006 20.624C48.4086 21.168 48.3126 21.848 48.3126 22.664C48.3126 23.544 48.4966 24.312 48.8646 24.968C49.2326 25.624 49.7286 26.136 50.3526 26.504C50.9766 26.856 51.6646 27.032 52.4166 27.032C53.0086 27.032 53.4966 26.976 53.8806 26.864C54.2646 26.736 54.5846 26.584 54.8406 26.408C55.0966 26.232 55.3206 26.064 55.5126 25.904C55.7526 25.76 55.9926 25.688 56.2326 25.688C56.5206 25.688 56.7606 25.792 56.9526 26C57.1446 26.192 57.2406 26.424 57.2406 26.696C57.2406 27.048 57.0646 27.368 56.7126 27.656C56.2806 28.072 55.6806 28.44 54.9126 28.76C54.1606 29.08 53.3686 29.24 52.5366 29.24Z" fill="white"/>
<path d="M77.8573 21.1531C79.1438 23.4176 80.428 25.6834 81.7185 27.9457C82.4734 29.2688 83.2541 30.5777 83.9964 31.9075C85.4923 34.5875 84.6155 37.7716 81.9807 39.2911C79.4664 40.7413 76.2067 39.9079 74.7 37.3269C71.0166 31.0163 67.36 24.6894 63.7441 18.3397C62.6354 16.3923 62.7749 14.3718 64.1006 12.571C65.4998 10.6703 67.4688 10.0481 69.7768 10.4749C70.3355 10.7397 70.9904 10.8978 71.4303 11.2944C72.1461 11.939 72.8314 12.6718 73.3347 13.4877C74.8915 16.0125 76.3567 18.594 77.8573 21.1531Z" fill="#C879EB"/>
<path d="M79.3005 23.7495C80.618 21.5029 81.9385 19.2579 83.2523 17.0092C84.0209 15.694 84.764 14.3636 85.5444 13.0558C87.1178 10.4202 90.3134 9.58726 92.9466 11.1094C95.4598 12.562 96.3681 15.8015 94.8859 18.3969C91.2624 24.7422 87.6118 31.0722 83.9206 37.3783C82.7885 39.3123 80.969 40.2017 78.7465 39.954C76.4006 39.6927 74.8774 38.2987 74.0928 36.0863C74.0432 35.4703 73.8525 34.8241 73.976 34.2447C74.1766 33.3025 74.4685 32.3424 74.9234 31.4988C76.3313 28.8881 77.8343 26.3287 79.3005 23.7495Z" fill="#C879EB"/>
<path d="M91.8649 15.2815C89.6474 11.5714 82.211 14.0301 82.211 14.0301V3.05176e-05C82.211 3.05176e-05 61.6415 15.2815 67.4145 19.3566C69.6904 20.9631 77.589 20.9631 77.589 20.9631V34.9932C77.589 34.9932 95.2607 20.9631 91.8649 15.2815Z" fill="white"/>
<path d="M113.473 13.16C113.825 13.336 114.025 13.608 114.073 13.976C114.137 14.344 114.049 14.68 113.809 14.984C113.633 15.224 113.401 15.36 113.113 15.392C112.841 15.424 112.569 15.368 112.297 15.224C111.833 14.984 111.345 14.792 110.833 14.648C110.321 14.504 109.777 14.432 109.201 14.432C108.289 14.432 107.465 14.584 106.729 14.888C106.009 15.176 105.385 15.6 104.857 16.16C104.329 16.704 103.921 17.352 103.633 18.104C103.361 18.856 103.225 19.688 103.225 20.6C103.225 21.608 103.377 22.504 103.681 23.288C103.985 24.056 104.401 24.712 104.929 25.256C105.473 25.784 106.105 26.184 106.825 26.456C107.561 26.712 108.353 26.84 109.201 26.84C109.745 26.84 110.273 26.776 110.785 26.648C111.313 26.52 111.809 26.328 112.273 26.072C112.561 25.928 112.841 25.88 113.113 25.928C113.401 25.96 113.633 26.096 113.809 26.336C114.081 26.672 114.177 27.016 114.097 27.368C114.033 27.704 113.833 27.96 113.497 28.136C113.097 28.36 112.657 28.552 112.177 28.712C111.697 28.872 111.209 29 110.713 29.096C110.217 29.192 109.713 29.24 109.201 29.24C108.049 29.24 106.961 29.048 105.937 28.664C104.913 28.28 104.001 27.72 103.201 26.984C102.401 26.248 101.769 25.344 101.305 24.272C100.857 23.2 100.633 21.976 100.633 20.6C100.633 19.368 100.841 18.232 101.257 17.192C101.689 16.136 102.289 15.232 103.057 14.48C103.841 13.712 104.753 13.12 105.793 12.704C106.833 12.272 107.969 12.056 109.201 12.056C109.969 12.056 110.713 12.152 111.433 12.344C112.169 12.536 112.849 12.808 113.473 13.16ZM119.13 27.776C119.13 28.128 119.01 28.424 118.77 28.664C118.546 28.888 118.266 29 117.93 29C117.594 29 117.306 28.888 117.066 28.664C116.842 28.424 116.73 28.128 116.73 27.776V12.464C116.73 12.112 116.85 11.824 117.09 11.6C117.33 11.36 117.618 11.24 117.954 11.24C118.306 11.24 118.586 11.36 118.794 11.6C119.018 11.824 119.13 12.112 119.13 12.464V27.776ZM133.046 16.184C133.398 16.184 133.686 16.304 133.91 16.544C134.134 16.768 134.246 17.056 134.246 17.408V27.776C134.246 28.128 134.134 28.424 133.91 28.664C133.686 28.888 133.398 29 133.046 29C132.71 29 132.422 28.888 132.182 28.664C131.958 28.424 131.846 28.128 131.846 27.776V26.048L132.35 26.12C132.35 26.408 132.23 26.728 131.99 27.08C131.766 27.432 131.454 27.776 131.054 28.112C130.654 28.432 130.182 28.704 129.638 28.928C129.094 29.136 128.51 29.24 127.886 29.24C126.782 29.24 125.79 28.96 124.91 28.4C124.03 27.824 123.334 27.04 122.822 26.048C122.31 25.056 122.054 23.928 122.054 22.664C122.054 21.368 122.31 20.232 122.822 19.256C123.334 18.264 124.022 17.488 124.886 16.928C125.766 16.368 126.742 16.088 127.814 16.088C128.502 16.088 129.134 16.2 129.71 16.424C130.302 16.648 130.814 16.936 131.246 17.288C131.678 17.64 132.006 18.016 132.23 18.416C132.47 18.8 132.59 19.168 132.59 19.52L131.846 19.592V17.408C131.846 17.072 131.958 16.784 132.182 16.544C132.422 16.304 132.71 16.184 133.046 16.184ZM128.15 27.032C128.902 27.032 129.566 26.84 130.142 26.456C130.718 26.072 131.166 25.552 131.486 24.896C131.806 24.224 131.966 23.48 131.966 22.664C131.966 21.832 131.806 21.088 131.486 20.432C131.166 19.776 130.718 19.256 130.142 18.872C129.566 18.488 128.902 18.296 128.15 18.296C127.414 18.296 126.758 18.488 126.182 18.872C125.622 19.256 125.174 19.776 124.838 20.432C124.518 21.088 124.358 21.832 124.358 22.664C124.358 23.48 124.518 24.224 124.838 24.896C125.174 25.552 125.622 26.072 126.182 26.456C126.758 26.84 127.414 27.032 128.15 27.032ZM136.865 27.032C136.721 26.808 136.657 26.552 136.673 26.264C136.689 25.96 136.857 25.704 137.177 25.496C137.401 25.352 137.633 25.296 137.873 25.328C138.129 25.344 138.369 25.464 138.593 25.688C139.041 26.184 139.537 26.576 140.081 26.864C140.641 27.152 141.313 27.296 142.097 27.296C142.417 27.28 142.745 27.232 143.081 27.152C143.417 27.056 143.705 26.896 143.945 26.672C144.185 26.432 144.305 26.088 144.305 25.64C144.305 25.24 144.177 24.92 143.921 24.68C143.665 24.44 143.329 24.248 142.913 24.104C142.497 23.944 142.049 23.8 141.569 23.672C141.057 23.528 140.537 23.368 140.009 23.192C139.497 23.016 139.033 22.792 138.617 22.52C138.201 22.232 137.857 21.864 137.585 21.416C137.329 20.968 137.201 20.416 137.201 19.76C137.201 19.008 137.409 18.36 137.825 17.816C138.257 17.272 138.809 16.848 139.481 16.544C140.169 16.24 140.913 16.088 141.713 16.088C142.177 16.088 142.665 16.152 143.177 16.28C143.689 16.392 144.185 16.576 144.665 16.832C145.145 17.088 145.561 17.424 145.913 17.84C146.073 18.048 146.161 18.296 146.177 18.584C146.209 18.872 146.081 19.128 145.793 19.352C145.601 19.512 145.369 19.584 145.097 19.568C144.825 19.552 144.601 19.464 144.425 19.304C144.121 18.92 143.729 18.624 143.249 18.416C142.769 18.192 142.225 18.08 141.617 18.08C141.313 18.08 140.993 18.128 140.657 18.224C140.337 18.304 140.065 18.456 139.841 18.68C139.617 18.904 139.505 19.232 139.505 19.664C139.505 20.064 139.633 20.384 139.889 20.624C140.161 20.864 140.513 21.064 140.945 21.224C141.377 21.384 141.849 21.528 142.361 21.656C142.857 21.784 143.345 21.936 143.825 22.112C144.321 22.288 144.761 22.52 145.145 22.808C145.545 23.08 145.865 23.44 146.105 23.888C146.361 24.32 146.489 24.872 146.489 25.544C146.489 26.328 146.257 27 145.793 27.56C145.345 28.104 144.769 28.52 144.065 28.808C143.377 29.096 142.649 29.24 141.881 29.24C140.969 29.24 140.057 29.08 139.145 28.76C138.249 28.424 137.489 27.848 136.865 27.032ZM155.43 16.16C156.534 16.16 157.39 16.4 157.998 16.88C158.606 17.344 159.03 17.976 159.27 18.776C159.526 19.576 159.654 20.456 159.654 21.416V27.776C159.654 28.128 159.534 28.424 159.294 28.664C159.07 28.888 158.79 29 158.454 29C158.102 29 157.814 28.888 157.59 28.664C157.366 28.424 157.254 28.128 157.254 27.776V21.416C157.254 20.856 157.174 20.344 157.014 19.88C156.87 19.416 156.606 19.048 156.222 18.776C155.854 18.504 155.334 18.368 154.662 18.368C154.038 18.368 153.478 18.504 152.982 18.776C152.502 19.048 152.126 19.416 151.854 19.88C151.598 20.344 151.47 20.856 151.47 21.416V27.776C151.47 28.128 151.35 28.424 151.11 28.664C150.886 28.888 150.606 29 150.27 29C149.918 29 149.63 28.888 149.406 28.664C149.182 28.424 149.07 28.128 149.07 27.776V12.464C149.07 12.112 149.182 11.824 149.406 11.6C149.63 11.36 149.918 11.24 150.27 11.24C150.606 11.24 150.886 11.36 151.11 11.6C151.35 11.824 151.47 12.112 151.47 12.464V19.016L151.038 19.256C151.15 18.904 151.334 18.544 151.59 18.176C151.862 17.808 152.19 17.472 152.574 17.168C152.974 16.864 153.414 16.624 153.894 16.448C154.374 16.256 154.886 16.16 155.43 16.16Z" fill="white"/>
</svg>
