<svg width="109" height="90" viewBox="0 0 109 90" fill="none" xmlns="http://www.w3.org/2000/svg">
<path d="M10.7168 58.9986C1.65915 49.1682 2.57115 36.5442 2.59995 36.4002V-1.9998C2.59995 -3.27284 3.10566 -4.49374 4.00584 -5.39392C4.90601 -6.29409 6.12691 -6.7998 7.39995 -6.7998H36.1999C41.4944 -6.7998 45.7999 -2.4942 45.7999 2.80019V36.4002C45.7999 37.6732 45.2942 38.8941 44.3941 39.7943C43.4939 40.6945 42.273 41.2002 41 41.2002H26.2256C26.3291 43.5729 27.038 45.8796 28.2848 47.901C30.7232 51.7458 35.3167 54.3714 41.9455 55.6962L45.7999 56.4642V70.0002H41C27.6415 70.0002 17.4511 66.2994 10.7168 58.9986ZM63.5503 58.9986C54.4879 49.1682 55.4047 36.5442 55.4335 36.4002V-1.9998C55.4335 -3.27284 55.9393 -4.49374 56.8394 -5.39392C57.7396 -6.29409 58.9605 -6.7998 60.2335 -6.7998H89.0335C94.3279 -6.7998 98.6335 -2.4942 98.6335 2.80019V36.4002C98.6335 37.6732 98.1278 38.8941 97.2277 39.7943C96.3275 40.6945 95.1066 41.2002 93.8335 41.2002H79.0591C79.1627 43.5729 79.8716 45.8796 81.1183 47.901C83.5567 51.7458 88.1503 54.3714 94.7791 55.6962L98.6335 56.4642V70.0002H93.8335C80.4751 70.0002 70.2847 66.2994 63.5503 58.9986Z" fill="black" fill-opacity="0.3"/>
</svg>
