<svg width="260" height="221" viewBox="0 0 260 221" fill="none" xmlns="http://www.w3.org/2000/svg">
<g clip-path="url(#clip0_168_854)">
<path d="M250.524 180.769H9.47666C4.32159 180.769 0.127441 176.575 0.127441 171.42V142.408H259.873V171.42C259.873 176.575 255.679 180.769 250.524 180.769Z" fill="#E6E6E6"/>
<path d="M161.197 175.916H99.7273V219.823H161.197V175.916Z" fill="#E6E6E6"/>
<path d="M164.895 214.277H96.0298V219.823H164.895V214.277Z" fill="#E6E6E6"/>
<path d="M259.642 154.656H0.127441V7.16591C0.127441 3.62825 3.00569 0.75 6.54335 0.75H253.226C256.763 0.75 259.642 3.62825 259.642 7.16591V154.656Z" fill="#454545"/>
<path d="M253.402 7.45154H6.13574V146.568H253.402V7.45154Z" fill="white"/>
<path d="M54.0219 90.3685C55.9144 88.8047 58.2554 88.5136 59.2504 89.7182C60.2454 90.9228 59.5176 93.1665 57.6242 94.7306C56.8765 95.3658 55.9874 95.8126 55.0316 96.0338L46.9292 102.558L43.9485 98.6908L52.2525 92.6694C52.6501 91.7721 53.2568 90.9831 54.0219 90.3685Z" fill="#FFB6B6"/>
<path d="M7.19102 105.089C7.18691 104.801 7.18962 102.284 9.05295 100.693C11.1934 98.8658 14.2137 99.6054 15.2731 99.8648C17.7202 100.464 17.9209 101.514 20.219 102.592C24.5185 104.61 19.1314 103.578 21.6897 102.93C22.5752 102.706 35.3151 101.823 38.4863 99.8711C44.6539 96.0751 48.8563 93.7732 48.8563 93.7732L51.6035 99.2676C51.6035 99.2676 47.631 104.791 42.0402 108.883C36.3052 113.081 33.4378 115.179 29.08 115.99C28.7047 116.06 19.4753 117.636 12.0417 112.082C10.3461 110.815 7.23943 108.494 7.19102 105.089Z" fill="black"/>
<path d="M15.7129 91.1161C20.9983 91.1161 25.283 86.8314 25.283 81.546C25.283 76.2606 20.9983 71.976 15.7129 71.976C10.4275 71.976 6.14282 76.2606 6.14282 81.546C6.14282 86.8314 10.4275 91.1161 15.7129 91.1161Z" fill="#FFB6B6"/>
<path d="M90.6623 145.841L80.8064 135.753L75.7188 141.06L83.0617 150.733L90.3452 151.566L90.6623 145.841Z" fill="#FFB6B6"/>
<path d="M34.3849 126.923C34.9613 126.971 36.7933 127.338 38.5442 126.375C39.7392 125.717 40.3521 124.74 40.5591 124.429C43.127 120.572 52.9835 114.558 61.8295 114.187C63.8327 114.104 65.1513 114.336 66.3498 114.96C68.0492 115.846 68.7276 117.115 70.8842 120.088C72.0638 121.714 73.369 123.246 74.5629 124.861C81.5522 134.32 84.2019 135.062 83.931 138.094C83.6306 141.459 80.0021 144.651 77.5905 144.282C76.6028 144.131 76.2203 143.445 74.9008 142.054C71.0318 137.978 69.4312 138.731 66.6766 135.609C63.4606 131.964 63.8816 128.941 62.2037 128.824C60.6478 128.716 59.9866 131.295 56.6647 134.72C55.1447 136.287 54.0623 137.006 50.7647 139.294C37.9232 148.203 37.7183 148.829 35.1267 149.539C33.9929 149.85 25.9453 152.057 23.0785 148.545C18.5923 143.051 29.1906 126.491 34.3849 126.923Z" fill="#3D3D3D"/>
<path d="M87.6491 148.121C88.3739 147.796 89.2215 147.415 89.4942 146.54C89.6787 145.948 89.5724 145.218 89.1911 144.713C88.751 144.131 88.0997 144.054 88.126 143.951C88.1661 143.794 89.7063 143.856 91.3971 144.453C91.7162 144.566 93.1616 145.094 95.0002 146.53C96.4733 147.68 96.2751 147.91 97.1989 148.573C100.034 150.609 102.694 149.005 104.228 150.914C104.82 151.65 105.073 152.696 104.824 153.542C104.323 155.241 101.89 155.825 100.56 156.127C97.3563 156.854 94.9316 156.26 92.3999 155.834C83.7898 154.383 78.9521 155.704 78.3046 153.71C78.182 153.332 78.3811 153.364 79.045 150.594C79.7002 147.859 79.6787 147.108 80.2368 146.889C81.0768 146.56 81.6408 148.059 83.7569 148.572C85.6321 149.027 87.1794 148.332 87.6491 148.121Z" fill="#3D3D3D"/>
<path d="M73.1402 178.845L70.6501 164.963L63.4602 166.497L64.1043 178.625L69.6633 183.404L73.1402 178.845Z" fill="#FFB6B6"/>
<path d="M37.1968 131.589C37.6469 131.953 38.9566 133.285 40.9464 133.471C42.3044 133.598 43.3604 133.133 43.7063 132.992C47.9969 131.243 59.5299 131.801 67.0574 136.462C68.762 137.518 69.7227 138.45 70.3636 139.64C71.2723 141.328 71.1212 142.759 71.2364 146.429C71.2994 148.437 71.5193 150.438 71.5999 152.445C72.0719 164.196 73.8474 166.298 71.9206 168.655C69.7827 171.27 64.9879 171.874 63.1993 170.215C62.4668 169.535 62.536 168.752 62.2248 166.861C61.3125 161.316 59.5651 161.04 59.0391 156.91C58.425 152.087 60.4706 149.823 59.1478 148.784C57.9211 147.821 55.9261 149.583 51.2539 150.552C49.1161 150.995 47.8167 150.982 43.8035 151.024C28.1752 151.184 27.6541 151.587 25.1107 150.72C23.9979 150.34 16.1 147.647 15.6995 143.132C15.0728 136.066 33.1411 128.315 37.1968 131.589Z" fill="#3D3D3D"/>
<path d="M69.3666 179.04C70.1491 179.177 71.0642 179.338 71.7813 178.767C72.2665 178.381 72.5886 177.717 72.5563 177.085C72.5191 176.357 72.0233 175.927 72.1029 175.857C72.2242 175.75 73.4642 176.665 74.5276 178.109C74.7283 178.382 75.6277 179.63 76.3431 181.851C76.9162 183.629 76.6227 183.709 77.0147 184.776C78.218 188.053 81.3195 188.219 81.5171 190.66C81.5934 191.602 81.215 192.61 80.5339 193.169C79.166 194.294 76.824 193.411 75.554 192.914C72.4952 191.716 70.8222 189.864 68.9668 188.089C62.6571 182.054 57.9121 180.431 58.4964 178.416C58.607 178.035 58.7537 178.174 60.8588 176.254C62.9364 174.359 63.3403 173.726 63.925 173.858C64.8051 174.057 64.4299 175.614 65.8928 177.227C67.1891 178.656 68.8595 178.95 69.3666 179.04Z" fill="#3D3D3D"/>
<path d="M17.0178 83.3756C17.3904 82.0429 16.9225 81.5572 17.3994 80.959C17.3994 80.959 17.5913 80.7183 19.3073 80.0687C18.801 77.1312 19.1801 76.6345 19.1801 76.6345C19.617 76.0621 20.4921 75.9237 21.0879 75.9986C22.348 76.1569 22.5711 77.296 23.3774 77.2705C24.4912 77.2352 25.8271 75.0056 25.4124 73.0732C25.0742 71.4969 23.6158 70.3262 23.2502 70.5294C22.8877 70.7308 21.5828 69.8427 21.0879 70.0206C20.75 70.1421 19.1592 69.9805 18.7985 70.1478C18.4046 70.3306 17.2765 71.4684 17.1687 71.325C16.4192 70.3288 16.4351 69.9809 16.0003 69.7662C15.2298 69.3858 14.3921 70.089 12.9477 70.7838C9.97586 72.2132 9.10565 71.3605 7.73293 72.5644C7.0395 73.1726 6.66765 74.3348 5.95226 76.6345C4.95179 79.8506 4.45156 81.4587 4.93473 82.9941C5.42748 84.5599 6.15313 84.2191 7.22416 86.4282C8.4164 88.8873 8.00548 90.3167 9.13202 90.8799C10.0027 91.3151 11.4019 91.0381 11.9302 90.2439C12.8347 88.8842 10.4969 87.0448 11.2943 84.9019C11.7837 83.5865 13.2937 82.5891 14.2197 82.8669C15.2666 83.1809 15.3438 85.0582 16.0003 85.0291C16.5626 85.0042 16.9529 83.6079 17.0178 83.3756Z" fill="#3D3D3D"/>
<path d="M9.76782 92.5333C11.7262 90.3374 19.7031 92.6102 20.4518 96.0946C20.7598 97.5278 19.6229 98.1329 19.9431 99.7831C20.4113 102.197 23.0627 102.032 25.0307 104.489C27.8247 107.977 24.9463 111.387 28.0833 117.208C28.7536 118.452 29.3186 119.501 30.4999 120.515C33.2107 122.844 35.7335 122.045 37.1138 124.204C38.146 125.818 37.7219 127.808 37.6226 128.274C37.2152 130.185 36.1111 130.651 35.3331 132.217C34.0388 134.822 35.5043 136.735 35.5875 139.848C35.6916 143.743 33.6218 149.142 29.4824 150.914C24.8319 152.904 19.2231 149.608 16.5089 146.335C14.8894 144.382 14.4193 142.581 13.7107 140.357C10.5442 130.419 8.75522 131.318 6.33367 123.441C3.56538 114.435 3.02117 103.885 6.33367 100.546C6.77272 100.104 7.98101 99.081 8.75029 97.2393C9.78545 94.7611 8.89117 93.5162 9.76782 92.5333Z" fill="black"/>
<path d="M38.7048 143.649C40.2231 145.578 40.4585 147.925 39.2306 148.891C38.0027 149.857 35.7769 149.076 34.2583 147.146C33.6411 146.384 33.2155 145.484 33.0171 144.524L26.687 136.268L29.9579 133.773L36.4466 141.825C37.3342 142.244 38.1085 142.869 38.7048 143.649Z" fill="#FFB6B6"/>
<path d="M15.5219 100.902C15.8036 100.839 18.2681 100.328 20.2057 101.828C22.4314 103.55 22.3236 106.658 22.2857 107.748C22.1984 110.266 21.2117 110.676 20.6247 113.146C19.5265 117.767 21.6179 122.061 22.7734 124.434C23.1734 125.255 24.4583 127.768 27.0162 130.474C31.9908 135.737 36.4295 138.507 36.4295 138.507L31.6611 142.745C31.6611 142.745 24.0656 140.43 18.9189 135.792C13.6396 131.034 5.52101 114.2 3.83799 110.1C3.69305 109.746 5.74611 115.488 9.66615 107.077C10.5603 105.159 12.1986 101.644 15.5219 100.902Z" fill="black"/>
<path d="M137.564 96.9532L131.87 94.2563C134.206 97.5151 136.218 102.605 137.295 106.655C139.119 102.882 142.059 98.2661 144.969 95.5088L138.952 97.0567C142.66 78.885 156.606 65.8395 172.576 65.8395L172.802 65.1831C156.121 65.1831 141.349 78.0478 137.564 96.9532Z" fill="#454545"/>
<path d="M163.768 124.641H127.795C126.269 124.641 125.028 123.4 125.028 121.874C125.028 120.348 126.269 119.107 127.795 119.107H163.768C165.294 119.107 166.535 120.348 166.535 121.874C166.535 123.4 165.294 124.641 163.768 124.641Z" fill="black"/>
<path d="M211.634 124.641H175.661C174.136 124.641 172.894 123.4 172.894 121.874C172.894 120.348 174.136 119.107 175.661 119.107H211.634C213.16 119.107 214.401 120.348 214.401 121.874C214.401 123.4 213.16 124.641 211.634 124.641Z" fill="#E6E6E6"/>
<path d="M190.339 49.3636H155.372C154.49 49.3636 153.773 48.6463 153.773 47.7648C153.773 46.8832 154.49 46.1663 155.372 46.1663H190.339C191.22 46.1663 191.937 46.8832 191.937 47.7648C191.937 48.6463 191.22 49.3636 190.339 49.3636Z" fill="#454545"/>
<path d="M209.103 66.4205H136.608C135.726 66.4205 135.009 65.7032 135.009 64.8217C135.009 63.9401 135.726 63.2231 136.608 63.2231H209.103C209.984 63.2231 210.701 63.9401 210.701 64.8217C210.701 65.7032 209.984 66.4205 209.103 66.4205Z" fill="#454545"/>
<path d="M15.8455 220.232C15.8455 220.519 16.0761 220.75 16.3633 220.75H243.637C243.924 220.75 244.155 220.519 244.155 220.232C244.155 219.945 243.924 219.714 243.637 219.714H16.3633C16.0761 219.714 15.8455 219.945 15.8455 220.232Z" fill="#454545"/>
<path d="M71.6523 97.482C71.5907 97.482 71.5292 97.4797 71.4673 97.4758C67.8256 97.242 55.3647 95.4788 47.9256 82.6164C47.3126 81.5574 47.4334 80.211 48.2259 79.2665L62.0028 62.8519C62.5662 62.1807 63.4365 61.7939 64.3179 61.8045C64.9271 61.8191 66.3695 61.9729 66.6496 63.0848C68.3046 69.6541 75.293 77.3781 83.6976 78.402C84.5495 78.5055 85.2333 79.2655 85.5269 80.4348C85.7559 81.3451 85.5443 82.2835 84.9461 83.0093L73.9097 96.411C73.349 97.0916 72.5263 97.482 71.6523 97.482ZM64.265 62.4648C63.5918 62.4648 62.937 62.7665 62.5089 63.2764L48.7322 79.691C48.1174 80.4236 48.0232 81.4661 48.4974 82.2855C55.7724 94.8643 67.9507 96.5878 71.5099 96.8165C72.2366 96.8652 72.9345 96.5555 73.3997 95.991L84.4362 82.5893C84.8996 82.0271 85.0635 81.3006 84.8862 80.5958C84.713 79.9058 84.2887 79.1394 83.6176 79.0575C74.9353 78.0001 67.7173 70.027 66.009 63.2461C65.8706 62.6971 65.0376 62.4826 64.3042 62.4652C64.2911 62.4649 64.2781 62.4648 64.265 62.4648Z" fill="#454545"/>
<path d="M56.2743 83.1566L66.2068 73.0293C66.8858 72.337 65.8221 71.2716 65.1423 71.9648L55.2098 82.0921C54.5308 82.7843 55.5945 83.8497 56.2743 83.1566Z" fill="#E6E6E6"/>
<path d="M62.2692 86.0098C65.0105 83.5528 67.3926 80.708 69.3432 77.5864C69.8581 76.7624 68.5561 76.0058 68.0432 76.8265C66.1574 79.8445 63.8545 82.5702 61.2047 84.9453C60.4817 85.5933 61.5493 86.6551 62.2692 86.0098Z" fill="#E6E6E6"/>
<path d="M67.6722 89.4262C70.1681 86.6615 72.2926 83.5759 73.9651 80.2476C74.399 79.3841 73.1008 78.6209 72.6652 79.4877C71.0492 82.7035 69.0196 85.6899 66.6077 88.3617C65.9599 89.0793 67.0214 90.1472 67.6722 89.4262Z" fill="#E6E6E6"/>
<path d="M63.417 71.194C68.9475 71.194 73.4309 66.8051 73.4309 61.3911C73.4309 55.9771 68.9475 51.5881 63.417 51.5881C57.8865 51.5881 53.4031 55.9771 53.4031 61.3911C53.4031 66.8051 57.8865 71.194 63.417 71.194Z" fill="black"/>
<path d="M68.6274 66.0412C67.0873 62.2546 65.5472 58.4681 64.0071 54.6816C63.7944 54.1586 63.1281 54.14 62.9205 54.6816C61.3988 58.6514 60.4044 62.7938 59.9263 67.0174C59.8449 67.7368 60.9724 67.731 61.0532 67.0174C61.2403 65.3647 61.518 63.7242 61.8745 62.1013C63.1436 62.1679 64.4231 62.0255 65.6478 61.6865C66.2788 63.2379 66.9098 64.7893 67.5408 66.3407C67.8104 67.0037 68.901 66.7137 68.6274 66.0412ZM62.1301 60.9873C62.5096 59.4336 62.9647 57.8984 63.4927 56.3879L65.2198 60.6342C64.2082 60.8997 63.1736 61.0178 62.1301 60.9873Z" fill="white"/>
</g>
<defs>
<clipPath id="clip0_168_854">
<rect width="259.745" height="220" fill="white" transform="translate(0.127441 0.75)"/>
</clipPath>
</defs>
</svg>
