<svg width="190" height="220" viewBox="0 0 190 220" fill="none" xmlns="http://www.w3.org/2000/svg">
<g clip-path="url(#clip0_265_1502)">
<path d="M183.213 81.0862H6.62612C5.0527 81.0843 3.54423 80.4585 2.43165 79.3459C1.31907 78.2333 0.693223 76.7249 0.691406 75.1514V5.93471C0.693223 4.36128 1.31907 2.85282 2.43165 1.74024C3.54423 0.62766 5.0527 0.0018168 6.62612 0H183.213C184.786 0.0018168 186.295 0.62766 187.407 1.74024C188.52 2.85282 189.145 4.36128 189.147 5.93471V75.1515C189.145 76.7249 188.52 78.2333 187.407 79.3459C186.295 80.4585 184.786 81.0843 183.213 81.0862Z" fill="#F2F2F2"/>
<path d="M142.03 77.3013H34.6576C26.6564 77.2923 18.9855 74.1098 13.3277 68.4521C7.67001 62.7944 4.48754 55.1234 4.47852 47.1222V33.9677C4.48753 25.9664 7.67 18.2954 13.3277 12.6377C18.9854 6.97992 26.6564 3.79741 34.6576 3.78833H155.184C163.186 3.79741 170.857 6.97992 176.514 12.6377C182.172 18.2954 185.354 25.9664 185.363 33.9677C185.35 45.4565 180.781 56.471 172.657 64.5948C164.533 72.7186 153.519 77.2883 142.03 77.3013Z" fill="white"/>
<path d="M114.331 23.6026H43.3567C42.9508 23.6026 42.5615 23.4414 42.2745 23.1543C41.9874 22.8673 41.8262 22.478 41.8262 22.0721C41.8262 21.6661 41.9874 21.2768 42.2745 20.9898C42.5615 20.7028 42.9508 20.5415 43.3567 20.5415H114.331C114.737 20.5415 115.126 20.7028 115.413 20.9898C115.7 21.2768 115.862 21.6661 115.862 22.0721C115.862 22.478 115.7 22.8673 115.413 23.1543C115.126 23.4414 114.737 23.6026 114.331 23.6026Z" fill="#E6E6E6"/>
<path d="M150.259 39.9327H43.3567C42.9508 39.9327 42.5615 39.7715 42.2745 39.4844C41.9874 39.1974 41.8262 38.8081 41.8262 38.4021C41.8262 37.9962 41.9874 37.6069 42.2745 37.3199C42.5615 37.0328 42.9508 36.8716 43.3567 36.8716H150.259C150.665 36.8716 151.055 37.0328 151.342 37.3199C151.629 37.6069 151.79 37.9962 151.79 38.4021C151.79 38.8081 151.629 39.1974 151.342 39.4844C151.055 39.7715 150.665 39.9327 150.259 39.9327Z" fill="#E6E6E6"/>
<path d="M150.259 56.2628H43.3567C42.9508 56.2628 42.5615 56.1015 42.2745 55.8145C41.9874 55.5275 41.8262 55.1382 41.8262 54.7322C41.8262 54.3263 41.9874 53.937 42.2745 53.6499C42.5615 53.3629 42.9508 53.2017 43.3567 53.2017H150.259C150.665 53.2017 151.055 53.3629 151.342 53.6499C151.629 53.937 151.79 54.3263 151.79 54.7322C151.79 55.1382 151.629 55.5275 151.342 55.8145C151.055 56.1015 150.665 56.2628 150.259 56.2628Z" fill="#E6E6E6"/>
<path d="M150.259 56.2628H43.3567C42.9508 56.2628 42.5615 56.1015 42.2745 55.8145C41.9874 55.5275 41.8262 55.1382 41.8262 54.7322C41.8262 54.3263 41.9874 53.937 42.2745 53.6499C42.5615 53.3629 42.9508 53.2017 43.3567 53.2017H150.259C150.665 53.2017 151.055 53.3629 151.342 53.6499C151.629 53.937 151.79 54.3263 151.79 54.7322C151.79 55.1382 151.629 55.5275 151.342 55.8145C151.055 56.1015 150.665 56.2628 150.259 56.2628Z" fill="#E6E6E6"/>
<path d="M106.841 41.8069C106.858 42.268 106.976 42.7197 107.186 43.1302C107.397 43.5407 107.695 43.9002 108.059 44.1831C108.423 44.466 108.845 44.6656 109.295 44.7679C109.745 44.8701 110.212 44.8724 110.663 44.7747L116.5 54.3503L118.984 49.0787L113.06 40.7937C112.846 40.0472 112.365 39.4052 111.709 38.9894C111.053 38.5736 110.267 38.413 109.501 38.5379C108.734 38.6628 108.04 39.0645 107.55 39.667C107.059 40.2695 106.807 41.0309 106.841 41.8069Z" fill="#FFB6B6"/>
<path d="M150.643 69.2501L130.528 58.3392L124.183 52.3864C124.183 52.3864 121.425 51.6479 122.44 50.7511C123.455 49.8542 120.562 48.9893 120.562 48.9893L117.156 45.7937L112.316 49.2183L113.717 51.3896C113.717 51.3896 113.621 54.9841 115.59 54.2925C117.559 53.601 117.067 56.5822 117.067 56.5822L128.82 74.8014L150.643 69.2501Z" fill="#888888"/>
<path d="M91.267 58.9703C102.118 58.9703 110.915 50.1737 110.915 39.3224C110.915 28.4712 102.118 19.6746 91.267 19.6746C80.4158 19.6746 71.6191 28.4712 71.6191 39.3224C71.6191 50.1737 80.4158 58.9703 91.267 58.9703Z" fill="black"/>
<path d="M150.707 212.361H146.622L144.678 196.604H150.707V212.361Z" fill="#FFB6B6"/>
<path d="M152.862 219.439H149.932L149.409 216.673L148.07 219.439H140.3C139.927 219.439 139.564 219.32 139.264 219.1C138.964 218.879 138.743 218.568 138.632 218.213C138.521 217.857 138.527 217.475 138.648 217.123C138.77 216.771 139.001 216.467 139.307 216.255L145.512 211.97V209.173L152.039 209.563L152.862 219.439Z" fill="#3D3D3D"/>
<path d="M118.031 212.361H113.946L112.002 196.604H118.031V212.361Z" fill="#FFB6B6"/>
<path d="M120.188 219.439H117.258L116.735 216.673L115.396 219.439H107.626C107.253 219.439 106.891 219.32 106.591 219.1C106.29 218.879 106.069 218.568 105.958 218.213C105.847 217.857 105.853 217.475 105.974 217.123C106.096 216.771 106.327 216.467 106.633 216.255L112.838 211.97V209.173L119.365 209.563L120.188 219.439Z" fill="#3D3D3D"/>
<path d="M146.372 93.1877H125.752V116.662H146.372V93.1877Z" fill="#FFB6B6"/>
<path d="M126.228 104.767L122.739 108.891L116.712 121.58L101.524 157.715L98.3125 165.357L100.906 178.866C100.906 178.866 101.326 188.384 101.326 189.942C101.326 193.114 103.979 194.872 103.979 194.872L105.926 205.01L124.801 204.217C124.801 204.217 124.142 193.042 120.189 190.223C116.236 187.404 114.419 172.713 114.419 172.713L112.27 166.195L133.207 141.376L133.343 150.052L133.408 154.251C133.408 154.251 130.342 181.562 133.916 186.862C137.49 192.162 133.989 191.539 133.989 191.539L134.159 202.472L156.523 202.631L151.59 171.153C151.59 171.153 149.084 169.175 150.425 167.187C151.765 165.198 149.126 162.763 149.126 162.763L150.309 138.189C150.309 138.189 148.999 133.945 150.54 133.393C152.082 132.841 150.743 129.191 150.743 129.191L150.972 124.435L146.372 109.684L126.228 104.767Z" fill="#3D3D3D"/>
<path d="M146.689 93.1879L148.909 86.5261L150.495 84.3055L151.13 77.961C151.13 60.8308 147.309 63.6833 147.309 63.6833L145.102 57.6585L134.951 57.3413L128.448 63.5272L123.055 65.4306L120.943 76.4035L124.8 88.1123L125.752 94.4568C123.936 97.8082 124.09 96.223 125.593 98.7393L143.516 103.656C149.861 105.877 149.861 100.167 148.589 98.7393C147.316 97.3118 146.689 93.1879 146.689 93.1879Z" fill="#888888"/>
<path d="M138.715 55.2117C143.913 55.2117 148.126 50.9985 148.126 45.8012C148.126 40.6039 143.913 36.3906 138.715 36.3906C133.518 36.3906 129.305 40.6039 129.305 45.8012C129.305 50.9985 133.518 55.2117 138.715 55.2117Z" fill="#FFB6B6"/>
<path d="M151.278 58.3626C151.367 58.5122 151.421 58.6799 151.436 58.8532C151.45 59.0265 151.426 59.2008 151.364 59.3633C151.302 59.5259 151.204 59.6723 151.078 59.7918C150.952 59.9113 150.8 60.0007 150.634 60.0534C149.372 60.4722 148.595 61.6935 147.687 62.6706C146.783 63.6445 145.327 64.4534 144.172 63.7904C143.021 63.1305 142.942 61.4461 141.977 60.5325C141.038 59.6442 139.478 59.7521 138.374 60.4278L138.341 60.4481C138.15 60.5723 137.927 60.638 137.7 60.6369C137.472 60.6359 137.25 60.5682 137.061 60.4423C136.871 60.3163 136.723 60.1376 136.634 59.9282C136.545 59.7188 136.519 59.488 136.56 59.2642C136.947 57.2071 137.334 55.1502 137.72 53.0935C136.705 55.5394 135.231 57.7684 133.377 59.6601C132.867 60.2492 132.22 60.7045 131.493 60.9861C130.833 61.1955 130.192 60.5134 129.552 60.6371C131.144 59.2445 136.499 50.3178 135.541 44.3507C134.415 44.4776 133.288 44.6045 132.162 44.7314C132.04 44.1985 131.78 43.7071 131.407 43.3071C131.453 43.8258 131.387 44.3482 131.214 44.8393C130.744 44.8932 130.272 44.944 129.802 44.9979C129.149 45.0709 128.438 45.1343 127.877 44.7917C126.941 44.2207 126.912 42.8693 127.179 41.8034C127.959 38.7041 130.326 36.1124 133.222 34.7547C136.118 33.4001 136.975 36.4169 140.026 35.4526C146.054 33.5492 150.672 36.804 152.3 42.8439C153.667 47.91 152.674 53.287 151.278 58.3626Z" fill="#3D3D3D"/>
<path d="M177.333 219.644H165.809L165.76 219.554C165.613 219.287 165.47 219.004 165.337 218.713C164.15 216.172 163.649 213.266 163.206 210.701L162.873 208.769C162.832 208.535 162.863 208.294 162.96 208.077C163.057 207.86 163.217 207.678 163.419 207.552C163.621 207.427 163.855 207.365 164.093 207.373C164.33 207.382 164.559 207.461 164.751 207.601C166.503 208.876 168.254 210.149 170.007 211.42C170.671 211.903 171.428 212.462 172.154 213.066C172.224 212.726 172.297 212.385 172.371 212.048C172.421 211.816 172.54 211.604 172.712 211.44C172.883 211.275 173.1 211.166 173.334 211.125C173.568 211.085 173.809 211.115 174.026 211.212C174.243 211.31 174.426 211.469 174.552 211.671L175.9 213.837C176.883 215.419 177.751 216.978 177.574 218.659C177.575 218.68 177.573 218.7 177.57 218.72C177.534 218.996 177.469 219.268 177.374 219.53L177.333 219.644Z" fill="#F0F0F0"/>
<path d="M188.899 219.893L79.3996 220C79.2903 220 79.1857 219.956 79.1086 219.878C79.0315 219.801 78.9883 219.696 78.9883 219.587C78.9883 219.477 79.0315 219.373 79.1086 219.295C79.1857 219.218 79.2903 219.174 79.3996 219.173L188.899 219.067C189.008 219.067 189.112 219.111 189.19 219.188C189.267 219.266 189.31 219.371 189.31 219.48C189.31 219.589 189.267 219.694 189.19 219.772C189.112 219.849 189.008 219.893 188.899 219.893Z" fill="#CACACA"/>
<path d="M89.4801 65.767L77.4357 55.5956C77.024 55.2471 76.7674 54.7496 76.722 54.2121C76.6767 53.6747 76.8465 53.1412 77.194 52.7287L79.4108 50.1037C79.7593 49.692 80.2568 49.4353 80.7943 49.39C81.3317 49.3447 81.8652 49.5144 82.2777 49.862L94.3221 60.0334C94.7338 60.3819 94.9904 60.8794 95.0358 61.4169C95.0811 61.9543 94.9113 62.4878 94.5638 62.9003L92.347 65.5253C91.9985 65.937 91.501 66.1937 90.9635 66.239C90.4261 66.2843 89.8926 66.1145 89.4801 65.767Z" fill="#888888"/>
<path d="M78.0668 52.9404C77.8795 53.1627 77.7881 53.4502 77.8125 53.7398C77.8369 54.0294 77.9752 54.2976 78.197 54.4853L90.2415 64.6568C90.4637 64.8441 90.7512 64.9355 91.0408 64.9111C91.3305 64.8867 91.5986 64.7484 91.7864 64.5265L94.0032 61.9015C94.1904 61.6793 94.2819 61.3918 94.2575 61.1022C94.2331 60.8125 94.0948 60.5444 93.8729 60.3566L81.8285 50.1852C81.6062 49.9979 81.3188 49.9065 81.0291 49.9309C80.7395 49.9553 80.4714 50.0936 80.2836 50.3154L78.0668 52.9404Z" fill="white"/>
<path d="M85.1385 56.8946C85.0967 56.9531 85.0419 57.001 84.9783 57.0346C84.9148 57.0682 84.8443 57.0866 84.7724 57.0882L82.8799 57.1317C82.8191 57.1331 82.7587 57.1225 82.702 57.1005C82.6453 57.0785 82.5935 57.0456 82.5495 57.0036C82.5055 56.9616 82.4702 56.9113 82.4457 56.8557C82.4211 56.8001 82.4078 56.7401 82.4064 56.6793C82.405 56.6185 82.4156 56.5581 82.4375 56.5014C82.4595 56.4447 82.4925 56.3928 82.5345 56.3489C82.5765 56.3049 82.6267 56.2696 82.6824 56.2451C82.738 56.2205 82.7979 56.2071 82.8587 56.2058L84.0967 56.1773L82.8775 52.9601C82.8343 52.8454 82.8384 52.7182 82.8889 52.6064C82.9394 52.4947 83.0322 52.4075 83.1468 52.364C83.2615 52.3206 83.3887 52.3244 83.5006 52.3746C83.6125 52.4248 83.6999 52.5173 83.7436 52.6319L85.1948 56.4611C85.2211 56.5304 85.2303 56.605 85.2218 56.6785C85.2133 56.7521 85.1873 56.8226 85.1459 56.884L85.1385 56.8946Z" fill="black"/>
<path d="M85.3808 57.703C85.8372 57.77 86.2734 57.9363 86.6587 58.1902C87.0439 58.444 87.3687 58.7793 87.6104 59.1723C87.852 59.5653 88.0046 60.0065 88.0573 60.4648C88.11 60.9231 88.0615 61.3874 87.9153 61.825L96.7995 68.6686L91.2891 70.5649L83.6973 63.7754C82.9785 63.4811 82.3926 62.9334 82.0506 62.236C81.7086 61.5386 81.6344 60.74 81.8419 59.9915C82.0494 59.243 82.5243 58.5966 83.1765 58.1748C83.8287 57.753 84.613 57.5851 85.3808 57.703Z" fill="#FFB6B6"/>
<path d="M131.634 61.0867L108.888 75.072C108.888 75.072 99.7167 71.6787 101.509 70.1078C103.301 68.5369 97.5956 67.475 97.5956 67.475L91.2924 63.2343L87.6348 67.4851C87.6348 67.4851 88.3012 74.3897 89.4352 73.1942C90.5691 71.9986 92.2641 75.2645 92.2641 75.2645C92.2641 75.2645 92.765 78.9112 95.993 77.9935C99.221 77.0758 107.883 86.695 107.883 86.695L135.876 76.2544L131.634 61.0867Z" fill="#888888"/>
<path d="M90.5753 47.2039C90.3116 47.2039 90.0515 47.1425 89.8157 47.0246C89.5798 46.9066 89.3747 46.7354 89.2166 46.5244L85.0506 40.9697C84.9168 40.7912 84.8194 40.5882 84.7641 40.3721C84.7087 40.156 84.6965 39.9311 84.728 39.7103C84.7596 39.4895 84.8343 39.2771 84.948 39.0851C85.0616 38.8932 85.2119 38.7255 85.3904 38.5917C85.7508 38.3214 86.2038 38.2054 86.6498 38.2691C86.8706 38.3007 87.083 38.3754 87.2749 38.4891C87.4669 38.6027 87.6345 38.7531 87.7684 38.9315L90.4939 42.5652L97.494 32.0652C97.7439 31.6904 98.1324 31.4302 98.5742 31.3418C99.0159 31.2535 99.4747 31.3442 99.8495 31.5941C100.224 31.844 100.485 32.2326 100.573 32.6743C100.661 33.1161 100.571 33.5749 100.321 33.9497L91.9888 46.4475C91.8381 46.6735 91.6354 46.8601 91.3976 46.9917C91.1599 47.1232 90.8941 47.1958 90.6226 47.2034C90.6068 47.2037 90.5911 47.2039 90.5753 47.2039Z" fill="white"/>
</g>
<defs>
<clipPath id="clip0_265_1502">
<rect width="188.617" height="220" fill="white" transform="translate(0.691406)"/>
</clipPath>
</defs>
</svg>
