<svg width="16" height="16" viewBox="0 0 16 16" fill="none" xmlns="http://www.w3.org/2000/svg">
<path fill-rule="evenodd" clip-rule="evenodd" d="M8.00185 1.5C8.13446 1.5 8.26164 1.55268 8.35541 1.64645C8.44917 1.74021 8.50185 1.86739 8.50185 2V2.504C10.552 2.53425 12.5948 2.75745 14.6032 3.17067C14.7248 3.19536 14.8329 3.26441 14.9065 3.36438C14.98 3.46436 15.0137 3.58811 15.0011 3.71158C14.9885 3.83505 14.9304 3.9494 14.8381 4.03241C14.7458 4.11541 14.626 4.16113 14.5019 4.16067H13.2232L14.8725 10.91C14.8989 11.0179 14.8887 11.1314 14.8435 11.2328C14.7982 11.3342 14.7205 11.4177 14.6225 11.47C13.9704 11.8196 13.2417 12.0017 12.5019 12C11.762 12.0017 11.0333 11.8196 10.3812 11.47C10.2832 11.4177 10.2055 11.3342 10.1602 11.2328C10.115 11.1314 10.1048 11.0179 10.1312 10.91L11.7805 4.16067H8.50185V13.014C9.36385 13.0647 10.1912 13.2427 10.9665 13.5313C11.0765 13.5722 11.1685 13.6504 11.2266 13.7523C11.2848 13.8542 11.3052 13.9733 11.2844 14.0887C11.2636 14.2042 11.2028 14.3086 11.1128 14.3838C11.0227 14.459 10.9091 14.5001 10.7919 14.5H5.21185C5.09456 14.5001 4.98096 14.459 4.89092 14.3838C4.80089 14.3086 4.74015 14.2042 4.71934 14.0887C4.69852 13.9733 4.71895 13.8542 4.77706 13.7523C4.83516 13.6504 4.92724 13.5722 5.03719 13.5313C5.81185 13.2427 6.63985 13.0647 7.50185 13.0147V4.16H4.22319L5.87252 10.9093C5.89895 11.0172 5.88872 11.1308 5.84346 11.2322C5.79819 11.3336 5.72046 11.417 5.62252 11.4693C4.9705 11.8191 4.24178 12.0015 3.50185 12C2.76198 12.0017 2.03327 11.8196 1.38119 11.47C1.28325 11.4177 1.20552 11.3342 1.16025 11.2328C1.11498 11.1314 1.10476 11.0179 1.13119 10.91L2.78052 4.16067H1.50185C1.37774 4.16113 1.25789 4.11541 1.16562 4.03241C1.07334 3.9494 1.01524 3.83505 1.0026 3.71158C0.989962 3.58811 1.0237 3.46436 1.09724 3.36438C1.17079 3.26441 1.27889 3.19536 1.40052 3.17067C3.40887 2.75745 5.45166 2.53425 7.50185 2.504V2C7.50185 1.86739 7.55453 1.74021 7.6483 1.64645C7.74207 1.55268 7.86924 1.5 8.00185 1.5ZM11.2539 10.5287L12.5019 5.42067L13.7499 10.5287H11.2539ZM4.74985 10.5287L3.50185 5.42067L2.25385 10.5287H4.74985Z" fill="white"/>
</svg>
