<svg width="55" height="64" viewBox="0 0 55 64" fill="none" xmlns="http://www.w3.org/2000/svg">
<g id="Silver Medal" filter="url(#filter0_d_1736_12418)">
<path id="Rectangle 8" d="M18 31.4429L23.6091 34.3415L12.2188 51.9998L8.94961 45.4737L18 31.4429Z" fill="#418ED6"/>
<path id="Rectangle 9" d="M18 31.4429L12.3909 28.5443L1.00069 46.2026L8.94961 45.4737L18 31.4429Z" fill="#2B63A6"/>
<path id="Rectangle 10" d="M26 31.4429L20.3909 34.3415L31.7812 51.9998L35.0504 45.4737L26 31.4429Z" fill="#2B63A6"/>
<path id="Rectangle 11" d="M26 31.4429L31.6091 28.5443L42.9993 46.2026L35.0504 45.4737L26 31.4429Z" fill="#418ED6"/>
<path id="Ellipse 3" d="M21.9906 37.0692C32.8783 37.0692 41.8016 29.1575 41.8016 19.2846C41.8016 9.41177 32.8783 1.5 21.9906 1.5C11.1029 1.5 2.17969 9.41177 2.17969 19.2846C2.17969 29.1575 11.1029 37.0692 21.9906 37.0692Z" fill="#E3E3E3" stroke="#404040"/>
<ellipse id="Ellipse 4" cx="21.9919" cy="19.2847" rx="15.0739" ry="13.4922" fill="#595959"/>
<g id="Mask Group">
<mask id="mask0_1736_12418" style="mask-type:alpha" maskUnits="userSpaceOnUse" x="7" y="7" width="31" height="28">
<ellipse id="Ellipse 4_2" cx="22.7965" cy="20.7248" rx="15.109" ry="13.5236" fill="#C28B37"/>
</mask>
<g mask="url(#mask0_1736_12418)">
<ellipse id="Ellipse 3_2" cx="21.9918" cy="19.2844" rx="15.109" ry="13.5236" fill="url(#paint0_linear_1736_12418)"/>
</g>
</g>
<path id="Vector" d="M22.0746 9.87646L25.3338 15.7109L31.8523 16.4402L27.3762 20.9328L28.593 27.3799L22.0746 24.4626L15.5561 27.3799L16.7837 20.9328L12.2969 16.4402L18.8153 15.7109L22.0746 9.87646Z" fill="url(#paint1_linear_1736_12418)"/>
</g>
<defs>
<filter id="filter0_d_1736_12418" x="0.216502" y="0.216502" width="54.536" height="63.536" filterUnits="userSpaceOnUse" color-interpolation-filters="sRGB">
<feFlood flood-opacity="0" result="BackgroundImageFix"/>
<feColorMatrix in="SourceAlpha" type="matrix" values="0 0 0 0 0 0 0 0 0 0 0 0 0 0 0 0 0 0 127 0" result="hardAlpha"/>
<feOffset dx="5.48449" dy="5.48449"/>
<feGaussianBlur stdDeviation="3.13399"/>
<feComposite in2="hardAlpha" operator="out"/>
<feColorMatrix type="matrix" values="0 0 0 0 0 0 0 0 0 0 0 0 0 0 0 0 0 0 0.3 0"/>
<feBlend mode="normal" in2="BackgroundImageFix" result="effect1_dropShadow_1736_12418"/>
<feBlend mode="normal" in="SourceGraphic" in2="effect1_dropShadow_1736_12418" result="shape"/>
</filter>
<linearGradient id="paint0_linear_1736_12418" x1="21.9918" y1="5.76074" x2="21.9918" y2="32.808" gradientUnits="userSpaceOnUse">
<stop stop-color="#9CA1A3"/>
<stop offset="1" stop-color="#9CA1A3" stop-opacity="0"/>
</linearGradient>
<linearGradient id="paint1_linear_1736_12418" x1="22.0746" y1="9.87646" x2="22.0746" y2="27.3799" gradientUnits="userSpaceOnUse">
<stop stop-color="#F1F5F5"/>
<stop offset="0.0001" stop-color="white"/>
<stop offset="1" stop-color="#F1F5F5"/>
</linearGradient>
</defs>
</svg>
