<svg width="12" height="15" viewBox="0 0 12 15" fill="none" xmlns="http://www.w3.org/2000/svg">
<path d="M4 2.00033V0.666992H8V2.00033H4ZM5.33333 9.33366H6.66667V5.33366H5.33333V9.33366ZM6 14.667C5.17778 14.667 4.40267 14.5088 3.67467 14.1923C2.94667 13.8759 2.31067 13.4452 1.76667 12.9003C1.22267 12.3554 0.792222 11.7192 0.475333 10.9917C0.158444 10.2641 0 9.48921 0 8.66699C0 7.84477 0.158444 7.06966 0.475333 6.34166C0.792222 5.61366 1.22267 4.97766 1.76667 4.43366C2.31067 3.88966 2.94689 3.45921 3.67533 3.14233C4.40378 2.82544 5.17867 2.66699 6 2.66699C6.68889 2.66699 7.35 2.7781 7.98333 3.00033C8.61667 3.22255 9.21111 3.54477 9.76667 3.96699L10.7 3.03366L11.6333 3.96699L10.7 4.90033C11.1222 5.45588 11.4444 6.05033 11.6667 6.68366C11.8889 7.31699 12 7.9781 12 8.66699C12 9.48921 11.8416 10.2643 11.5247 10.9923C11.2078 11.7203 10.7773 12.3563 10.2333 12.9003C9.68933 13.4443 9.05311 13.875 8.32467 14.1923C7.59622 14.5097 6.82133 14.6679 6 14.667ZM6 13.3337C7.28889 13.3337 8.38889 12.8781 9.3 11.967C10.2111 11.0559 10.6667 9.95588 10.6667 8.66699C10.6667 7.3781 10.2111 6.2781 9.3 5.36699C8.38889 4.45588 7.28889 4.00033 6 4.00033C4.71111 4.00033 3.61111 4.45588 2.7 5.36699C1.78889 6.2781 1.33333 7.3781 1.33333 8.66699C1.33333 9.95588 1.78889 11.0559 2.7 11.967C3.61111 12.8781 4.71111 13.3337 6 13.3337Z" fill="white"/>
</svg>
