<svg width="20" height="20" viewBox="0 0 20 20" fill="none" xmlns="http://www.w3.org/2000/svg">
<g id="Actions &#38; UI/telegram-alt">
<path id="Vector" d="M18.5546 2.02266C18.3173 1.82527 18.0309 1.69591 17.726 1.64833C17.421 1.60076 17.1089 1.63675 16.8228 1.75249L1.8887 7.78195C1.56933 7.91335 1.29746 8.13877 1.1092 8.42829C0.920937 8.71782 0.825174 9.05775 0.834622 9.40297C0.84407 9.74819 0.958282 10.0824 1.1621 10.3612C1.36592 10.64 1.6497 10.8502 1.97578 10.9639L4.99662 12.0145L6.68037 17.5826C6.70325 17.6569 6.73646 17.7277 6.77902 17.7929C6.78548 17.8029 6.79458 17.8103 6.80145 17.82C6.85062 17.8887 6.91005 17.9493 6.97764 17.9998C6.99687 18.0145 7.01528 18.0282 7.03583 18.0412C7.11494 18.0937 7.20255 18.1321 7.29477 18.1547L7.30463 18.1555L7.31023 18.1579C7.36567 18.1692 7.4221 18.1749 7.47868 18.175C7.48413 18.175 7.48896 18.1724 7.49435 18.1723C7.57974 18.1708 7.66437 18.1561 7.74526 18.1287C7.76408 18.1223 7.7802 18.1116 7.79846 18.1038C7.85877 18.0788 7.91592 18.0468 7.9687 18.0084C8.01097 17.9727 8.05325 17.9371 8.09555 17.9015L10.3474 15.4154L13.7059 18.0171C14.0016 18.2473 14.3655 18.3724 14.7403 18.3727C15.1329 18.3722 15.5134 18.2368 15.8181 17.989C16.1227 17.7413 16.3329 17.3964 16.4134 17.0121L19.1324 3.66492C19.194 3.36452 19.1727 3.05302 19.071 2.76374C18.9692 2.47447 18.7907 2.21831 18.5546 2.02266ZM7.80912 12.2798C7.69357 12.3949 7.61458 12.5416 7.58207 12.7014L7.32414 13.9547L6.67076 11.7938L10.0585 10.0297L7.80912 12.2798ZM14.7273 16.6996L10.7583 13.625C10.5923 13.4967 10.384 13.4357 10.175 13.4541C9.96591 13.4725 9.77148 13.569 9.6304 13.7243L8.90923 14.5203L9.16409 13.2816L15.0666 7.37909C15.2075 7.23839 15.2933 7.05188 15.3086 6.85336C15.3238 6.65483 15.2674 6.45741 15.1497 6.29685C15.0319 6.13629 14.8606 6.02322 14.6666 5.97812C14.4727 5.93301 14.269 5.95885 14.0925 6.05096L5.62141 10.4615L2.51778 9.32573L17.4999 3.33205L14.7273 16.6996Z" fill="#121212"/>
</g>
</svg>
